<svg width="193" height="206" xmlns="http://www.w3.org/2000/svg" xmlns:undefined="http://www.inkscape.org/namespaces/inkscape" version="1.1">
 <defs>
  <clipPath id="clip_28">
   <path id="svg_1" d="m-85.84395,-81.91546l360,0l0,360l-360,0l0,-360z"/>
  </clipPath>
  <clipPath id="clip_29">
   <path id="svg_2" d="m170.90705,147.26854l11.671,0l0,-50.978l-11.671,0l0,50.978z"/>
  </clipPath>
  <clipPath id="clip_30">
   <path id="svg_3" d="m171.11405,92.34754l7.202,0l0,-7.201l-7.202,0l0,7.201z"/>
  </clipPath>
  <clipPath id="clip_31">
   <path id="svg_4" d="m65.09205,198.64454l24.605,0l0,-12.035l-24.605,0l0,12.035z"/>
  </clipPath>
  <clipPath id="clip_32">
   <path id="svg_5" d="m106.58905,183.51274l27.412,0l0,-13.2982l-27.412,0l0,13.2982z"/>
  </clipPath>
  <clipPath id="clip_33">
   <path id="svg_6" d="m105.66105,198.93754l24.698,0l0,-11.6259l-24.698,0l0,11.6259z"/>
  </clipPath>
  <clipPath id="clip_34">
   <path id="svg_7" d="m54.82705,183.86134l38.066,0l0,-12.1428l-38.066,0l0,12.1428z"/>
  </clipPath>
 </defs>
 <g>
  <title>Layer 1</title>
  <g id="svg_8">
   <g id="svg_9"  >
    <g id="svg_10" clip-path="url(#clip_28)">
     <path id="svg_11" fill="#ee780d" d="m96.62386,195.73243c28.402,0 51.835,-13.744 51.835,-13.744c20.394,-4.411 33.223,-17.842 39.478,-37.823c2.721,-8.688 3.979,-17.702 4.609,-26.802c1.583,-22.893 1.88,-48.984 -11.59,-68.718c-8.895,-13.033 -21.311,-23.248 -34.853,-31.164c-14.84,-8.678 -30.716,-16.674 -48.224,-17.43c-18.874,-0.815 -34.934,8.192 -50.734,17.429c-13.542,7.917 -25.957,18.132 -34.853,31.165c-13.258,19.425 -13.125,46.522 -11.589,68.719c0.629,9.099 1.888,18.113 4.608,26.801c6.255,19.981 19.084,33.412 39.479,37.823c0,0 23.432,13.744 51.834,13.744"/>
     <path id="svg_12" fill="#d36114" d="m38.34845,75.11524c0.503,1.05 1.482,1.87 2.577,2.308c3.199,1.281 6.456,-1.113 9.497,-2.121c2.966,-0.983 6.634,-2.317 7.947,-5.438c1.69,-4.02 1.494,-9.276 1.512,-13.547c0.006,-1.522 -0.059,-3.226 -1.153,-4.285c-0.539,-0.521 -1.259,-0.808 -1.965,-1.062c-1.357,-0.489 -2.964,-0.882 -4.164,-0.082c-0.457,0.304 -0.797,0.751 -1.116,1.197c-3.907,5.464 -7.263,11.201 -11.301,16.599c-1.243,1.662 -2.555,3.618 -2.106,5.643c0.06,0.274 0.153,0.538 0.272,0.788"/>
     <path id="svg_13" fill="#d36114" d="m154.97055,73.76275c-0.478,1.062 -1.438,1.904 -2.522,2.367c-3.169,1.355 -6.48,-0.963 -9.544,-1.9c-2.988,-0.913 -6.685,-2.162 -8.07,-5.252c-1.783,-3.98 -1.709,-9.239 -1.826,-13.509c-0.042,-1.521 -0.017,-3.226 1.053,-4.31c0.527,-0.535 1.239,-0.836 1.939,-1.107c1.346,-0.52 2.944,-0.951 4.162,-0.179c0.463,0.294 0.814,0.733 1.143,1.171c4.033,5.371 7.52,11.029 11.683,16.333c1.281,1.632 2.638,3.556 2.237,5.592c-0.054,0.275 -0.141,0.541 -0.255,0.794"/>
     <g id="svg_14" opacity="0.39999">
      <g id="svg_15" clip-path="url(#clip_29)">
       <path id="svg_16" fill="#ee780d" d="m173.90706,147.26855c-0.382,0 -0.77,-0.073 -1.145,-0.229c-1.531,-0.631 -2.259,-2.386 -1.626,-3.917c5.353,-12.96 6.874,-29.127 4.069,-43.247c-0.323,-1.625 0.732,-3.204 2.357,-3.527c1.631,-0.322 3.205,0.733 3.528,2.357c3.027,15.236 1.379,32.696 -4.41,46.708c-0.477,1.156 -1.595,1.855 -2.773,1.855"/>
      </g>
     </g>
     <g id="svg_17" opacity="0.39999">
      <g id="svg_18" clip-path="url(#clip_30)">
       <path id="svg_19" fill="#ee780d" d="m171.16194,89.32613c-0.32,-1.962 1.011,-3.813 2.974,-4.132c1.962,-0.32 3.812,1.011 4.132,2.974c0.321,1.962 -1.011,3.812 -2.973,4.133c-1.963,0.319 -3.814,-1.012 -4.133,-2.975"/>
      </g>
     </g>
     <path id="svg_20" fill="#c6bc01" d="m43.24886,174.34275c3.22,5.644 8.618,10.188 14.682,12.155c-1.641,2.137 -2.612,4.359 -3.526,6.9c-0.752,2.09 -2.052,5.777 -1.036,7.956c1.811,3.878 10.051,3.644 13.774,4.008c7.036,0.687 14.377,0.317 20.978,-2.162c5.341,-2.005 7.446,-5.571 9.854,-7.99c4.004,5.383 13.219,6.88 19.094,7.853c7.893,1.302 33.317,3.646 27.41,-10.537c-1.709,-4.103 -5.368,-7.349 -9.604,-9.19c2.359,-0.6 4.909,-1.539 7.489,-3.012c3.533,-2.018 5.211,-5.575 5.557,-9.323c0.326,-3.533 0.247,-7.883 -3.947,-9.333c-4.187,-1.447 -9.324,-0.346 -13.598,0.15c-5.814,0.673 -11.616,1.44 -17.398,2.313c-16.141,2.439 -16.483,10.775 -16.483,10.775c-4.31,-5.727 -12.021,-8.875 -18.84,-11.157c-7.621,-2.551 -15.581,-4.205 -23.551,-5.435c-4.236,-0.656 -14.09,-0.834 -13.967,5.224c0.077,3.782 1.217,7.484 3.112,10.805"/>
     <g id="svg_21" opacity="0.39999">
      <g id="svg_22" clip-path="url(#clip_31)">
       <path id="svg_23" fill="#c6bc01" d="m67.30646,198.64454c-1.028,0 -1.949,-0.719 -2.167,-1.765c-0.25,-1.197 0.52,-2.371 1.718,-2.62c5.126,-1.067 10.144,-2.638 14.917,-4.671c1.434,-0.612 3.061,-1.352 4.216,-2.402c0.907,-0.825 2.306,-0.756 3.129,0.147c0.824,0.906 0.758,2.307 -0.147,3.13c-1.666,1.516 -3.692,2.448 -5.461,3.202c-5.041,2.147 -10.341,3.806 -15.752,4.932c-0.152,0.032 -0.304,0.047 -0.453,0.047"/>
      </g>
     </g>
     <g id="svg_24" opacity="0.39999">
      <g id="svg_25" clip-path="url(#clip_32)">
       <path id="svg_26" fill="#c6bc01" d="m108.80154,183.51273c-1.089,0 -2.038,-0.803 -2.191,-1.912c-0.168,-1.212 0.678,-2.331 1.89,-2.498c7.964,-1.104 15.579,-4.041 22.025,-8.495c1.007,-0.695 2.386,-0.444 3.082,0.562c0.696,1.007 0.444,2.387 -0.563,3.082c-7.013,4.848 -15.289,8.042 -23.936,9.24c-0.103,0.014 -0.205,0.021 -0.307,0.021"/>
      </g>
     </g>
     <g id="svg_27" opacity="0.39999">
      <g id="svg_28" clip-path="url(#clip_33)">
       <path id="svg_29" fill="#c6bc01" d="m128.14626,198.93754c-0.125,0 -0.251,-0.011 -0.378,-0.032c-7.439,-1.277 -14.499,-3.783 -20.981,-7.449c-1.066,-0.603 -1.441,-1.955 -0.838,-3.02c0.601,-1.064 1.953,-1.439 3.019,-0.838c6.037,3.414 12.615,5.749 19.55,6.94c1.206,0.207 2.016,1.352 1.809,2.558c-0.186,1.079 -1.122,1.841 -2.181,1.841"/>
      </g>
     </g>
     <g id="svg_30" opacity="0.39999">
      <g id="svg_31" clip-path="url(#clip_34)">
       <path id="svg_32" fill="#c6bc01" d="m90.67755,183.86134l-0.004,0c-12.404,-0.021 -24.052,-2.693 -34.616,-7.942c-1.097,-0.545 -1.543,-1.874 -0.999,-2.97c0.544,-1.096 1.873,-1.543 2.97,-0.999c9.95,4.943 20.936,7.459 32.653,7.479c1.224,0.002 2.214,0.996 2.212,2.22c-0.002,1.223 -0.994,2.212 -2.216,2.212"/>
      </g>
     </g>
     <path id="svg_33" fill="#a6a607" d="m86.66975,188.11524c2.099,3.505 6.429,4.807 10.532,5.019c4.827,0.454 10.236,-0.236 12.845,-4.533c2.494,-4.105 0.19,-8.767 -4.349,-10.422c-2.55,-0.93 -5.32,-1.344 -8.048,-1.261c-2.656,0.081 -5.568,0.319 -8.02,1.331c-3.85,1.589 -4.976,5.939 -3.239,9.36c0.088,0.174 0.181,0.342 0.279,0.506"/>
     <path id="svg_34" fill="#94940d" d="m94.12965,186.34574c0.183,0.672 0.635,1.292 1.275,1.658c0.464,0.267 0.981,0.428 1.51,0.528c1.112,0.21 2.232,0.254 3.343,0.01c1.251,-0.274 2.504,-0.975 2.908,-2.179c0.028,-0.082 0.038,-0.165 0.057,-0.247c0.061,-0.132 0.11,-0.271 0.144,-0.415c0.196,-0.824 0.056,-1.62 -0.534,-2.284c-0.365,-0.412 -0.932,-0.721 -1.485,-0.851c-0.867,-0.202 -1.838,-0.312 -2.732,-0.29c-1.208,0.029 -2.314,0.29 -3.285,0.977c-0.984,0.697 -1.509,1.96 -1.201,3.093"/>
     <path id="svg_35" fill="#232020" d="m69.13065,97.40824l-0.001,0.001c0.004,-0.003 0.008,-0.005 0.012,-0.007c-0.004,0.002 -0.007,0.004 -0.011,0.006"/>
     <path id="svg_36" fill="#232020" d="m77.06525,97.87405c0.02,-3.214 -3.277,-6.547 -7.611,-6.558c-6.231,-0.014 -10.054,5.491 -6.675,9.597c2.699,3.28 9.228,3.306 12.506,0.557c1.228,-1.031 1.772,-2.303 1.78,-3.596"/>
     <path id="svg_37" fill="#232020" d="m124.01546,97.40824l-0.001,0.001c0.004,-0.003 0.008,-0.005 0.012,-0.007c-0.004,0.002 -0.007,0.004 -0.011,0.006"/>
     <path id="svg_38" fill="#232020" d="m131.95096,97.87405c0.019,-3.214 -3.278,-6.547 -7.612,-6.558c-6.23,-0.014 -10.054,5.491 -6.675,9.597c2.699,3.28 9.228,3.306 12.507,0.557c1.227,-1.031 1.771,-2.303 1.78,-3.596"/>
     <path id="svg_39" fill="#ffffff" d="m96.62186,113.72654c-0.482,-0.611 -1.079,-1.198 -1.803,-1.752c-4.782,-3.664 -13.509,0.654 -17.469,3.872c-4.408,3.579 -7.221,8.689 -9.249,13.899c-0.583,1.498 0.656,3.062 1.997,3.515c6.265,2.121 13.364,1.307 19.113,-1.911c5.853,-3.276 12.139,-11.629 7.411,-17.623"/>
     <path id="svg_40" fill="#ffffff" d="m104.03305,131.34965c5.749,3.218 12.848,4.032 19.113,1.911c1.34,-0.453 2.579,-2.017 1.996,-3.515c-2.028,-5.21 -4.84,-10.32 -9.248,-13.899c-3.961,-3.218 -12.688,-7.536 -17.469,-3.872c-0.724,0.554 -1.321,1.141 -1.803,1.752c-4.728,5.994 1.557,14.347 7.411,17.623"/>
     <path id="svg_41" fill="#613813" d="m84.97246,93.81834c-0.18,2.854 -0.253,6.143 -1.327,8.835c-1.029,2.582 -3.952,3.334 -6.406,3.899c-3.103,0.716 -6.292,0.913 -9.469,0.952c-2.807,0.034 -5.812,-0.062 -8.22,-1.686c-5.294,-3.568 -5.247,-10.949 -4.853,-16.659c2.484,-0.672 5.031,-0.769 7.625,-0.796c3.449,-0.035 6.9,-0.037 10.349,-0.024c3.467,0.013 6.934,0.048 10.401,0.104c0.147,0.003 1.379,0.128 1.992,0.108c-0.033,0.298 -0.077,0.561 0.047,-0.003c-0.153,0.692 0.004,1.601 -0.013,2.324c-0.022,0.982 -0.064,1.965 -0.126,2.946m4.396,-8.237c-1.057,-1.774 -2.921,-2.074 -4.811,-2.113c-1.981,-0.04 -3.962,-0.063 -5.942,-0.085c-4.622,-0.05 -9.246,-0.062 -13.868,-0.037c-4.26,0.024 -8.671,-0.074 -12.731,1.412c-2.13,0.781 -2.294,3.072 -2.345,4.978c-0.061,2.309 -0.158,4.585 0.079,6.892c0.47,4.574 2.043,9.121 5.592,12.218c2.777,2.424 6.163,3.391 9.79,3.61c3.847,0.231 7.823,-0.057 11.616,-0.715c3.459,-0.601 7.406,-1.633 9.799,-4.394c2.404,-2.773 2.746,-6.603 3.13,-10.1c0.214,-1.955 0.351,-3.918 0.408,-5.884c0.056,-1.877 0.29,-4.094 -0.717,-5.782"/>
     <path id="svg_42" fill="#613813" d="m139.29175,93.81834c-0.18,2.854 -0.254,6.143 -1.327,8.835c-1.03,2.582 -3.952,3.334 -6.406,3.899c-3.103,0.716 -6.292,0.913 -9.469,0.952c-2.807,0.034 -5.812,-0.062 -8.22,-1.686c-5.294,-3.568 -5.247,-10.949 -4.853,-16.659c2.483,-0.672 5.031,-0.769 7.624,-0.796c3.45,-0.035 6.9,-0.037 10.35,-0.024c3.467,0.013 6.934,0.048 10.401,0.104c0.147,0.003 1.379,0.128 1.992,0.108c-0.033,0.298 -0.077,0.561 0.047,-0.003c-0.153,0.692 0.004,1.601 -0.013,2.324c-0.022,0.982 -0.064,1.965 -0.126,2.946m4.396,-8.237c-1.058,-1.774 -2.921,-2.074 -4.811,-2.113c-1.981,-0.04 -3.962,-0.063 -5.942,-0.085c-4.622,-0.05 -9.246,-0.062 -13.868,-0.037c-4.26,0.024 -8.671,-0.074 -12.731,1.412c-2,0.733 -2.162,3.206 -2.357,4.988c-0.247,2.256 -0.139,4.655 0.094,6.907c0.473,4.565 2.047,9.102 5.589,12.193c2.777,2.424 6.163,3.391 9.789,3.61c3.848,0.231 7.824,-0.057 11.617,-0.715c3.459,-0.601 7.406,-1.633 9.799,-4.394c2.404,-2.773 2.746,-6.603 3.129,-10.1c0.215,-1.955 0.351,-3.918 0.409,-5.884c0.056,-1.877 0.29,-4.094 -0.717,-5.782"/>
     <path id="svg_43" fill="#613813" d="m106.65895,92.17184c-6.007,-1.168 -12.138,-1.421 -18.207,-0.61c-1.338,0.178 -2.5,1.021 -2.5,2.5c0,1.212 1.152,2.68 2.5,2.5c5.61,-0.749 11.318,-0.65 16.878,0.431c1.324,0.258 2.698,-0.374 3.075,-1.746c0.337,-1.225 -0.414,-2.816 -1.746,-3.075"/>
    </g>
   </g>
  </g>
 </g>
</svg>