<svg width="206" height="162" xmlns="http://www.w3.org/2000/svg" xmlns:undefined="http://www.inkscape.org/namespaces/inkscape" version="1.1">
 <defs>
  <clipPath id="clip_51">
   <path id="svg_1" d="m-75.14675,-100.2662l360,0l0,360l-360,0l0,-360z"/>
  </clipPath>
  <clipPath id="clip_52">
   <path id="svg_2" d="m110.28525,28.2978l22.117,0l0,-12.522l-22.117,0l0,12.522z"/>
  </clipPath>
  <clipPath id="clip_53">
   <path id="svg_3" d="m70.85225,46.3558l24.604,0l0,-13.884l-24.604,0l0,13.884z"/>
  </clipPath>
  <clipPath id="clip_54">
   <path id="svg_4" d="m73.07325,28.5868l22.857,0l0,-10.198l-22.857,0l0,10.198z"/>
  </clipPath>
  <clipPath id="clip_55">
   <path id="svg_5" d="m107.70725,43.6128l38.952,0l0,-12.467l-38.952,0l0,12.467z"/>
  </clipPath>
  <clipPath id="clip_56">
   <path id="svg_6" d="m20.02345,103.6848l11.6698,0l0,-50.978l-11.6698,0l0,50.978z"/>
  </clipPath>
  <clipPath id="clip_57">
   <path id="svg_7" d="m24.28555,114.8288l7.2017,0l0,-7.201l-7.2017,0l0,7.201z"/>
  </clipPath>
 </defs>
 <g>
  <title>Layer 1</title>
  <g id="svg_8">
   <g id="svg_9"  >
    <g id="svg_10" clip-path="url(#clip_51)">
     <path id="svg_11" fill="#ffa874" d="m205.72724,87.855c0.743,-10.199 -0.054,-20.54 -2.133,-30.528c-2.882,-13.849 -9.804,-26.761 -21.541,-35.025c-3.239,-2.28 -6.846,-3.943 -10.568,-5.263c-3.332,-1.183 -9.513,-1.333 -12.259,-3.295c-0.003,-0.002 -19.242,-13.744 -47.644,-13.744c-19.805,0 -39.515,4.306 -52.792,15.897c-1.882,1.644 -11.417,1.15 -14.167,1.781c-35.018,8.038 -46.99,44.122 -44.246,76.574c1.865,22.04 13.282,45.786 33.612,56.244c8.551,4.399 18.011,6.726 27.47,8.463c16.286,2.992 32.884,3.107 49.385,3.286c30.279,0.328 63.972,-9.184 82.443,-35.307c3.669,-5.19 6.292,-11.065 8.239,-17.116c2.291,-7.119 3.658,-14.505 4.201,-21.967"/>
     <path id="svg_12" fill="#fe9679" d="m67.35815,38.3745c-0.721,0 -1.437,-0.311 -1.931,-0.911c-10.308,-12.518 -28.262,-10.433 -28.44,-10.41c-1.369,0.175 -2.62,-0.8 -2.791,-2.17c-0.172,-1.37 0.8,-2.62 2.17,-2.791c0.849,-0.108 20.883,-2.427 32.921,12.193c0.878,1.066 0.725,2.641 -0.341,3.519c-0.465,0.383 -1.028,0.57 -1.588,0.57"/>
     <path id="svg_13" fill="#fe9679" d="m135.98705,38.3745c-0.56,0 -1.122,-0.187 -1.588,-0.57c-1.066,-0.877 -1.219,-2.453 -0.341,-3.519c11.914,-14.471 32.157,-14.637 33.012,-14.637c1.381,0 2.5,1.12 2.5,2.5c0,1.38 -1.119,2.499 -2.499,2.5c-0.288,0.002 -18.79,0.23 -29.153,12.815c-0.494,0.6 -1.21,0.911 -1.931,0.911"/>
     <path id="svg_14" fill="#00b477" d="m154.57395,38.09031c-0.477,-0.808 -1.008,-1.583 -1.592,-2.32c-3.92,-4.944 -9.014,-6.903 -15.118,-6.688c2.767,-2.296 4.625,-5.455 5.604,-8.89c0.588,-2.07 1.604,-5.718 0.585,-7.789c-1.813,-3.685 -9.272,-3.066 -12.664,-3.242c-6.408,-0.333 -13.046,0.376 -18.92,3.102c-4.753,2.205 -6.503,5.774 -8.579,8.242c-3.869,-5.046 -12.289,-6.062 -17.658,-6.728c-7.213,-0.892 -30.363,-1.96 -24.379,11.554c1.732,3.909 5.193,6.893 9.115,8.482c-2.113,0.696 -4.382,1.73 -6.656,3.286c-3.113,2.131 -4.476,5.671 -4.623,9.333c-0.138,3.452 0.126,7.679 3.992,8.889c3.861,1.208 8.468,-0.107 12.321,-0.793c5.24,-0.932 10.466,-1.955 15.669,-3.08c14.523,-3.14 14.464,-11.266 14.464,-11.265c4.161,5.365 11.291,8.059 17.573,9.955c7.022,2.117 14.311,3.347 21.591,4.165c3.869,0.434 12.81,0.139 12.429,-5.748c-0.238,-3.668 -1.288,-7.308 -3.154,-10.465"/>
     <g id="svg_15" opacity="0.39999">
      <g id="svg_16" clip-path="url(#clip_52)">
       <path id="svg_17" fill="#00b477" d="m112.36884,28.2974c-0.508,0 -1.017,-0.185 -1.417,-0.557c-0.844,-0.783 -0.893,-2.1 -0.109,-2.943c1.446,-1.558 3.249,-2.564 4.826,-3.386c4.483,-2.333 9.223,-4.204 14.091,-5.559c1.108,-0.308 2.256,0.34 2.565,1.448c0.309,1.108 -0.34,2.257 -1.448,2.565c-4.588,1.278 -9.058,3.041 -13.284,5.242c-1.268,0.66 -2.703,1.454 -3.698,2.524c-0.41,0.442 -0.967,0.666 -1.526,0.666"/>
      </g>
     </g>
     <g id="svg_18" opacity="0.39999">
      <g id="svg_19" clip-path="url(#clip_53)">
       <path id="svg_20" fill="#00b477" d="m72.93624,46.3559c-0.602,0 -1.198,-0.259 -1.61,-0.761c-0.731,-0.888 -0.602,-2.201 0.287,-2.931c6.155,-5.06 13.537,-8.571 21.346,-10.152c1.13,-0.222 2.227,0.501 2.456,1.629c0.227,1.127 -0.501,2.227 -1.629,2.455c-7.144,1.446 -13.897,4.657 -19.529,9.286c-0.386,0.319 -0.855,0.474 -1.321,0.474"/>
      </g>
     </g>
     <g id="svg_21" opacity="0.39999">
      <g id="svg_22" clip-path="url(#clip_54)">
       <path id="svg_23" fill="#00b477" d="m93.84545,28.5864c-0.334,0 -0.672,-0.08 -0.986,-0.25c-5.609,-3.023 -11.655,-4.975 -17.972,-5.8c-1.141,-0.149 -1.945,-1.194 -1.796,-2.335c0.149,-1.141 1.192,-1.943 2.335,-1.796c6.823,0.891 13.354,2.999 19.409,6.265c1.013,0.546 1.392,1.809 0.845,2.821c-0.376,0.699 -1.094,1.095 -1.835,1.095"/>
      </g>
     </g>
     <g id="svg_24" opacity="0.39999">
      <g id="svg_25" clip-path="url(#clip_55)">
       <path id="svg_26" fill="#00b477" d="m144.57395,43.6128c-0.417,0 -0.838,-0.125 -1.203,-0.385c-8.401,-5.961 -19.346,-8.512 -33.476,-7.798c-1.14,0.057 -2.128,-0.824 -2.185,-1.974c-0.059,-1.15 0.826,-2.128 1.974,-2.186c15.094,-0.768 26.904,2.036 36.097,8.562c0.939,0.665 1.159,1.966 0.493,2.903c-0.405,0.572 -1.048,0.878 -1.7,0.878"/>
      </g>
     </g>
     <path id="svg_27" fill="#0ba17a" d="m114.45385,26.8677c-2.059,-3.311 -6.042,-4.37 -9.771,-4.381c-4.396,-0.211 -9.267,0.718 -11.443,5.021c-2.078,4.112 0.218,8.537 4.405,9.93c2.354,0.784 4.883,1.055 7.352,0.844c2.405,-0.205 5.034,-0.576 7.212,-1.678c3.419,-1.727 4.247,-6.013 2.52,-9.258c-0.088,-0.165 -0.179,-0.324 -0.275,-0.478"/>
     <path id="svg_28" fill="#00987d" d="m107.76925,28.94381c-0.195,-0.646 -0.633,-1.227 -1.229,-1.553c-0.433,-0.236 -0.908,-0.369 -1.393,-0.441c-1.017,-0.152 -2.033,-0.141 -3.03,0.149c-1.121,0.326 -2.226,1.069 -2.54,2.26c-0.021,0.08 -0.027,0.161 -0.04,0.242c-0.05,0.132 -0.088,0.269 -0.113,0.409c-0.14,0.812 0.022,1.579 0.586,2.198c0.349,0.382 0.878,0.657 1.385,0.757c0.795,0.155 1.679,0.215 2.488,0.151c1.094,-0.086 2.085,-0.392 2.936,-1.107c0.86,-0.723 1.279,-1.978 0.95,-3.065"/>
     <path id="svg_29" fill="#fe9679" d="m62.74975,61.53471c-0.907,0 -1.781,-0.495 -2.225,-1.357c-0.631,-1.228 -0.148,-2.736 1.079,-3.367c0.791,-0.407 19.657,-9.962 46.03,-10.493c8.48,-0.183 29.956,0.455 46.522,10.009c1.197,0.69 1.607,2.219 0.917,3.415c-0.69,1.196 -2.219,1.606 -3.415,0.917c-15.477,-8.927 -35.871,-9.509 -43.923,-9.343c-25.227,0.51 -43.66,9.847 -43.843,9.941c-0.367,0.188 -0.757,0.278 -1.142,0.278"/>
     <g id="svg_30" opacity="0.39999">
      <g id="svg_31" clip-path="url(#clip_56)">
       <path id="svg_32" fill="#ffb58f" d="m24.45185,103.68501c-1.402,0 -2.656,-0.988 -2.939,-2.416c-3.028,-15.233 -1.38,-32.694 4.408,-46.707c0.632,-1.531 2.385,-2.261 3.918,-1.627c1.531,0.632 2.259,2.387 1.627,3.918c-5.354,12.961 -6.874,29.128 -4.069,43.246c0.324,1.625 -0.732,3.204 -2.357,3.527c-0.197,0.039 -0.395,0.059 -0.588,0.059"/>
      </g>
     </g>
     <g id="svg_33" opacity="0.39999">
      <g id="svg_34" clip-path="url(#clip_57)">
       <path id="svg_35" fill="#ffb58f" d="m31.43915,110.6489c0.32,1.962 -1.011,3.813 -2.974,4.133c-1.962,0.319 -3.812,-1.012 -4.132,-2.975c-0.32,-1.962 1.011,-3.812 2.974,-4.132c1.962,-0.32 3.813,1.011 4.132,2.974"/>
      </g>
     </g>
     <path id="svg_36" fill="#ffc0a0" d="m73.36005,92.853c-4.055,-1.62 -9.125,-1.141 -12.818,1.121c-8.391,5.139 -6.219,17.356 3.02,20.136c1.886,0.567 3.885,0.743 5.84,0.506c8.301,-1.007 13.144,-8.882 9.668,-16.463c-1.183,-2.578 -3.261,-4.321 -5.71,-5.3"/>
     <path id="svg_37" fill="#ffc0a0" d="m133.96845,98.15281c-3.476,7.581 1.367,15.456 9.668,16.463c1.955,0.237 3.954,0.061 5.84,-0.506c9.239,-2.78 11.411,-14.997 3.02,-20.136c-3.693,-2.261 -8.763,-2.741 -12.818,-1.121c-2.449,0.979 -4.527,2.722 -5.71,5.3"/>
     <path id="svg_38" fill="#232020" d="m79.54275,97.0415c0,0 0,0.001 -0.001,0.001c0.005,-0.003 0.009,-0.006 0.013,-0.009l-0.001,0c-0.003,0.003 -0.007,0.005 -0.011,0.008"/>
     <path id="svg_39" fill="#232020" d="m87.47825,97.6323c0.02,-4.075 -3.277,-8.302 -7.612,-8.315c-6.23,-0.019 -10.053,6.961 -6.674,12.169c2.699,4.159 9.227,4.191 12.506,0.706c1.228,-1.307 1.772,-2.921 1.78,-4.56"/>
     <path id="svg_40" fill="#232020" d="m125.77415,102.1919c3.277,3.485 9.807,3.453 12.506,-0.706c3.379,-5.207 -0.445,-12.188 -6.675,-12.169c-4.334,0.014 -7.631,4.24 -7.611,8.315c0.008,1.639 0.551,3.253 1.78,4.56"/>
     <path id="svg_41" fill="#232020" d="m99.46944,115.61181c-0.19,2.306 0.219,4.416 1.068,5.509c0.703,0.905 2.072,1.518 3.661,1.641c2.974,0.233 6.825,-0.365 8.095,-1.924c1.961,-2.408 1.589,-6.97 -0.055,-9.44c-1.196,-1.795 -3.044,-3.013 -5.073,-3.342c-1.304,-0.208 -3.255,-0.149 -5.165,1.34c-1.288,1.004 -2.305,3.502 -2.531,6.216m5.937,13.192c-0.766,0 -1.354,-0.035 -1.672,-0.059c-3.293,-0.256 -6.185,-1.693 -7.933,-3.941c-1.788,-2.299 -2.631,-5.83 -2.311,-9.688c0.372,-4.482 2.174,-8.389 4.821,-10.452c2.821,-2.199 6.304,-3.098 9.814,-2.53c3.671,0.595 6.99,2.76 9.107,5.94c2.854,4.287 3.556,11.836 -0.287,16.554c-2.979,3.654 -8.582,4.176 -11.539,4.176"/>
    </g>
   </g>
  </g>
 </g>
</svg>