<svg width="216" height="162" xmlns="http://www.w3.org/2000/svg" xmlns:undefined="http://www.inkscape.org/namespaces/inkscape" version="1.1">
 <defs>
  <clipPath id="clip_7">
   <path id="svg_1" d="m-69.55695,-88.6696l360,0l0,360l-360,0l0,-360z"/>
  </clipPath>
  <clipPath id="clip_8">
   <path id="svg_2" d="m15.63025,96.3654l15.2418,0l0,-49.206l-15.2418,0l0,49.206z"/>
  </clipPath>
  <clipPath id="clip_9">
   <path id="svg_3" d="m18.38565,107.7054l7.201,0l0,-7.201l-7.201,0l0,7.201z"/>
  </clipPath>
  <clipPath id="clip_10">
   <path id="svg_4" d="m113.44205,27.4674l26.544,0l0,-15.03l-26.544,0l0,15.03z"/>
  </clipPath>
  <clipPath id="clip_11">
   <path id="svg_5" d="m66.11505,49.1414l29.53,0l0,-16.667l-29.53,0l0,16.667z"/>
  </clipPath>
  <clipPath id="clip_12">
   <path id="svg_6" d="m68.78205,27.8144l27.433,0l0,-12.24l-27.433,0l0,12.24z"/>
  </clipPath>
  <clipPath id="clip_13">
   <path id="svg_7" d="m110.34705,43.1094l42.007,0l0,-12.187l-42.007,0l0,12.187z"/>
  </clipPath>
 </defs>
 <g>
  <title>Layer 1</title>
  <g id="svg_8">
   <g id="svg_9"  >
    <g id="svg_10" clip-path="url(#clip_7)">
     <path id="svg_11" fill="current" d="m215.83264,77.599c-0.652,-5.607 -1.93,-11.156 -3.837,-16.501c-4.197,-11.766 -11.456,-22.383 -20.724,-30.74c-4.751,-4.284 -10.038,-7.991 -15.716,-10.942c-4.823,-2.505 -10.95,-2.554 -15.317,-5.671c-0.028,-0.021 -19.261,-13.745 -47.642,-13.745c-19.806,0 -39.516,4.307 -52.798,15.902c-2.977,2.598 -10.868,1.747 -14.739,2.395c-6.431,1.076 -12.497,4.001 -17.632,7.975c-6.673,5.161 -11.863,12.037 -15.999,19.389c-13.134,23.339 -15.535,50.731 -4.127,75.058c11.486,24.493 36.981,36.312 62.898,38.824c34.869,3.38 68.37,3.977 102.231,-7.145c31.941,-10.492 47.221,-41.956 43.402,-74.799"/>
     <path id="svg_12" fill="current" d="m68.37175,38.37531c-0.721,0 -1.437,-0.311 -1.931,-0.911c-10.266,-12.465 -28.265,-10.431 -28.445,-10.41c-1.372,0.173 -2.617,-0.807 -2.786,-2.175c-0.169,-1.369 0.801,-2.616 2.169,-2.787c0.85,-0.105 20.882,-2.425 32.922,12.194c0.878,1.066 0.725,2.641 -0.341,3.519c-0.465,0.383 -1.028,0.57 -1.588,0.57"/>
     <path id="svg_13" fill="current" d="m136.99965,38.37531c-0.56,0 -1.122,-0.187 -1.588,-0.57c-1.066,-0.878 -1.219,-2.453 -0.341,-3.519c11.914,-14.47 32.158,-14.637 33.013,-14.637c1.381,0 2.5,1.12 2.5,2.5c0,1.381 -1.119,2.5 -2.499,2.5c-0.288,0.002 -18.791,0.23 -29.154,12.815c-0.494,0.6 -1.21,0.911 -1.931,0.911"/>
     <g id="svg_14" opacity="0.39999">
      <g id="svg_15" clip-path="url(#clip_8)">
       <path id="svg_16" fill="current" d="m19.22135,96.3656c-1.479,0 -2.768,-1.095 -2.97,-2.602c-2.105,-15.725 1.196,-32.184 9.055,-45.158c0.857,-1.417 2.701,-1.87 4.12,-1.011c1.417,0.858 1.87,2.703 1.011,4.12c-7.162,11.824 -10.165,26.86 -8.238,41.253c0.219,1.642 -0.934,3.152 -2.576,3.372c-0.135,0.017 -0.269,0.026 -0.402,0.026"/>
      </g>
     </g>
     <g id="svg_17" opacity="0.39999">
      <g id="svg_18" clip-path="url(#clip_9)">
       <path id="svg_19" fill="current" d="m25.56905,103.75031c0.195,1.979 -1.25,3.741 -3.229,3.937c-1.978,0.196 -3.741,-1.249 -3.937,-3.228c-0.195,-1.98 1.25,-3.742 3.228,-3.938c1.979,-0.196 3.742,1.25 3.938,3.229"/>
      </g>
     </g>
     <path id="svg_20" fill="#54b807" d="m165.01535,39.2205c-0.573,-0.969 -1.21,-1.901 -1.911,-2.785c-4.705,-5.933 -10.819,-8.284 -18.145,-8.027c3.321,-2.755 5.552,-6.546 6.725,-10.67c0.707,-2.483 1.926,-6.862 0.704,-9.347c-2.177,-4.423 -11.129,-3.68 -15.199,-3.891c-7.692,-0.4 -15.659,0.451 -22.709,3.722c-5.704,2.647 -7.805,6.931 -10.295,9.892c-4.644,-6.056 -14.75,-7.276 -21.193,-8.075c-8.657,-1.07 -36.443,-2.352 -29.259,13.868c2.077,4.691 6.23,8.272 10.937,10.179c-2.534,0.835 -5.258,2.077 -7.986,3.944c-3.736,2.558 -5.373,6.806 -5.55,11.202c-0.166,4.142 0.152,9.215 4.793,10.668c4.632,1.45 10.162,-0.128 14.786,-0.951c6.29,-1.12 12.561,-2.347 18.806,-3.697c17.432,-3.769 17.358,-13.521 17.358,-13.521c4.995,6.44 13.552,9.674 21.092,11.948c8.428,2.541 17.177,4.017 25.913,4.999c4.644,0.521 15.375,0.167 14.918,-6.898c-0.286,-4.403 -1.546,-8.771 -3.785,-12.56"/>
     <g id="svg_21" opacity="0.39999">
      <g id="svg_22" clip-path="url(#clip_10)">
       <path id="svg_23" fill="#52ca00" d="m115.94106,27.46761c-0.608,0 -1.219,-0.221 -1.7,-0.668c-1.012,-0.94 -1.071,-2.522 -0.13,-3.534c1.739,-1.872 3.902,-3.079 5.793,-4.063c5.377,-2.799 11.066,-5.044 16.91,-6.673c1.334,-0.37 2.709,0.408 3.079,1.738c0.371,1.33 -0.407,2.708 -1.737,3.079c-5.509,1.535 -10.873,3.652 -15.944,6.291c-1.52,0.792 -3.242,1.743 -4.439,3.032c-0.492,0.53 -1.161,0.798 -1.832,0.798"/>
      </g>
     </g>
     <g id="svg_24" opacity="0.39999">
      <g id="svg_25" clip-path="url(#clip_11)">
       <path id="svg_26" fill="#52ca00" d="m68.61595,49.1409c-0.722,0 -1.437,-0.311 -1.933,-0.913c-0.876,-1.066 -0.722,-2.641 0.344,-3.518c7.389,-6.073 16.248,-10.287 25.621,-12.184c1.346,-0.279 2.672,0.6 2.947,1.954c0.274,1.353 -0.601,2.672 -1.955,2.946c-8.575,1.736 -16.679,5.59 -23.437,11.146c-0.466,0.382 -1.027,0.569 -1.587,0.569"/>
      </g>
     </g>
     <g id="svg_27" opacity="0.39999">
      <g id="svg_28" clip-path="url(#clip_12)">
       <path id="svg_29" fill="#52ca00" d="m93.71255,27.8148c-0.4,0 -0.808,-0.097 -1.185,-0.3c-6.73,-3.629 -13.988,-5.971 -21.569,-6.961c-1.369,-0.179 -2.335,-1.434 -2.155,-2.803c0.179,-1.368 1.432,-2.331 2.802,-2.155c8.188,1.069 16.026,3.598 23.295,7.518c1.215,0.655 1.669,2.172 1.014,3.387c-0.451,0.838 -1.312,1.314 -2.202,1.314"/>
      </g>
     </g>
     <g id="svg_30" opacity="0.39999">
      <g id="svg_31" clip-path="url(#clip_13)">
       <path id="svg_32" fill="#52ca00" d="m149.85126,43.1097c-0.355,0 -0.717,-0.076 -1.06,-0.237c-11.057,-5.186 -23.112,-7.49 -35.817,-6.845c-0.044,0.003 -0.087,0.004 -0.129,0.004c-1.323,0 -2.427,-1.038 -2.495,-2.374c-0.069,-1.379 0.991,-2.553 2.37,-2.623c13.537,-0.688 26.389,1.774 38.194,7.311c1.25,0.586 1.789,2.075 1.203,3.325c-0.426,0.907 -1.327,1.439 -2.266,1.439"/>
      </g>
     </g>
     <path id="svg_33" fill="#378b00" d="m116.86296,25.75031c-2.47,-3.972 -7.251,-5.245 -11.727,-5.257c-5.276,-0.254 -11.123,0.861 -13.733,6.026c-2.494,4.935 0.261,10.246 5.287,11.918c2.824,0.939 5.86,1.266 8.823,1.013c2.886,-0.247 6.041,-0.692 8.656,-2.013c4.103,-2.075 5.096,-7.218 3.024,-11.113c-0.104,-0.197 -0.215,-0.388 -0.33,-0.574"/>
     <path id="svg_34" fill="#237702" d="m108.84056,28.24249c-0.234,-0.774 -0.76,-1.472 -1.475,-1.863c-0.52,-0.284 -1.09,-0.443 -1.671,-0.53c-1.221,-0.182 -2.441,-0.169 -3.638,0.179c-1.346,0.392 -2.671,1.282 -3.048,2.712c-0.025,0.097 -0.032,0.194 -0.049,0.292c-0.059,0.157 -0.105,0.321 -0.135,0.49c-0.169,0.974 0.027,1.895 0.703,2.637c0.419,0.46 1.054,0.789 1.663,0.908c0.954,0.187 2.015,0.259 2.986,0.183c1.313,-0.104 2.503,-0.471 3.523,-1.329c1.034,-0.869 1.537,-2.374 1.141,-3.679"/>
     <path id="svg_35" fill="current" d="m63.76436,65.29131c-0.907,0 -1.783,-0.496 -2.227,-1.358c-0.629,-1.228 -0.147,-2.734 1.081,-3.365c0.79,-0.406 19.656,-9.962 46.029,-10.494c8.466,-0.172 29.956,0.457 46.522,10.011c1.197,0.689 1.607,2.218 0.917,3.414c-0.69,1.197 -2.22,1.607 -3.415,0.917c-15.477,-8.926 -35.871,-9.509 -43.923,-9.343c-25.16,0.508 -43.661,9.848 -43.845,9.942c-0.365,0.187 -0.755,0.276 -1.139,0.276"/>
     <path id="svg_36" fill="#232020" d="m94.16176,96.2542c-0.447,-7.54 -8.252,-12.891 -15.396,-10.202c-5.367,2.02 -8.532,9.312 -6.761,14.633c1.729,5.199 7.543,8.558 12.901,7.498c5.449,-1.079 9.585,-6.377 9.256,-11.929"/>
     <path id="svg_37" fill="#ffffff" d="m86.08176,91.1097c-0.133,-0.73 -0.814,-1.501 -1.433,-1.863c-0.052,-0.032 -0.119,-0.051 -0.175,-0.079c-0.342,-0.306 -0.737,-0.548 -1.19,-0.651c-0.841,-0.192 -1.632,-0.088 -2.402,0.314c-0.303,0.158 -0.576,0.394 -0.833,0.612c-0.082,0.07 -0.154,0.142 -0.223,0.225c-0.47,0.558 -0.836,1.12 -1.029,1.837c-0.163,0.605 -0.167,1.15 -0.086,1.753c0.083,0.618 0.254,1.119 0.649,1.629c0.442,0.572 1.057,0.978 1.761,1.163c1.369,0.362 2.833,-0.088 3.847,-1.051c0.506,-0.48 0.863,-1.106 1.076,-1.765c0.232,-0.72 0.171,-1.397 0.038,-2.124"/>
     <path id="svg_38" fill="#ffffff" d="m78.23506,97.2191c-4.012,0 -4.019,6.235 0,6.235c4.012,0 4.019,-6.235 0,-6.235"/>
     <path id="svg_39" fill="#ffffff" d="m87.52415,96.7767c-4.012,0 -4.019,6.235 0,6.235c4.012,0 4.019,-6.235 0,-6.235"/>
     <path id="svg_40" fill="#232020" d="m152.52415,96.2542c-0.448,-7.54 -8.253,-12.891 -15.396,-10.202c-5.368,2.02 -8.532,9.312 -6.762,14.633c1.73,5.199 7.543,8.558 12.902,7.498c5.449,-1.079 9.585,-6.377 9.256,-11.929"/>
     <path id="svg_41" fill="#ffffff" d="m144.44406,91.1097c-0.134,-0.73 -0.814,-1.501 -1.433,-1.863c-0.053,-0.032 -0.119,-0.051 -0.176,-0.079c-0.341,-0.306 -0.737,-0.548 -1.189,-0.651c-0.841,-0.192 -1.632,-0.088 -2.402,0.314c-0.303,0.158 -0.576,0.394 -0.833,0.612c-0.082,0.07 -0.154,0.142 -0.224,0.225c-0.469,0.558 -0.835,1.12 -1.028,1.837c-0.163,0.605 -0.168,1.15 -0.087,1.753c0.083,0.618 0.255,1.119 0.649,1.629c0.442,0.572 1.058,0.978 1.761,1.163c1.37,0.362 2.834,-0.088 3.848,-1.051c0.506,-0.48 0.863,-1.106 1.076,-1.765c0.232,-0.72 0.171,-1.397 0.038,-2.124"/>
     <path id="svg_42" fill="#ffffff" d="m136.59735,97.2191c-4.013,0 -4.019,6.235 0,6.235c4.012,0 4.019,-6.235 0,-6.235"/>
     <path id="svg_43" fill="#ffffff" d="m145.88646,96.7767c-4.013,0 -4.02,6.235 0,6.235c4.012,0 4.019,-6.235 0,-6.235"/>
     <path id="svg_44" fill="current" d="m84.33755,116.6546c-3.728,-10.98 -12.839,-19.253 -24.283,-21.493c-3.773,-0.738 -5.387,5.044 -1.595,5.786c9.35,1.83 17.009,8.218 20.093,17.303c1.234,3.635 7.032,2.075 5.785,-1.596"/>
     <path id="svg_45" fill="current" d="m138.60805,118.17509c3.729,-10.981 12.839,-19.254 24.284,-21.494c3.772,-0.738 5.387,5.044 1.595,5.786c-9.35,1.83 -17.009,8.219 -20.093,17.303c-1.234,3.635 -7.032,2.075 -5.786,-1.595"/>
     <path id="svg_46" fill="#232020" d="m100.28195,109.2308c-0.062,0.894 0.649,2.96 0.933,3.78c0.121,0.352 0.233,0.679 0.327,0.972c0.636,1.997 1.952,4.757 4.596,6.558c4.084,2.781 9.828,2.578 13.364,-0.469c1.709,-1.474 2.95,-3.573 3.589,-6.072c0.132,-0.62 0.503,-3.332 0.647,-5.155c-0.047,-0.009 -0.093,-0.018 -0.139,-0.028c-7.671,-1.566 -15.729,-1.422 -23.317,0.414m12.307,18.83c-3.365,0 -6.761,-0.955 -9.603,-2.89c-3.138,-2.136 -5.482,-5.417 -6.781,-9.486c-0.082,-0.257 -0.181,-0.542 -0.286,-0.849c-0.842,-2.442 -1.995,-5.787 -0.536,-8.459c0.492,-0.903 1.489,-2.079 3.448,-2.558c8.422,-2.059 17.373,-2.229 25.888,-0.49c0.784,0.16 1.564,0.336 2.34,0.528c0.764,0.19 1.407,0.671 1.814,1.354c1.285,2.155 -0.336,10.102 -0.356,10.178c-0.923,3.613 -2.776,6.699 -5.358,8.926c-2.884,2.485 -6.705,3.746 -10.57,3.746"/>
    </g>
   </g>
  </g>
 </g>
</svg>