<svg width="201" height="191" xmlns="http://www.w3.org/2000/svg" xmlns:undefined="http://www.inkscape.org/namespaces/inkscape" version="1.1">
 <defs>
  <clipPath id="clip_14">
   <path id="svg_1" d="m-79.58687,-88.67049l360,0l0,360l-360,0l0,-360z"/>
  </clipPath>
  <clipPath id="clip_15">
   <path id="svg_2" d="m174.55613,136.62351l13.359,0l0,-49.635l-13.359,0l0,49.635z"/>
  </clipPath>
  <clipPath id="clip_16">
   <path id="svg_3" d="m176.70413,83.02851l7.202,0l0,-7.201l-7.202,0l0,7.201z"/>
  </clipPath>
  <clipPath id="clip_17">
   <path id="svg_4" d="m73.44013,185.02381l20.941,0l0,-11.2552l-20.941,0l0,11.2552z"/>
  </clipPath>
  <clipPath id="clip_18">
   <path id="svg_5" d="m108.65313,170.19451l23.312,0l0,-12.468l-23.312,0l0,12.468z"/>
  </clipPath>
  <clipPath id="clip_19">
   <path id="svg_6" d="m108.20013,182.70351l21.648,0l0,-9.1925l-21.648,0l0,9.1925z"/>
  </clipPath>
  <clipPath id="clip_20">
   <path id="svg_7" d="m63.61913,171.34321l33.221,0l0,-9.1527l-33.221,0l0,9.1527z"/>
  </clipPath>
 </defs>
 <g>
  <title>Layer 1</title>
  <g id="svg_8">
   <g id="svg_9"  >
    <g id="svg_10" clip-path="url(#clip_14)">
     <path id="svg_11" fill="#ffd56a" d="m158.87793,23.35441c1.071,1.074 1.345,2.788 1.817,4.279c2.096,6.613 9.081,10.155 15.387,13.046c0.776,0.357 1.563,0.72 2.214,1.272c6.093,5.165 -1.693,13.529 -5.709,17.088c-5.466,4.844 -12.599,7.854 -19.919,8.111c-10.885,0.383 -21.785,-5.335 -27.658,-14.507c-5.872,-9.173 -6.503,-21.466 -1.601,-31.191c2.811,-5.575 7.071,-9.072 12.717,-11.499c1.163,-0.5 2.41,-0.963 3.664,-0.792c2.524,0.344 3.951,2.955 5.411,5.042c2.64,3.772 6.588,6.608 11.005,7.904c0.784,0.23 1.603,0.423 2.266,0.9c0.147,0.106 0.282,0.222 0.406,0.347"/>
     <path id="svg_12" fill="current" d="m0.00493,107.5541c0.155,15.272 3.62,33.492 14.421,44.958c10.323,10.959 25.233,17.569 40.314,17.574c2.911,0.001 5.968,-0.199 8.582,1.082c1.76,0.863 3.142,2.319 4.614,3.613c19.423,17.076 59.463,8.456 77.319,-7.133c1.882,-1.644 11.417,-1.151 14.165,-1.781c5.779,-1.327 12.783,-3.402 17.883,-6.386c10.659,-6.239 16.772,-18.595 20.177,-30.086c4.642,-15.669 4.866,-32.409 1.191,-48.3c-1.821,-7.878 -4.579,-15.534 -8.138,-22.792c-1.609,-3.282 -6.055,-14.532 -10.227,-14.894c-1.982,-0.172 -3.608,1.417 -5.144,2.681c-4.933,4.058 -12.017,5.581 -17.993,3.318c-4.307,-1.63 -7.826,-5.319 -9.268,-9.693c-0.58,-1.759 -0.506,-3.992 -1.879,-5.382c-1.098,-1.111 -3.117,-1.307 -4.271,-2.248c-1.799,-1.464 -3.137,-3.485 -3.855,-5.684c-1.823,-5.578 1.729,-8.814 4.387,-13.308c0.374,-0.631 0.712,-1.376 0.494,-2.076c-0.144,-0.467 -0.513,-0.826 -0.878,-1.151c-4.625,-4.107 -10.333,-5.224 -16.126,-6.759c-9.208,-2.442 -18.786,-3.442 -28.299,-3.009c-18.545,0.844 -36.709,7.172 -51.77,18.025c-27.437,19.773 -46.052,54.949 -45.699,89.431"/>
     <g id="svg_13" opacity="0.39999">
      <g id="svg_14" clip-path="url(#clip_15)">
       <path id="svg_15" fill="current" d="m177.55373,136.62341c-0.473,0 -0.953,-0.112 -1.4,-0.35c-1.464,-0.774 -2.024,-2.589 -1.248,-4.054c6.465,-12.22 8.591,-27.405 5.833,-41.661c-0.315,-1.626 0.749,-3.2 2.375,-3.515c1.629,-0.315 3.201,0.749 3.515,2.375c3.015,15.576 0.674,32.199 -6.421,45.607c-0.538,1.017 -1.578,1.598 -2.654,1.598"/>
      </g>
     </g>
     <g id="svg_16" opacity="0.39999">
      <g id="svg_17" clip-path="url(#clip_16)">
       <path id="svg_18" fill="current" d="m176.74904,79.9892c-0.311,-1.964 1.03,-3.807 2.994,-4.118c1.964,-0.31 3.808,1.031 4.118,2.995c0.31,1.964 -1.03,3.808 -2.995,4.118c-1.964,0.31 -3.807,-1.031 -4.117,-2.995"/>
      </g>
     </g>
     <path id="svg_19" fill="#0eab24" d="m53.49513,165.13612c0.455,0.717 0.961,1.406 1.519,2.061c3.736,4.39 8.591,6.13 14.408,5.94c-2.637,2.039 -4.408,4.846 -5.34,7.897c-0.562,1.838 -1.529,5.08 -0.559,6.917c1.728,3.275 8.837,2.725 12.07,2.881c6.108,0.296 12.434,-0.335 18.033,-2.755c3.745,-1.62 6.053,-5.747 10.731,-4.744c2.276,0.488 4.386,1.677 6.688,2.216c2.495,0.585 5.044,0.89 7.587,1.184c6.874,0.792 28.939,1.74 23.235,-10.264c-1.65,-3.473 -4.948,-6.122 -8.686,-7.533c2.013,-0.619 4.175,-1.538 6.342,-2.919c2.967,-1.894 4.267,-5.038 4.407,-8.291c0.131,-3.067 -0.12,-6.82 -3.805,-7.896c-3.68,-1.073 -8.07,0.095 -11.742,0.704c-4.995,0.829 -9.976,1.737 -14.935,2.736c-13.842,2.79 -13.785,10.008 -13.785,10.007c-3.966,-4.766 -10.761,-7.16 -16.749,-8.842c-6.692,-1.882 -13.64,-2.974 -20.577,-3.7c-3.689,-0.386 -12.21,-0.124 -11.848,5.105c0.228,3.258 1.228,6.491 3.006,9.296"/>
     <g id="svg_20" opacity="0.39999">
      <g id="svg_21" clip-path="url(#clip_17)">
       <path id="svg_22" fill="#0fbd1d" d="m75.35654,185.02381c-0.853,0 -1.63,-0.572 -1.854,-1.436c-0.266,-1.024 0.349,-2.07 1.374,-2.336c4.38,-1.137 8.65,-2.707 12.691,-4.666c1.213,-0.589 2.587,-1.297 3.54,-2.253c0.747,-0.75 1.961,-0.752 2.71,-0.005c0.75,0.747 0.752,1.961 0.005,2.71c-1.375,1.381 -3.086,2.27 -4.582,2.997c-4.268,2.069 -8.777,3.727 -13.402,4.927c-0.161,0.042 -0.323,0.062 -0.482,0.062"/>
      </g>
     </g>
     <g id="svg_23" opacity="0.39999">
      <g id="svg_24" clip-path="url(#clip_18)">
       <path id="svg_25" fill="#0fbd1d" d="m110.56844,170.19471c-0.903,0 -1.708,-0.642 -1.882,-1.562c-0.196,-1.04 0.488,-2.042 1.528,-2.239c6.834,-1.29 13.291,-4.15 18.668,-8.271c0.839,-0.644 2.042,-0.486 2.688,0.355c0.644,0.841 0.484,2.044 -0.356,2.688c-5.852,4.484 -12.868,7.594 -20.289,8.996c-0.12,0.022 -0.239,0.033 -0.357,0.033"/>
      </g>
     </g>
     <g id="svg_26" opacity="0.39999">
      <g id="svg_27" clip-path="url(#clip_19)">
       <path id="svg_28" fill="#0fbd1d" d="m127.93362,182.7035c-0.077,0 -0.155,-0.005 -0.233,-0.015c-6.485,-0.79 -12.69,-2.656 -18.444,-5.547c-0.946,-0.476 -1.327,-1.628 -0.852,-2.574c0.475,-0.946 1.629,-1.327 2.573,-0.852c5.359,2.693 11.142,4.432 17.185,5.169c1.051,0.128 1.799,1.083 1.671,2.133c-0.118,0.973 -0.945,1.686 -1.9,1.686"/>
      </g>
     </g>
     <g id="svg_29" opacity="0.39999">
      <g id="svg_30" clip-path="url(#clip_20)">
       <path id="svg_31" fill="#0fbd1d" d="m91.52443,171.34321c-9.441,0 -18.425,-1.838 -26.756,-5.479c-0.97,-0.424 -1.412,-1.554 -0.988,-2.524c0.423,-0.97 1.55,-1.414 2.523,-0.988c8.805,3.848 18.405,5.551 28.53,5.08c1.038,-0.062 1.955,0.765 2.004,1.823c0.051,1.058 -0.766,1.955 -1.823,2.005c-1.17,0.056 -2.334,0.083 -3.49,0.083"/>
      </g>
     </g>
     <path id="svg_32" fill="#036b20" d="m91.73444,175.1049c1.961,2.939 5.758,3.882 9.313,3.891c4.189,0.188 8.832,-0.637 10.905,-4.46c1.98,-3.653 -0.207,-7.583 -4.198,-8.821c-2.244,-0.695 -4.654,-0.936 -7.007,-0.749c-2.292,0.182 -4.798,0.512 -6.873,1.49c-3.259,1.535 -4.048,5.341 -2.403,8.224c0.083,0.147 0.171,0.288 0.263,0.425"/>
     <path id="svg_33" fill="#05531a" d="m98.10454,173.2602c0.187,0.573 0.604,1.09 1.172,1.379c0.413,0.211 0.865,0.328 1.327,0.392c0.97,0.135 1.938,0.125 2.889,-0.132c1.069,-0.29 2.121,-0.95 2.421,-2.007c0.019,-0.071 0.025,-0.144 0.038,-0.216c0.048,-0.116 0.084,-0.237 0.107,-0.363c0.134,-0.721 -0.021,-1.403 -0.558,-1.951c-0.334,-0.341 -0.837,-0.584 -1.32,-0.673c-0.758,-0.138 -1.6,-0.192 -2.372,-0.135c-1.043,0.077 -1.987,0.349 -2.798,0.983c-0.82,0.644 -1.219,1.758 -0.906,2.723"/>
     <path id="svg_34" fill="rgba(255,167,59,0.424)" d="m69.39363,84.4081c-4.056,-1.62 -9.126,-1.141 -12.819,1.122c-8.391,5.138 -6.219,17.354 3.02,20.135c1.886,0.568 3.885,0.743 5.84,0.505c8.302,-1.007 13.144,-8.881 9.668,-16.462c-1.183,-2.578 -3.261,-4.321 -5.709,-5.3"/>
     <path id="svg_35" fill="rgba(255,167,59,0.424)" d="m130.00104,89.70841c-3.476,7.581 1.367,15.455 9.668,16.462c1.955,0.237 3.954,0.062 5.84,-0.505c9.239,-2.781 11.411,-14.998 3.021,-20.136c-3.694,-2.262 -8.764,-2.741 -12.819,-1.121c-2.449,0.978 -4.527,2.721 -5.71,5.3"/>
     <path id="svg_36" fill="#232020" d="m82.10263,85.90661c-0.008,-0.724 -0.108,-1.444 -0.29,-2.121c-0.736,-2.747 -3.102,-5.161 -5.915,-5.705c-1.713,-0.33 -3.493,0.093 -5.093,0.79c-4.095,1.785 -5.123,7.296 -2.794,10.886c3.83,5.902 14.168,3.211 14.092,-3.85"/>
     <path id="svg_37" fill="#232020" d="m101.24513,106.9652c-11.521,0 -16.004,-5.577 -17.652,-8.901c-0.736,-1.485 -0.128,-3.285 1.356,-4.021c1.483,-0.735 3.284,-0.128 4.021,1.357c1.029,2.078 3.994,5.565 12.275,5.565c8.655,0 11.519,-3.73 12.455,-5.953c0.642,-1.529 2.403,-2.244 3.929,-1.601c1.527,0.643 2.244,2.403 1.6,3.929c-1.218,2.895 -5.411,9.625 -17.984,9.625"/>
     <path id="svg_38" fill="#232020" d="m134.81644,94.47111c-0.213,0 -0.428,-0.022 -0.645,-0.069l-1.073,-0.232c-3.51,-0.747 -7.879,-1.678 -11.089,-4.251c-2.098,-1.683 -2.165,-3.618 -2.017,-4.622c0.566,-3.849 5.712,-6.232 10.934,-8.342c0.323,-0.13 0.597,-0.241 0.807,-0.33c1.527,-0.647 3.286,0.064 3.934,1.59c0.647,1.525 -0.065,3.286 -1.59,3.933c-0.236,0.1 -0.542,0.224 -0.903,0.37c-3.859,1.559 -5.723,2.601 -6.617,3.265c2.153,1.318 5.127,1.952 7.791,2.519l1.107,0.238c1.618,0.354 2.643,1.953 2.289,3.572c-0.307,1.402 -1.549,2.359 -2.928,2.359"/>
    </g>
   </g>
  </g>
 </g>
</svg>