<svg>
  <symbol xmlns="http://www.w3.org/2000/svg" xmlnsUndefined="http://www.inkscape.org/namespaces/inkscape" version="1.1" viewBox="0 0 233 194" id="charactor1">
    <defs>
      <clipPath id="clip_0">
        <path id="svg_1" d="m-62.86818,-84.66983l360,0l0,360l-360,0l0,-360z"></path>
      </clipPath>
      <clipPath id="clip_1">
        <path id="svg_2" d="m22.83552,76.73917l35.9213,0l0,-38.348l-35.9213,0l0,38.348z"></path>
      </clipPath>
      <clipPath id="clip_2">
        <path id="svg_3" d="m18.63482,88.03617l7.2017,0l0,-7.202l-7.2017,0l0,7.202z"></path>
      </clipPath>
      <clipPath id="clip_3">
        <path id="svg_4" d="m82.05482,185.49037l26.772,0l0,-14.5232l-26.772,0l0,14.5232z"></path>
      </clipPath>
      <clipPath id="clip_4">
        <path id="svg_5" d="m126.85282,166.49417l29.795,0l0,-16.088l-29.795,0l0,16.088z"></path>
      </clipPath>
      <clipPath id="clip_5">
        <path id="svg_6" d="m126.05582,183.90147l27.259,0l0,-12.7623l-27.259,0l0,12.7623z"></path>
      </clipPath>
      <clipPath id="clip_6">
        <path id="svg_7" d="m65.61082,167.52017l46.51,0l0,-15.833l-46.51,0l0,15.833z"></path>
      </clipPath>
    </defs>
    <g>
      <title>Layer 1</title>
      <g id="svg_8">
        <g id="svg_9">
          <g id="svg_10" clip-path="url(#clip_0)">
            <path id="svg_11" fill="current" d="m0.97312,117.01477c5.501,37.564 31.154,55.888 65.052,63.219c0,0 19.241,13.744 47.644,13.744c19.806,0 39.518,-4.307 52.796,-15.9c10.092,-0.472 28.672,-2.214 45.626,-19.774c21.784,-22.561 26.198,-56.091 15.817,-85.295c-7.71,-21.692 -24.404,-38.864 -43.745,-50.764c-9.833,-6.05 -20.433,-10.855 -31.406,-14.428c-12.389,-4.034 -25.167,-8.041 -38.341,-7.807c-13.973,0.248 -26.448,6.252 -38.985,11.786c-43.187,19.064 -82.135,52.716 -74.458,105.219"></path>
            <path id="svg_12" fill="current" d="m185.01273,172.57916c-6.671,0 -20.31,-1.489 -29.434,-12.569c-1.053,-1.28 -0.871,-3.17 0.409,-4.223c1.278,-1.054 3.171,-0.869 4.222,0.408c10.137,12.31 27.815,10.255 27.993,10.233c1.64,-0.205 3.144,0.961 3.349,2.604c0.206,1.644 -0.96,3.144 -2.604,3.349c-0.217,0.027 -1.678,0.198 -3.935,0.198"></path>
            <path id="svg_13" fill="current" d="m58.18112,174.82816c-1.657,0 -3,-1.343 -3,-3c0,-1.656 1.341,-2.998 2.997,-3c0.276,-0.002 18.56,-0.233 28.77,-12.633c1.053,-1.278 2.944,-1.463 4.223,-0.409c1.279,1.054 1.462,2.944 0.409,4.224c-12.063,14.65 -32.533,14.818 -33.399,14.818"></path>
            <g id="svg_14" opacity="0.39999">
              <g id="svg_15" clip-path="url(#clip_1)">
                <path id="svg_16" fill="current" d="m25.83492,76.73888c-0.389,0 -0.784,-0.076 -1.165,-0.237c-1.526,-0.644 -2.242,-2.404 -1.598,-3.93c5.898,-13.977 17.293,-26.304 31.263,-33.821c1.458,-0.786 3.279,-0.24 4.063,1.22c0.786,1.459 0.239,3.278 -1.22,4.063c-12.786,6.881 -23.202,18.132 -28.577,30.871c-0.484,1.145 -1.596,1.834 -2.766,1.834"></path>
              </g>
            </g>
            <g id="svg_17" opacity="0.39999">
              <g id="svg_18" clip-path="url(#clip_2)">
                <path id="svg_19" fill="current" d="m24.05032,87.54497c1.717,-1.002 2.297,-3.207 1.295,-4.924c-1.002,-1.717 -3.207,-2.297 -4.924,-1.295c-1.718,1.002 -2.297,3.206 -1.295,4.924c1.002,1.717 3.206,2.297 4.924,1.295"></path>
              </g>
            </g>
            <path id="svg_20" fill="#0fbd1d" d="m56.01852,158.03326c0.55,0.983 1.165,1.929 1.845,2.829c4.565,6.042 10.623,8.535 17.952,8.448c-3.384,2.677 -5.703,6.416 -6.972,10.511c-0.765,2.466 -2.086,6.816 -0.922,9.327c2.072,4.474 11.04,3.941 15.103,4.246c7.681,0.579 15.666,-0.086 22.791,-3.191c5.764,-2.512 7.964,-6.745 10.523,-9.648c4.5,6.163 14.576,7.619 20.998,8.568c8.63,1.272 36.377,3.203 29.577,-13.18c-1.968,-4.739 -6.038,-8.416 -10.699,-10.431c2.554,-0.777 5.306,-1.955 8.077,-3.756c3.795,-2.471 5.531,-6.679 5.81,-11.07c0.263,-4.137 0.064,-9.216 -4.542,-10.778c-4.597,-1.558 -10.162,-0.108 -14.804,0.606c-6.314,0.972 -12.612,2.052 -18.887,3.255c-7.617,1.462 -14.352,4.783 -18.222,11.693c-2.018,-2.661 -5.909,-4.734 -8.836,-6.325c-3.623,-1.97 -7.508,-3.413 -11.419,-4.693c-8.366,-2.737 -17.078,-4.417 -25.789,-5.602c-4.63,-0.631 -15.367,-0.527 -15.075,6.546c0.183,4.409 1.341,8.805 3.491,12.645"></path>
            <g id="svg_21" opacity="0.39999">
              <g id="svg_22" clip-path="url(#clip_3)">
                <path id="svg_23" fill="#0fbd1d" d="m84.55322,185.49039c-1.117,0 -2.134,-0.754 -2.421,-1.887c-0.34,-1.338 0.47,-2.698 1.809,-3.037c5.541,-1.405 10.953,-3.395 16.086,-5.917c1.539,-0.756 3.283,-1.668 4.508,-2.927c0.964,-0.988 2.545,-1.01 3.536,-0.046c0.989,0.962 1.01,2.545 0.047,3.535c-1.781,1.829 -3.972,2.986 -5.886,3.926c-5.445,2.674 -11.185,4.786 -17.063,6.275c-0.206,0.053 -0.412,0.078 -0.616,0.078"></path>
              </g>
            </g>
            <g id="svg_24" opacity="0.39999">
              <g id="svg_25" clip-path="url(#clip_4)">
                <path id="svg_26" fill="#0fbd1d" d="m129.34962,166.49426c-1.188,0 -2.242,-0.851 -2.458,-2.062c-0.242,-1.358 0.663,-2.657 2.022,-2.899c8.614,-1.536 16.806,-5.2 23.692,-10.596c1.088,-0.851 2.659,-0.659 3.51,0.426c0.851,1.087 0.661,2.658 -0.426,3.51c-7.528,5.898 -16.483,9.903 -25.899,11.582c-0.148,0.026 -0.295,0.039 -0.441,0.039"></path>
              </g>
            </g>
            <g id="svg_27" opacity="0.39999">
              <g id="svg_28" clip-path="url(#clip_5)">
                <path id="svg_29" fill="#0fbd1d" d="m150.81732,183.90146c-0.127,0 -0.255,-0.01 -0.385,-0.029c-8.162,-1.261 -15.938,-3.973 -23.113,-8.061c-1.2,-0.683 -1.618,-2.21 -0.935,-3.409c0.683,-1.201 2.209,-1.619 3.41,-0.935c6.643,3.785 13.844,6.296 21.402,7.463c1.364,0.211 2.3,1.488 2.089,2.853c-0.191,1.235 -1.256,2.118 -2.468,2.118"></path>
              </g>
            </g>
            <g id="svg_30" opacity="0.39999">
              <g id="svg_31" clip-path="url(#clip_6)">
                <path id="svg_32" fill="#0fbd1d" d="m106.52393,167.52057c-16.619,0 -29.696,-3.717 -39.907,-11.328c-1.107,-0.825 -1.336,-2.392 -0.51,-3.499c0.824,-1.107 2.39,-1.335 3.498,-0.511c9.915,7.391 22.978,10.762 39.948,10.296c1.375,-0.063 2.529,1.051 2.567,2.431c0.038,1.381 -1.051,2.53 -2.43,2.567c-1.069,0.029 -2.126,0.044 -3.166,0.044"></path>
              </g>
            </g>
            <path id="svg_33" fill="#007d1c" d="m105.21332,172.65726c2.377,4.029 7.126,5.413 11.601,5.53c5.269,0.377 11.14,-0.6 13.87,-5.704c2.609,-4.875 -0.021,-10.249 -5.007,-12.038c-2.801,-1.005 -5.829,-1.402 -8.797,-1.218c-2.891,0.179 -6.056,0.55 -8.701,1.81c-4.15,1.977 -5.263,7.097 -3.283,11.038c0.1,0.2 0.206,0.395 0.317,0.582"></path>
            <path id="svg_34" fill="#05531a" d="m113.29152,170.35358c0.216,0.779 0.725,1.489 1.432,1.897c0.513,0.296 1.079,0.468 1.658,0.569c1.217,0.21 2.436,0.225 3.641,-0.094c1.354,-0.36 2.7,-1.22 3.11,-2.64c0.028,-0.096 0.036,-0.193 0.056,-0.291c0.063,-0.155 0.112,-0.318 0.145,-0.487c0.193,-0.97 0.019,-1.894 -0.64,-2.652c-0.408,-0.47 -1.035,-0.814 -1.641,-0.948c-0.949,-0.208 -2.009,-0.305 -2.981,-0.251c-1.315,0.073 -2.513,0.412 -3.553,1.246c-1.053,0.844 -1.591,2.338 -1.227,3.651"></path>
            <path id="svg_35" fill="current" d="m113.15962,149.00497c-0.123,0 -0.241,-0.001 -0.364,-0.001c-8.512,-0.025 -30.088,-1.164 -46.533,-11.167c-1.416,-0.861 -1.865,-2.707 -1.004,-4.122c0.861,-1.415 2.707,-1.865 4.122,-1.005c15.156,9.22 35.424,10.271 43.434,10.294c0.112,0 0.224,0.001 0.336,0.001c24.869,0 43.327,-8.776 43.51,-8.865c1.493,-0.72 3.285,-0.097 4.007,1.393c0.722,1.491 0.1,3.284 -1.389,4.006c-0.8,0.388 -19.817,9.466 -46.119,9.466"></path>
            <path id="svg_36" fill="rgba(255,7,7,0.2)" d="m79.81302,87.84827c-4.055,-1.62 -9.125,-1.141 -12.819,1.121c-8.39,5.139 -6.219,17.355 3.021,20.135c1.885,0.568 3.885,0.744 5.84,0.506c8.301,-1.007 13.143,-8.882 9.667,-16.462c-1.182,-2.579 -3.26,-4.322 -5.709,-5.3"></path>
            <path id="svg_37" fill="rgba(255,7,7,0.2)" d="m147.47072,93.14807c-3.476,7.581 1.367,15.456 9.668,16.462c1.955,0.238 3.954,0.062 5.84,-0.505c9.239,-2.781 11.411,-14.997 3.021,-20.136c-3.694,-2.262 -8.764,-2.741 -12.819,-1.121c-2.449,0.978 -4.527,2.721 -5.71,5.3"></path>
            <path id="svg_38" d="m75.99512,93.41707c-0.372,-3.527 1.268,-7.197 4.143,-9.273c2.874,-2.077 6.873,-2.48 10.105,-1.019c3.231,1.461 5.569,4.73 5.909,8.26" stroke="#232020" fill="none" stroke-linejoin="round" stroke-linecap="round" stroke-width="6"></path>
            <path id="svg_39" d="m135.67091,90.95956c0.486,-3.513 2.959,-6.682 6.248,-8.007c3.289,-1.326 7.268,-0.757 10.054,1.438c2.786,2.194 4.271,5.929 3.753,9.437" stroke="#232020" fill="none" stroke-linejoin="round" stroke-linecap="round" stroke-width="6"></path>
            <path id="svg_40" d="m137.95412,103.66417c-1.457,0.805 -3.109,1.175 -4.745,1.488c-5.718,1.094 -11.547,1.6 -17.369,1.519c-5.821,0.081 -11.65,-0.425 -17.368,-1.519c-1.636,-0.313 -3.288,-0.683 -4.746,-1.488" stroke="#232020" fill="none" stroke-linejoin="round" stroke-linecap="round" stroke-width="6"></path>
          </g>
        </g>
      </g>
    </g>
  </symbol>
  <symbol xmlns="http://www.w3.org/2000/svg" xmlnsUndefined="http://www.inkscape.org/namespaces/inkscape" version="1.1" viewBox="0 0 216 162" id="charactor2">
    <defs>
      <clipPath id="clip_7">
        <path id="svg_1" d="m-69.55695,-88.6696l360,0l0,360l-360,0l0,-360z"></path>
      </clipPath>
      <clipPath id="clip_8">
        <path id="svg_2" d="m15.63025,96.3654l15.2418,0l0,-49.206l-15.2418,0l0,49.206z"></path>
      </clipPath>
      <clipPath id="clip_9">
        <path id="svg_3" d="m18.38565,107.7054l7.201,0l0,-7.201l-7.201,0l0,7.201z"></path>
      </clipPath>
      <clipPath id="clip_10">
        <path id="svg_4" d="m113.44205,27.4674l26.544,0l0,-15.03l-26.544,0l0,15.03z"></path>
      </clipPath>
      <clipPath id="clip_11">
        <path id="svg_5" d="m66.11505,49.1414l29.53,0l0,-16.667l-29.53,0l0,16.667z"></path>
      </clipPath>
      <clipPath id="clip_12">
        <path id="svg_6" d="m68.78205,27.8144l27.433,0l0,-12.24l-27.433,0l0,12.24z"></path>
      </clipPath>
      <clipPath id="clip_13">
        <path id="svg_7" d="m110.34705,43.1094l42.007,0l0,-12.187l-42.007,0l0,12.187z"></path>
      </clipPath>
    </defs>
    <g>
      <title>Layer 1</title>
      <g id="svg_8">
        <g id="svg_9">
          <g id="svg_10" clip-path="url(#clip_7)">
            <path id="svg_11" fill="current" d="m215.83264,77.599c-0.652,-5.607 -1.93,-11.156 -3.837,-16.501c-4.197,-11.766 -11.456,-22.383 -20.724,-30.74c-4.751,-4.284 -10.038,-7.991 -15.716,-10.942c-4.823,-2.505 -10.95,-2.554 -15.317,-5.671c-0.028,-0.021 -19.261,-13.745 -47.642,-13.745c-19.806,0 -39.516,4.307 -52.798,15.902c-2.977,2.598 -10.868,1.747 -14.739,2.395c-6.431,1.076 -12.497,4.001 -17.632,7.975c-6.673,5.161 -11.863,12.037 -15.999,19.389c-13.134,23.339 -15.535,50.731 -4.127,75.058c11.486,24.493 36.981,36.312 62.898,38.824c34.869,3.38 68.37,3.977 102.231,-7.145c31.941,-10.492 47.221,-41.956 43.402,-74.799"></path>
            <path id="svg_12" fill="current" d="m68.37175,38.37531c-0.721,0 -1.437,-0.311 -1.931,-0.911c-10.266,-12.465 -28.265,-10.431 -28.445,-10.41c-1.372,0.173 -2.617,-0.807 -2.786,-2.175c-0.169,-1.369 0.801,-2.616 2.169,-2.787c0.85,-0.105 20.882,-2.425 32.922,12.194c0.878,1.066 0.725,2.641 -0.341,3.519c-0.465,0.383 -1.028,0.57 -1.588,0.57"></path>
            <path id="svg_13" fill="current" d="m136.99965,38.37531c-0.56,0 -1.122,-0.187 -1.588,-0.57c-1.066,-0.878 -1.219,-2.453 -0.341,-3.519c11.914,-14.47 32.158,-14.637 33.013,-14.637c1.381,0 2.5,1.12 2.5,2.5c0,1.381 -1.119,2.5 -2.499,2.5c-0.288,0.002 -18.791,0.23 -29.154,12.815c-0.494,0.6 -1.21,0.911 -1.931,0.911"></path>
            <g id="svg_14" opacity="0.39999">
              <g id="svg_15" clip-path="url(#clip_8)">
                <path id="svg_16" fill="current" d="m19.22135,96.3656c-1.479,0 -2.768,-1.095 -2.97,-2.602c-2.105,-15.725 1.196,-32.184 9.055,-45.158c0.857,-1.417 2.701,-1.87 4.12,-1.011c1.417,0.858 1.87,2.703 1.011,4.12c-7.162,11.824 -10.165,26.86 -8.238,41.253c0.219,1.642 -0.934,3.152 -2.576,3.372c-0.135,0.017 -0.269,0.026 -0.402,0.026"></path>
              </g>
            </g>
            <g id="svg_17" opacity="0.39999">
              <g id="svg_18" clip-path="url(#clip_9)">
                <path id="svg_19" fill="current" d="m25.56905,103.75031c0.195,1.979 -1.25,3.741 -3.229,3.937c-1.978,0.196 -3.741,-1.249 -3.937,-3.228c-0.195,-1.98 1.25,-3.742 3.228,-3.938c1.979,-0.196 3.742,1.25 3.938,3.229"></path>
              </g>
            </g>
            <path id="svg_20" fill="#54b807" d="m165.01535,39.2205c-0.573,-0.969 -1.21,-1.901 -1.911,-2.785c-4.705,-5.933 -10.819,-8.284 -18.145,-8.027c3.321,-2.755 5.552,-6.546 6.725,-10.67c0.707,-2.483 1.926,-6.862 0.704,-9.347c-2.177,-4.423 -11.129,-3.68 -15.199,-3.891c-7.692,-0.4 -15.659,0.451 -22.709,3.722c-5.704,2.647 -7.805,6.931 -10.295,9.892c-4.644,-6.056 -14.75,-7.276 -21.193,-8.075c-8.657,-1.07 -36.443,-2.352 -29.259,13.868c2.077,4.691 6.23,8.272 10.937,10.179c-2.534,0.835 -5.258,2.077 -7.986,3.944c-3.736,2.558 -5.373,6.806 -5.55,11.202c-0.166,4.142 0.152,9.215 4.793,10.668c4.632,1.45 10.162,-0.128 14.786,-0.951c6.29,-1.12 12.561,-2.347 18.806,-3.697c17.432,-3.769 17.358,-13.521 17.358,-13.521c4.995,6.44 13.552,9.674 21.092,11.948c8.428,2.541 17.177,4.017 25.913,4.999c4.644,0.521 15.375,0.167 14.918,-6.898c-0.286,-4.403 -1.546,-8.771 -3.785,-12.56"></path>
            <g id="svg_21" opacity="0.39999">
              <g id="svg_22" clip-path="url(#clip_10)">
                <path id="svg_23" fill="#52ca00" d="m115.94106,27.46761c-0.608,0 -1.219,-0.221 -1.7,-0.668c-1.012,-0.94 -1.071,-2.522 -0.13,-3.534c1.739,-1.872 3.902,-3.079 5.793,-4.063c5.377,-2.799 11.066,-5.044 16.91,-6.673c1.334,-0.37 2.709,0.408 3.079,1.738c0.371,1.33 -0.407,2.708 -1.737,3.079c-5.509,1.535 -10.873,3.652 -15.944,6.291c-1.52,0.792 -3.242,1.743 -4.439,3.032c-0.492,0.53 -1.161,0.798 -1.832,0.798"></path>
              </g>
            </g>
            <g id="svg_24" opacity="0.39999">
              <g id="svg_25" clip-path="url(#clip_11)">
                <path id="svg_26" fill="#52ca00" d="m68.61595,49.1409c-0.722,0 -1.437,-0.311 -1.933,-0.913c-0.876,-1.066 -0.722,-2.641 0.344,-3.518c7.389,-6.073 16.248,-10.287 25.621,-12.184c1.346,-0.279 2.672,0.6 2.947,1.954c0.274,1.353 -0.601,2.672 -1.955,2.946c-8.575,1.736 -16.679,5.59 -23.437,11.146c-0.466,0.382 -1.027,0.569 -1.587,0.569"></path>
              </g>
            </g>
            <g id="svg_27" opacity="0.39999">
              <g id="svg_28" clip-path="url(#clip_12)">
                <path id="svg_29" fill="#52ca00" d="m93.71255,27.8148c-0.4,0 -0.808,-0.097 -1.185,-0.3c-6.73,-3.629 -13.988,-5.971 -21.569,-6.961c-1.369,-0.179 -2.335,-1.434 -2.155,-2.803c0.179,-1.368 1.432,-2.331 2.802,-2.155c8.188,1.069 16.026,3.598 23.295,7.518c1.215,0.655 1.669,2.172 1.014,3.387c-0.451,0.838 -1.312,1.314 -2.202,1.314"></path>
              </g>
            </g>
            <g id="svg_30" opacity="0.39999">
              <g id="svg_31" clip-path="url(#clip_13)">
                <path id="svg_32" fill="#52ca00" d="m149.85126,43.1097c-0.355,0 -0.717,-0.076 -1.06,-0.237c-11.057,-5.186 -23.112,-7.49 -35.817,-6.845c-0.044,0.003 -0.087,0.004 -0.129,0.004c-1.323,0 -2.427,-1.038 -2.495,-2.374c-0.069,-1.379 0.991,-2.553 2.37,-2.623c13.537,-0.688 26.389,1.774 38.194,7.311c1.25,0.586 1.789,2.075 1.203,3.325c-0.426,0.907 -1.327,1.439 -2.266,1.439"></path>
              </g>
            </g>
            <path id="svg_33" fill="#378b00" d="m116.86296,25.75031c-2.47,-3.972 -7.251,-5.245 -11.727,-5.257c-5.276,-0.254 -11.123,0.861 -13.733,6.026c-2.494,4.935 0.261,10.246 5.287,11.918c2.824,0.939 5.86,1.266 8.823,1.013c2.886,-0.247 6.041,-0.692 8.656,-2.013c4.103,-2.075 5.096,-7.218 3.024,-11.113c-0.104,-0.197 -0.215,-0.388 -0.33,-0.574"></path>
            <path id="svg_34" fill="#237702" d="m108.84056,28.24249c-0.234,-0.774 -0.76,-1.472 -1.475,-1.863c-0.52,-0.284 -1.09,-0.443 -1.671,-0.53c-1.221,-0.182 -2.441,-0.169 -3.638,0.179c-1.346,0.392 -2.671,1.282 -3.048,2.712c-0.025,0.097 -0.032,0.194 -0.049,0.292c-0.059,0.157 -0.105,0.321 -0.135,0.49c-0.169,0.974 0.027,1.895 0.703,2.637c0.419,0.46 1.054,0.789 1.663,0.908c0.954,0.187 2.015,0.259 2.986,0.183c1.313,-0.104 2.503,-0.471 3.523,-1.329c1.034,-0.869 1.537,-2.374 1.141,-3.679"></path>
            <path id="svg_35" fill="current" d="m63.76436,65.29131c-0.907,0 -1.783,-0.496 -2.227,-1.358c-0.629,-1.228 -0.147,-2.734 1.081,-3.365c0.79,-0.406 19.656,-9.962 46.029,-10.494c8.466,-0.172 29.956,0.457 46.522,10.011c1.197,0.689 1.607,2.218 0.917,3.414c-0.69,1.197 -2.22,1.607 -3.415,0.917c-15.477,-8.926 -35.871,-9.509 -43.923,-9.343c-25.16,0.508 -43.661,9.848 -43.845,9.942c-0.365,0.187 -0.755,0.276 -1.139,0.276"></path>
            <path id="svg_36" fill="#232020" d="m94.16176,96.2542c-0.447,-7.54 -8.252,-12.891 -15.396,-10.202c-5.367,2.02 -8.532,9.312 -6.761,14.633c1.729,5.199 7.543,8.558 12.901,7.498c5.449,-1.079 9.585,-6.377 9.256,-11.929"></path>
            <path id="svg_37" fill="#ffffff" d="m86.08176,91.1097c-0.133,-0.73 -0.814,-1.501 -1.433,-1.863c-0.052,-0.032 -0.119,-0.051 -0.175,-0.079c-0.342,-0.306 -0.737,-0.548 -1.19,-0.651c-0.841,-0.192 -1.632,-0.088 -2.402,0.314c-0.303,0.158 -0.576,0.394 -0.833,0.612c-0.082,0.07 -0.154,0.142 -0.223,0.225c-0.47,0.558 -0.836,1.12 -1.029,1.837c-0.163,0.605 -0.167,1.15 -0.086,1.753c0.083,0.618 0.254,1.119 0.649,1.629c0.442,0.572 1.057,0.978 1.761,1.163c1.369,0.362 2.833,-0.088 3.847,-1.051c0.506,-0.48 0.863,-1.106 1.076,-1.765c0.232,-0.72 0.171,-1.397 0.038,-2.124"></path>
            <path id="svg_38" fill="#ffffff" d="m78.23506,97.2191c-4.012,0 -4.019,6.235 0,6.235c4.012,0 4.019,-6.235 0,-6.235"></path>
            <path id="svg_39" fill="#ffffff" d="m87.52415,96.7767c-4.012,0 -4.019,6.235 0,6.235c4.012,0 4.019,-6.235 0,-6.235"></path>
            <path id="svg_40" fill="#232020" d="m152.52415,96.2542c-0.448,-7.54 -8.253,-12.891 -15.396,-10.202c-5.368,2.02 -8.532,9.312 -6.762,14.633c1.73,5.199 7.543,8.558 12.902,7.498c5.449,-1.079 9.585,-6.377 9.256,-11.929"></path>
            <path id="svg_41" fill="#ffffff" d="m144.44406,91.1097c-0.134,-0.73 -0.814,-1.501 -1.433,-1.863c-0.053,-0.032 -0.119,-0.051 -0.176,-0.079c-0.341,-0.306 -0.737,-0.548 -1.189,-0.651c-0.841,-0.192 -1.632,-0.088 -2.402,0.314c-0.303,0.158 -0.576,0.394 -0.833,0.612c-0.082,0.07 -0.154,0.142 -0.224,0.225c-0.469,0.558 -0.835,1.12 -1.028,1.837c-0.163,0.605 -0.168,1.15 -0.087,1.753c0.083,0.618 0.255,1.119 0.649,1.629c0.442,0.572 1.058,0.978 1.761,1.163c1.37,0.362 2.834,-0.088 3.848,-1.051c0.506,-0.48 0.863,-1.106 1.076,-1.765c0.232,-0.72 0.171,-1.397 0.038,-2.124"></path>
            <path id="svg_42" fill="#ffffff" d="m136.59735,97.2191c-4.013,0 -4.019,6.235 0,6.235c4.012,0 4.019,-6.235 0,-6.235"></path>
            <path id="svg_43" fill="#ffffff" d="m145.88646,96.7767c-4.013,0 -4.02,6.235 0,6.235c4.012,0 4.019,-6.235 0,-6.235"></path>
            <path id="svg_44" fill="current" d="m84.33755,116.6546c-3.728,-10.98 -12.839,-19.253 -24.283,-21.493c-3.773,-0.738 -5.387,5.044 -1.595,5.786c9.35,1.83 17.009,8.218 20.093,17.303c1.234,3.635 7.032,2.075 5.785,-1.596"></path>
            <path id="svg_45" fill="current" d="m138.60805,118.17509c3.729,-10.981 12.839,-19.254 24.284,-21.494c3.772,-0.738 5.387,5.044 1.595,5.786c-9.35,1.83 -17.009,8.219 -20.093,17.303c-1.234,3.635 -7.032,2.075 -5.786,-1.595"></path>
            <path id="svg_46" fill="#232020" d="m100.28195,109.2308c-0.062,0.894 0.649,2.96 0.933,3.78c0.121,0.352 0.233,0.679 0.327,0.972c0.636,1.997 1.952,4.757 4.596,6.558c4.084,2.781 9.828,2.578 13.364,-0.469c1.709,-1.474 2.95,-3.573 3.589,-6.072c0.132,-0.62 0.503,-3.332 0.647,-5.155c-0.047,-0.009 -0.093,-0.018 -0.139,-0.028c-7.671,-1.566 -15.729,-1.422 -23.317,0.414m12.307,18.83c-3.365,0 -6.761,-0.955 -9.603,-2.89c-3.138,-2.136 -5.482,-5.417 -6.781,-9.486c-0.082,-0.257 -0.181,-0.542 -0.286,-0.849c-0.842,-2.442 -1.995,-5.787 -0.536,-8.459c0.492,-0.903 1.489,-2.079 3.448,-2.558c8.422,-2.059 17.373,-2.229 25.888,-0.49c0.784,0.16 1.564,0.336 2.34,0.528c0.764,0.19 1.407,0.671 1.814,1.354c1.285,2.155 -0.336,10.102 -0.356,10.178c-0.923,3.613 -2.776,6.699 -5.358,8.926c-2.884,2.485 -6.705,3.746 -10.57,3.746"></path>
          </g>
        </g>
      </g>
    </g>
  </symbol>
  <symbol xmlns="http://www.w3.org/2000/svg" xmlnsUndefined="http://www.inkscape.org/namespaces/inkscape" version="1.1" viewBox="0 0 201 191" id="charactor3">
    <defs>
      <clipPath id="clip_14">
        <path id="svg_1" d="m-79.58687,-88.67049l360,0l0,360l-360,0l0,-360z"></path>
      </clipPath>
      <clipPath id="clip_15">
        <path id="svg_2" d="m174.55613,136.62351l13.359,0l0,-49.635l-13.359,0l0,49.635z"></path>
      </clipPath>
      <clipPath id="clip_16">
        <path id="svg_3" d="m176.70413,83.02851l7.202,0l0,-7.201l-7.202,0l0,7.201z"></path>
      </clipPath>
      <clipPath id="clip_17">
        <path id="svg_4" d="m73.44013,185.02381l20.941,0l0,-11.2552l-20.941,0l0,11.2552z"></path>
      </clipPath>
      <clipPath id="clip_18">
        <path id="svg_5" d="m108.65313,170.19451l23.312,0l0,-12.468l-23.312,0l0,12.468z"></path>
      </clipPath>
      <clipPath id="clip_19">
        <path id="svg_6" d="m108.20013,182.70351l21.648,0l0,-9.1925l-21.648,0l0,9.1925z"></path>
      </clipPath>
      <clipPath id="clip_20">
        <path id="svg_7" d="m63.61913,171.34321l33.221,0l0,-9.1527l-33.221,0l0,9.1527z"></path>
      </clipPath>
    </defs>
    <g>
      <title>Layer 1</title>
      <g id="svg_8">
        <g id="svg_9">
          <g id="svg_10" clip-path="url(#clip_14)">
            <path id="svg_11" fill="#ffd56a" d="m158.87793,23.35441c1.071,1.074 1.345,2.788 1.817,4.279c2.096,6.613 9.081,10.155 15.387,13.046c0.776,0.357 1.563,0.72 2.214,1.272c6.093,5.165 -1.693,13.529 -5.709,17.088c-5.466,4.844 -12.599,7.854 -19.919,8.111c-10.885,0.383 -21.785,-5.335 -27.658,-14.507c-5.872,-9.173 -6.503,-21.466 -1.601,-31.191c2.811,-5.575 7.071,-9.072 12.717,-11.499c1.163,-0.5 2.41,-0.963 3.664,-0.792c2.524,0.344 3.951,2.955 5.411,5.042c2.64,3.772 6.588,6.608 11.005,7.904c0.784,0.23 1.603,0.423 2.266,0.9c0.147,0.106 0.282,0.222 0.406,0.347"></path>
            <path id="svg_12" fill="current" d="m0.00493,107.5541c0.155,15.272 3.62,33.492 14.421,44.958c10.323,10.959 25.233,17.569 40.314,17.574c2.911,0.001 5.968,-0.199 8.582,1.082c1.76,0.863 3.142,2.319 4.614,3.613c19.423,17.076 59.463,8.456 77.319,-7.133c1.882,-1.644 11.417,-1.151 14.165,-1.781c5.779,-1.327 12.783,-3.402 17.883,-6.386c10.659,-6.239 16.772,-18.595 20.177,-30.086c4.642,-15.669 4.866,-32.409 1.191,-48.3c-1.821,-7.878 -4.579,-15.534 -8.138,-22.792c-1.609,-3.282 -6.055,-14.532 -10.227,-14.894c-1.982,-0.172 -3.608,1.417 -5.144,2.681c-4.933,4.058 -12.017,5.581 -17.993,3.318c-4.307,-1.63 -7.826,-5.319 -9.268,-9.693c-0.58,-1.759 -0.506,-3.992 -1.879,-5.382c-1.098,-1.111 -3.117,-1.307 -4.271,-2.248c-1.799,-1.464 -3.137,-3.485 -3.855,-5.684c-1.823,-5.578 1.729,-8.814 4.387,-13.308c0.374,-0.631 0.712,-1.376 0.494,-2.076c-0.144,-0.467 -0.513,-0.826 -0.878,-1.151c-4.625,-4.107 -10.333,-5.224 -16.126,-6.759c-9.208,-2.442 -18.786,-3.442 -28.299,-3.009c-18.545,0.844 -36.709,7.172 -51.77,18.025c-27.437,19.773 -46.052,54.949 -45.699,89.431"></path>
            <g id="svg_13" opacity="0.39999">
              <g id="svg_14" clip-path="url(#clip_15)">
                <path id="svg_15" fill="current" d="m177.55373,136.62341c-0.473,0 -0.953,-0.112 -1.4,-0.35c-1.464,-0.774 -2.024,-2.589 -1.248,-4.054c6.465,-12.22 8.591,-27.405 5.833,-41.661c-0.315,-1.626 0.749,-3.2 2.375,-3.515c1.629,-0.315 3.201,0.749 3.515,2.375c3.015,15.576 0.674,32.199 -6.421,45.607c-0.538,1.017 -1.578,1.598 -2.654,1.598"></path>
              </g>
            </g>
            <g id="svg_16" opacity="0.39999">
              <g id="svg_17" clip-path="url(#clip_16)">
                <path id="svg_18" fill="current" d="m176.74904,79.9892c-0.311,-1.964 1.03,-3.807 2.994,-4.118c1.964,-0.31 3.808,1.031 4.118,2.995c0.31,1.964 -1.03,3.808 -2.995,4.118c-1.964,0.31 -3.807,-1.031 -4.117,-2.995"></path>
              </g>
            </g>
            <path id="svg_19" fill="#0eab24" d="m53.49513,165.13612c0.455,0.717 0.961,1.406 1.519,2.061c3.736,4.39 8.591,6.13 14.408,5.94c-2.637,2.039 -4.408,4.846 -5.34,7.897c-0.562,1.838 -1.529,5.08 -0.559,6.917c1.728,3.275 8.837,2.725 12.07,2.881c6.108,0.296 12.434,-0.335 18.033,-2.755c3.745,-1.62 6.053,-5.747 10.731,-4.744c2.276,0.488 4.386,1.677 6.688,2.216c2.495,0.585 5.044,0.89 7.587,1.184c6.874,0.792 28.939,1.74 23.235,-10.264c-1.65,-3.473 -4.948,-6.122 -8.686,-7.533c2.013,-0.619 4.175,-1.538 6.342,-2.919c2.967,-1.894 4.267,-5.038 4.407,-8.291c0.131,-3.067 -0.12,-6.82 -3.805,-7.896c-3.68,-1.073 -8.07,0.095 -11.742,0.704c-4.995,0.829 -9.976,1.737 -14.935,2.736c-13.842,2.79 -13.785,10.008 -13.785,10.007c-3.966,-4.766 -10.761,-7.16 -16.749,-8.842c-6.692,-1.882 -13.64,-2.974 -20.577,-3.7c-3.689,-0.386 -12.21,-0.124 -11.848,5.105c0.228,3.258 1.228,6.491 3.006,9.296"></path>
            <g id="svg_20" opacity="0.39999">
              <g id="svg_21" clip-path="url(#clip_17)">
                <path id="svg_22" fill="#0fbd1d" d="m75.35654,185.02381c-0.853,0 -1.63,-0.572 -1.854,-1.436c-0.266,-1.024 0.349,-2.07 1.374,-2.336c4.38,-1.137 8.65,-2.707 12.691,-4.666c1.213,-0.589 2.587,-1.297 3.54,-2.253c0.747,-0.75 1.961,-0.752 2.71,-0.005c0.75,0.747 0.752,1.961 0.005,2.71c-1.375,1.381 -3.086,2.27 -4.582,2.997c-4.268,2.069 -8.777,3.727 -13.402,4.927c-0.161,0.042 -0.323,0.062 -0.482,0.062"></path>
              </g>
            </g>
            <g id="svg_23" opacity="0.39999">
              <g id="svg_24" clip-path="url(#clip_18)">
                <path id="svg_25" fill="#0fbd1d" d="m110.56844,170.19471c-0.903,0 -1.708,-0.642 -1.882,-1.562c-0.196,-1.04 0.488,-2.042 1.528,-2.239c6.834,-1.29 13.291,-4.15 18.668,-8.271c0.839,-0.644 2.042,-0.486 2.688,0.355c0.644,0.841 0.484,2.044 -0.356,2.688c-5.852,4.484 -12.868,7.594 -20.289,8.996c-0.12,0.022 -0.239,0.033 -0.357,0.033"></path>
              </g>
            </g>
            <g id="svg_26" opacity="0.39999">
              <g id="svg_27" clip-path="url(#clip_19)">
                <path id="svg_28" fill="#0fbd1d" d="m127.93362,182.7035c-0.077,0 -0.155,-0.005 -0.233,-0.015c-6.485,-0.79 -12.69,-2.656 -18.444,-5.547c-0.946,-0.476 -1.327,-1.628 -0.852,-2.574c0.475,-0.946 1.629,-1.327 2.573,-0.852c5.359,2.693 11.142,4.432 17.185,5.169c1.051,0.128 1.799,1.083 1.671,2.133c-0.118,0.973 -0.945,1.686 -1.9,1.686"></path>
              </g>
            </g>
            <g id="svg_29" opacity="0.39999">
              <g id="svg_30" clip-path="url(#clip_20)">
                <path id="svg_31" fill="#0fbd1d" d="m91.52443,171.34321c-9.441,0 -18.425,-1.838 -26.756,-5.479c-0.97,-0.424 -1.412,-1.554 -0.988,-2.524c0.423,-0.97 1.55,-1.414 2.523,-0.988c8.805,3.848 18.405,5.551 28.53,5.08c1.038,-0.062 1.955,0.765 2.004,1.823c0.051,1.058 -0.766,1.955 -1.823,2.005c-1.17,0.056 -2.334,0.083 -3.49,0.083"></path>
              </g>
            </g>
            <path id="svg_32" fill="#036b20" d="m91.73444,175.1049c1.961,2.939 5.758,3.882 9.313,3.891c4.189,0.188 8.832,-0.637 10.905,-4.46c1.98,-3.653 -0.207,-7.583 -4.198,-8.821c-2.244,-0.695 -4.654,-0.936 -7.007,-0.749c-2.292,0.182 -4.798,0.512 -6.873,1.49c-3.259,1.535 -4.048,5.341 -2.403,8.224c0.083,0.147 0.171,0.288 0.263,0.425"></path>
            <path id="svg_33" fill="#05531a" d="m98.10454,173.2602c0.187,0.573 0.604,1.09 1.172,1.379c0.413,0.211 0.865,0.328 1.327,0.392c0.97,0.135 1.938,0.125 2.889,-0.132c1.069,-0.29 2.121,-0.95 2.421,-2.007c0.019,-0.071 0.025,-0.144 0.038,-0.216c0.048,-0.116 0.084,-0.237 0.107,-0.363c0.134,-0.721 -0.021,-1.403 -0.558,-1.951c-0.334,-0.341 -0.837,-0.584 -1.32,-0.673c-0.758,-0.138 -1.6,-0.192 -2.372,-0.135c-1.043,0.077 -1.987,0.349 -2.798,0.983c-0.82,0.644 -1.219,1.758 -0.906,2.723"></path>
            <path id="svg_34" fill="rgba(255,167,59,0.424)" d="m69.39363,84.4081c-4.056,-1.62 -9.126,-1.141 -12.819,1.122c-8.391,5.138 -6.219,17.354 3.02,20.135c1.886,0.568 3.885,0.743 5.84,0.505c8.302,-1.007 13.144,-8.881 9.668,-16.462c-1.183,-2.578 -3.261,-4.321 -5.709,-5.3"></path>
            <path id="svg_35" fill="rgba(255,167,59,0.424)" d="m130.00104,89.70841c-3.476,7.581 1.367,15.455 9.668,16.462c1.955,0.237 3.954,0.062 5.84,-0.505c9.239,-2.781 11.411,-14.998 3.021,-20.136c-3.694,-2.262 -8.764,-2.741 -12.819,-1.121c-2.449,0.978 -4.527,2.721 -5.71,5.3"></path>
            <path id="svg_36" fill="#232020" d="m82.10263,85.90661c-0.008,-0.724 -0.108,-1.444 -0.29,-2.121c-0.736,-2.747 -3.102,-5.161 -5.915,-5.705c-1.713,-0.33 -3.493,0.093 -5.093,0.79c-4.095,1.785 -5.123,7.296 -2.794,10.886c3.83,5.902 14.168,3.211 14.092,-3.85"></path>
            <path id="svg_37" fill="#232020" d="m101.24513,106.9652c-11.521,0 -16.004,-5.577 -17.652,-8.901c-0.736,-1.485 -0.128,-3.285 1.356,-4.021c1.483,-0.735 3.284,-0.128 4.021,1.357c1.029,2.078 3.994,5.565 12.275,5.565c8.655,0 11.519,-3.73 12.455,-5.953c0.642,-1.529 2.403,-2.244 3.929,-1.601c1.527,0.643 2.244,2.403 1.6,3.929c-1.218,2.895 -5.411,9.625 -17.984,9.625"></path>
            <path id="svg_38" fill="#232020" d="m134.81644,94.47111c-0.213,0 -0.428,-0.022 -0.645,-0.069l-1.073,-0.232c-3.51,-0.747 -7.879,-1.678 -11.089,-4.251c-2.098,-1.683 -2.165,-3.618 -2.017,-4.622c0.566,-3.849 5.712,-6.232 10.934,-8.342c0.323,-0.13 0.597,-0.241 0.807,-0.33c1.527,-0.647 3.286,0.064 3.934,1.59c0.647,1.525 -0.065,3.286 -1.59,3.933c-0.236,0.1 -0.542,0.224 -0.903,0.37c-3.859,1.559 -5.723,2.601 -6.617,3.265c2.153,1.318 5.127,1.952 7.791,2.519l1.107,0.238c1.618,0.354 2.643,1.953 2.289,3.572c-0.307,1.402 -1.549,2.359 -2.928,2.359"></path>
          </g>
        </g>
      </g>
    </g>
  </symbol>
  <symbol xmlns="http://www.w3.org/2000/svg" xmlnsUndefined="http://www.inkscape.org/namespaces/inkscape" version="1.1" viewBox="0 0 201 180" id="charactor4">
    <defs>
      <clipPath id="clip_21">
        <path id="svg_1" d="m-73.9742,-86.73659l360,0l0,360l-360,0l0,-360z"></path>
      </clipPath>
      <clipPath id="clip_22">
        <path id="svg_2" d="m102.3568,25.44741l23.453,0l0,-13.28l-23.453,0l0,13.28z"></path>
      </clipPath>
      <clipPath id="clip_23">
        <path id="svg_3" d="m60.5388,44.59741l26.091,0l0,-14.726l-26.091,0l0,14.726z"></path>
      </clipPath>
      <clipPath id="clip_24">
        <path id="svg_4" d="m62.8948,25.75441l24.24,0l0,-10.817l-24.24,0l0,10.817z"></path>
      </clipPath>
      <clipPath id="clip_25">
        <path id="svg_5" d="m99.6208,41.68841l41.309,0l0,-13.22l-41.309,0l0,13.22z"></path>
      </clipPath>
      <clipPath id="clip_26">
        <path id="svg_6" d="m17.4679,109.19341l11.6709,0l0,-50.979l-11.6709,0l0,50.979z"></path>
      </clipPath>
      <clipPath id="clip_27">
        <path id="svg_7" d="m21.73,120.33641l7.2018,0l0,-7.201l-7.2018,0l0,7.201z"></path>
      </clipPath>
    </defs>
    <g>
      <title>Layer 1</title>
      <g id="svg_8">
        <g id="svg_9">
          <g id="svg_10" clip-path="url(#clip_21)">
            <path id="svg_11" fill="current" d="m73.7079,4.175c-4.684,1.435 -9.248,3.307 -13.507,5.734c-1.954,1.115 -4.358,2.329 -5.962,3.929c-1.744,1.738 -2.038,2.854 -4.896,2.619c-5.396,-0.442 -10.919,0.797 -15.608,3.505c-2.682,1.548 -5.015,3.915 -7.35,5.942c-18.308,15.896 -26.296,40.582 -26.384,64.287c-0.144,38.522 16.939,70.936 55.189,83.219c20.708,6.651 43.598,8.099 65.156,5.763c22.731,-2.462 47.77,-10.639 62.598,-29.041c25.558,-31.72 23.713,-92.11 -4.384,-121.924c-3.475,-3.686 -7.52,-6.799 -11.973,-9.215c-4.152,-2.254 -10.852,-2.692 -14.432,-5.249c-0.015,-0.01 -19.251,-13.744 -47.644,-13.744c-10.372,0 -20.859,1.127 -30.803,4.175"></path>
            <path id="svg_12" fill="current" d="m60.287,38.37521c-0.721,0 -1.437,-0.311 -1.931,-0.911c-5.869,-7.126 -14.213,-9.502 -20.179,-10.239c-1.37,-0.17 -2.344,-1.418 -2.174,-2.788c0.169,-1.372 1.408,-2.342 2.788,-2.175c6.869,0.849 16.509,3.626 23.424,12.024c0.878,1.066 0.726,2.641 -0.34,3.519c-0.466,0.383 -1.028,0.57 -1.588,0.57"></path>
            <path id="svg_13" fill="current" d="m128.91451,38.37521c-0.56,0 -1.123,-0.187 -1.588,-0.57c-1.066,-0.878 -1.219,-2.453 -0.341,-3.519c11.916,-14.471 32.158,-14.637 33.013,-14.637c1.381,0 2.5,1.12 2.5,2.5c0,1.38 -1.117,2.498 -2.497,2.5c-0.187,0 -18.764,0.195 -29.156,12.815c-0.494,0.6 -1.21,0.911 -1.931,0.911"></path>
            <path id="svg_14" fill="#00b24f" d="m149.32271,35.83221c-0.507,-0.856 -1.069,-1.68 -1.689,-2.461c-4.157,-5.242 -9.559,-7.319 -16.032,-7.092c2.934,-2.434 4.906,-5.785 5.943,-9.428c0.624,-2.194 1.701,-6.063 0.621,-8.258c-1.923,-3.909 -9.833,-3.252 -13.429,-3.439c-6.797,-0.353 -13.837,0.4 -20.066,3.289c-5.039,2.339 -6.895,6.124 -9.096,8.741c-4.103,-5.351 -13.032,-6.429 -18.725,-7.135c-7.649,-0.946 -32.199,-2.078 -25.853,12.253c1.836,4.145 5.506,7.308 9.665,8.994c-2.24,0.738 -4.647,1.835 -7.057,3.484c-3.302,2.261 -4.748,6.014 -4.904,9.898c-0.146,3.66 0.134,8.142 4.235,9.426c4.093,1.282 8.979,-0.113 13.064,-0.84c5.558,-0.99 11.099,-2.074 16.617,-3.266c6.698,-1.448 12.579,-4.52 15.854,-10.704c1.838,2.309 5.318,4.059 7.936,5.404c3.24,1.665 6.702,2.86 10.184,3.909c7.446,2.246 15.175,3.55 22.895,4.417c4.103,0.461 13.585,0.148 13.181,-6.094c-0.252,-3.891 -1.365,-7.75 -3.344,-11.098"></path>
            <g id="svg_15" opacity="0.39999">
              <g id="svg_16" clip-path="url(#clip_22)">
                <path id="svg_17" fill="#00b24f" d="m104.5649,25.44742c-0.538,0 -1.077,-0.195 -1.502,-0.59c-0.894,-0.83 -0.946,-2.227 -0.116,-3.122c1.535,-1.654 3.448,-2.721 5.119,-3.591c4.752,-2.473 9.779,-4.457 14.941,-5.895c1.175,-0.329 2.393,0.36 2.721,1.535c0.327,1.175 -0.36,2.393 -1.535,2.721c-4.867,1.355 -9.607,3.226 -14.087,5.558c-1.345,0.699 -2.866,1.54 -3.922,2.678c-0.435,0.469 -1.026,0.706 -1.619,0.706"></path>
              </g>
            </g>
            <g id="svg_18" opacity="0.39999">
              <g id="svg_19" clip-path="url(#clip_23)">
                <path id="svg_20" fill="#00b24f" d="m62.7494,44.59781c-0.638,0 -1.271,-0.275 -1.708,-0.807c-0.774,-0.942 -0.639,-2.334 0.304,-3.108c6.528,-5.367 14.356,-9.09 22.637,-10.767c1.195,-0.243 2.361,0.531 2.603,1.727c0.243,1.195 -0.53,2.361 -1.726,2.603c-7.576,1.535 -14.736,4.94 -20.709,9.849c-0.411,0.338 -0.907,0.503 -1.401,0.503"></path>
              </g>
            </g>
            <g id="svg_21" opacity="0.39999">
              <g id="svg_22" clip-path="url(#clip_24)">
                <path id="svg_23" fill="#00b24f" d="m84.92331,25.75412c-0.354,0 -0.713,-0.085 -1.046,-0.265c-5.947,-3.207 -12.36,-5.276 -19.059,-6.151c-1.21,-0.158 -2.062,-1.267 -1.905,-2.477c0.158,-1.21 1.269,-2.064 2.477,-1.904c7.236,0.945 14.161,3.181 20.583,6.644c1.074,0.579 1.475,1.919 0.896,2.993c-0.399,0.74 -1.16,1.16 -1.946,1.16"></path>
              </g>
            </g>
            <g id="svg_24" opacity="0.39999">
              <g id="svg_25" clip-path="url(#clip_25)">
                <path id="svg_26" fill="#00b24f" d="m138.7182,41.68861c-0.442,0 -0.889,-0.132 -1.276,-0.407c-8.911,-6.323 -20.521,-9.027 -35.5,-8.27c-1.235,0.052 -2.257,-0.876 -2.318,-2.094c-0.062,-1.218 0.876,-2.256 2.094,-2.318c16.005,-0.813 28.529,2.158 38.28,9.078c0.995,0.706 1.23,2.085 0.524,3.08c-0.431,0.607 -1.113,0.931 -1.804,0.931"></path>
              </g>
            </g>
            <path id="svg_27" fill="#00893b" d="m105.5649,23.93082c-2.183,-3.51 -6.407,-4.635 -10.361,-4.646c-4.662,-0.224 -9.828,0.761 -12.135,5.325c-2.203,4.36 0.231,9.053 4.672,10.53c2.495,0.831 5.178,1.118 7.796,0.895c2.55,-0.218 5.338,-0.611 7.648,-1.779c3.625,-1.833 4.503,-6.377 2.672,-9.818c-0.093,-0.175 -0.19,-0.344 -0.292,-0.507"></path>
            <path id="svg_28" fill="#027039" d="m98.47701,26.13202c-0.208,-0.684 -0.671,-1.3 -1.304,-1.646c-0.459,-0.25 -0.963,-0.391 -1.476,-0.468c-1.079,-0.16 -2.157,-0.15 -3.214,0.158c-1.19,0.347 -2.361,1.134 -2.694,2.396c-0.022,0.085 -0.028,0.172 -0.042,0.258c-0.053,0.139 -0.094,0.283 -0.12,0.434c-0.149,0.86 0.024,1.674 0.621,2.329c0.371,0.407 0.932,0.697 1.469,0.803c0.843,0.165 1.781,0.229 2.639,0.161c1.16,-0.091 2.211,-0.415 3.113,-1.174c0.912,-0.768 1.357,-2.098 1.008,-3.251"></path>
            <path id="svg_29" fill="current" d="m55.6796,60.17111c-0.908,0 -1.783,-0.496 -2.226,-1.358c-0.63,-1.228 -0.148,-2.734 1.08,-3.365c0.79,-0.407 19.656,-9.962 46.029,-10.493c8.467,-0.182 29.955,0.454 46.522,10.009c1.196,0.69 1.606,2.219 0.917,3.415c-0.691,1.196 -2.22,1.605 -3.415,0.917c-15.478,-8.927 -35.873,-9.507 -43.922,-9.343c-25.161,0.508 -43.662,9.848 -43.846,9.942c-0.365,0.187 -0.755,0.276 -1.139,0.276"></path>
            <g id="svg_30" opacity="0.39999">
              <g id="svg_31" clip-path="url(#clip_26)">
                <path id="svg_32" fill="current" d="m21.8954,109.19351c-1.402,0 -2.655,-0.988 -2.939,-2.416c-3.027,-15.234 -1.379,-32.694 4.408,-46.707c0.633,-1.531 2.389,-2.263 3.918,-1.627c1.532,0.632 2.26,2.387 1.628,3.918c-5.353,12.961 -6.874,29.128 -4.069,43.246c0.323,1.625 -0.733,3.204 -2.358,3.527c-0.197,0.039 -0.394,0.059 -0.588,0.059"></path>
              </g>
            </g>
            <g id="svg_33" opacity="0.39999">
              <g id="svg_34" clip-path="url(#clip_27)">
                <path id="svg_35" fill="current" d="m28.8842,116.15642c0.32,1.963 -1.012,3.813 -2.974,4.133c-1.963,0.32 -3.813,-1.011 -4.133,-2.974c-0.32,-1.963 1.012,-3.812 2.974,-4.133c1.963,-0.32 3.813,1.012 4.133,2.974"></path>
              </g>
            </g>
            <path id="svg_36" fill="rgba(255,7,7,0.2)" d="m68.2997,95.98061c-4.055,-1.62 -9.125,-1.141 -12.819,1.121c-8.39,5.139 -6.219,17.356 3.021,20.136c1.885,0.567 3.885,0.743 5.84,0.506c8.301,-1.007 13.143,-8.882 9.667,-16.463c-1.182,-2.578 -3.26,-4.321 -5.709,-5.3"></path>
            <path id="svg_37" fill="rgba(255,7,7,0.2)" d="m128.90761,101.28041c-3.476,7.581 1.367,15.456 9.668,16.463c1.955,0.237 3.954,0.061 5.84,-0.506c9.239,-2.78 11.412,-14.997 3.021,-20.136c-3.694,-2.261 -8.764,-2.741 -12.819,-1.121c-2.449,0.979 -4.527,2.722 -5.71,5.3"></path>
            <path id="svg_38" fill="#232020" d="m136.7533,98.78041c-2.956,-0.817 -5.884,-1.715 -8.792,-2.677c2.021,-1.264 4.169,-2.323 6.442,-3.133c4.454,-1.587 2.754,-8.82 -1.749,-7.214c-5.597,1.994 -10.579,4.892 -14.981,8.897c-2.182,1.984 -0.99,5.294 1.511,6.23c5.073,1.898 10.215,3.567 15.438,5.009c4.609,1.274 6.742,-5.838 2.131,-7.112"></path>
            <path id="svg_39" fill="#232020" d="m65.1938,99.81561c2.84,-1.157 5.644,-2.391 8.418,-3.687c-2.155,-1.019 -4.411,-1.819 -6.763,-2.358c-4.61,-1.056 -3.766,-8.437 0.893,-7.37c5.792,1.327 11.078,3.623 15.919,7.085c2.398,1.716 1.602,5.143 -0.772,6.364c-4.817,2.478 -9.729,4.737 -14.746,6.78c-4.429,1.804 -7.379,-5.009 -2.949,-6.814"></path>
            <path id="svg_40" fill="#232020" d="m88.64011,109.26091c-0.076,0.476 -0.009,1.381 0.026,1.853l0.036,0.515c0.306,4.94 2.639,11.148 8.212,12.39c3.711,0.825 7.6,0.663 10.665,-0.447c4.892,-1.771 7.295,-8.635 6.633,-14.159c-0.035,-0.004 -0.07,-0.006 -0.105,-0.01c-1.148,-0.12 -2.387,-0.11 -3.694,-0.1c-0.875,0.005 -1.744,0.013 -2.583,-0.019c-3.177,-0.115 -6.068,-0.172 -8.838,-0.175c-2.777,-0.031 -5.283,0.048 -7.746,0.156c-0.405,0.018 -0.848,0.006 -1.306,-0.011c-0.376,-0.013 -0.956,-0.034 -1.3,0.007m12.965,20.874c-1.961,0 -3.961,-0.215 -5.908,-0.649c-8.61,-1.918 -12.161,-10.632 -12.585,-17.511l-0.032,-0.446c-0.129,-1.748 -0.371,-5.001 2.163,-6.821c1.628,-1.167 3.517,-1.103 4.894,-1.051c0.304,0.01 0.597,0.023 0.866,0.012c2.546,-0.111 5.137,-0.153 7.993,-0.162c2.838,0.003 5.794,0.062 9.037,0.18c0.76,0.027 1.545,0.018 2.338,0.014c1.403,-0.011 2.858,-0.021 4.314,0.129l0.002,0c0.591,0.063 1.132,0.145 1.652,0.252c0.396,0.081 1.229,0.252 1.983,0.926c0.941,0.841 1.153,1.928 1.232,2.337c1.563,8.019 -1.842,18.517 -10.067,21.494c-2.374,0.859 -5.089,1.296 -7.882,1.296"></path>
          </g>
        </g>
      </g>
    </g>
  </symbol>
  <symbol xmlns="http://www.w3.org/2000/svg" xmlnsUndefined="http://www.inkscape.org/namespaces/inkscape" version="1.1" viewBox="0 0 193 206" id="charactor5">
    <defs>
      <clipPath id="clip_28">
        <path id="svg_1" d="m-85.84395,-81.91546l360,0l0,360l-360,0l0,-360z"></path>
      </clipPath>
      <clipPath id="clip_29">
        <path id="svg_2" d="m170.90705,147.26854l11.671,0l0,-50.978l-11.671,0l0,50.978z"></path>
      </clipPath>
      <clipPath id="clip_30">
        <path id="svg_3" d="m171.11405,92.34754l7.202,0l0,-7.201l-7.202,0l0,7.201z"></path>
      </clipPath>
      <clipPath id="clip_31">
        <path id="svg_4" d="m65.09205,198.64454l24.605,0l0,-12.035l-24.605,0l0,12.035z"></path>
      </clipPath>
      <clipPath id="clip_32">
        <path id="svg_5" d="m106.58905,183.51274l27.412,0l0,-13.2982l-27.412,0l0,13.2982z"></path>
      </clipPath>
      <clipPath id="clip_33">
        <path id="svg_6" d="m105.66105,198.93754l24.698,0l0,-11.6259l-24.698,0l0,11.6259z"></path>
      </clipPath>
      <clipPath id="clip_34">
        <path id="svg_7" d="m54.82705,183.86134l38.066,0l0,-12.1428l-38.066,0l0,12.1428z"></path>
      </clipPath>
    </defs>
    <g>
      <title>Layer 1</title>
      <g id="svg_8">
        <g id="svg_9">
          <g id="svg_10" clip-path="url(#clip_28)">
            <path id="svg_11" fill="current" d="m96.62386,195.73243c28.402,0 51.835,-13.744 51.835,-13.744c20.394,-4.411 33.223,-17.842 39.478,-37.823c2.721,-8.688 3.979,-17.702 4.609,-26.802c1.583,-22.893 1.88,-48.984 -11.59,-68.718c-8.895,-13.033 -21.311,-23.248 -34.853,-31.164c-14.84,-8.678 -30.716,-16.674 -48.224,-17.43c-18.874,-0.815 -34.934,8.192 -50.734,17.429c-13.542,7.917 -25.957,18.132 -34.853,31.165c-13.258,19.425 -13.125,46.522 -11.589,68.719c0.629,9.099 1.888,18.113 4.608,26.801c6.255,19.981 19.084,33.412 39.479,37.823c0,0 23.432,13.744 51.834,13.744"></path>
            <path id="svg_12" fill="rgba(255,255,255,0.25)" d="m38.34845,75.11524c0.503,1.05 1.482,1.87 2.577,2.308c3.199,1.281 6.456,-1.113 9.497,-2.121c2.966,-0.983 6.634,-2.317 7.947,-5.438c1.69,-4.02 1.494,-9.276 1.512,-13.547c0.006,-1.522 -0.059,-3.226 -1.153,-4.285c-0.539,-0.521 -1.259,-0.808 -1.965,-1.062c-1.357,-0.489 -2.964,-0.882 -4.164,-0.082c-0.457,0.304 -0.797,0.751 -1.116,1.197c-3.907,5.464 -7.263,11.201 -11.301,16.599c-1.243,1.662 -2.555,3.618 -2.106,5.643c0.06,0.274 0.153,0.538 0.272,0.788"></path>
            <path id="svg_13" fill="rgba(255,255,255,0.25)" d="m154.97055,73.76275c-0.478,1.062 -1.438,1.904 -2.522,2.367c-3.169,1.355 -6.48,-0.963 -9.544,-1.9c-2.988,-0.913 -6.685,-2.162 -8.07,-5.252c-1.783,-3.98 -1.709,-9.239 -1.826,-13.509c-0.042,-1.521 -0.017,-3.226 1.053,-4.31c0.527,-0.535 1.239,-0.836 1.939,-1.107c1.346,-0.52 2.944,-0.951 4.162,-0.179c0.463,0.294 0.814,0.733 1.143,1.171c4.033,5.371 7.52,11.029 11.683,16.333c1.281,1.632 2.638,3.556 2.237,5.592c-0.054,0.275 -0.141,0.541 -0.255,0.794"></path>
            <g id="svg_14" opacity="0.39999">
              <g id="svg_15" clip-path="url(#clip_29)">
                <path id="svg_16" fill="rgba(255,255,255,0.349)" d="m173.90706,147.26855c-0.382,0 -0.77,-0.073 -1.145,-0.229c-1.531,-0.631 -2.259,-2.386 -1.626,-3.917c5.353,-12.96 6.874,-29.127 4.069,-43.247c-0.323,-1.625 0.732,-3.204 2.357,-3.527c1.631,-0.322 3.205,0.733 3.528,2.357c3.027,15.236 1.379,32.696 -4.41,46.708c-0.477,1.156 -1.595,1.855 -2.773,1.855"></path>
              </g>
            </g>
            <g id="svg_17" opacity="0.39999">
              <g id="svg_18" clip-path="url(#clip_30)">
                <path id="svg_19" fill="rgba(255,255,255,0.349)" d="m171.16194,89.32613c-0.32,-1.962 1.011,-3.813 2.974,-4.132c1.962,-0.32 3.812,1.011 4.132,2.974c0.321,1.962 -1.011,3.812 -2.973,4.133c-1.963,0.319 -3.814,-1.012 -4.133,-2.975"></path>
              </g>
            </g>
            <path id="svg_20" fill="#c6bc01" d="m43.24886,174.34275c3.22,5.644 8.618,10.188 14.682,12.155c-1.641,2.137 -2.612,4.359 -3.526,6.9c-0.752,2.09 -2.052,5.777 -1.036,7.956c1.811,3.878 10.051,3.644 13.774,4.008c7.036,0.687 14.377,0.317 20.978,-2.162c5.341,-2.005 7.446,-5.571 9.854,-7.99c4.004,5.383 13.219,6.88 19.094,7.853c7.893,1.302 33.317,3.646 27.41,-10.537c-1.709,-4.103 -5.368,-7.349 -9.604,-9.19c2.359,-0.6 4.909,-1.539 7.489,-3.012c3.533,-2.018 5.211,-5.575 5.557,-9.323c0.326,-3.533 0.247,-7.883 -3.947,-9.333c-4.187,-1.447 -9.324,-0.346 -13.598,0.15c-5.814,0.673 -11.616,1.44 -17.398,2.313c-16.141,2.439 -16.483,10.775 -16.483,10.775c-4.31,-5.727 -12.021,-8.875 -18.84,-11.157c-7.621,-2.551 -15.581,-4.205 -23.551,-5.435c-4.236,-0.656 -14.09,-0.834 -13.967,5.224c0.077,3.782 1.217,7.484 3.112,10.805"></path>
            <g id="svg_21" opacity="0.39999">
              <g id="svg_22" clip-path="url(#clip_31)">
                <path id="svg_23" fill="#c6bc01" d="m67.30646,198.64454c-1.028,0 -1.949,-0.719 -2.167,-1.765c-0.25,-1.197 0.52,-2.371 1.718,-2.62c5.126,-1.067 10.144,-2.638 14.917,-4.671c1.434,-0.612 3.061,-1.352 4.216,-2.402c0.907,-0.825 2.306,-0.756 3.129,0.147c0.824,0.906 0.758,2.307 -0.147,3.13c-1.666,1.516 -3.692,2.448 -5.461,3.202c-5.041,2.147 -10.341,3.806 -15.752,4.932c-0.152,0.032 -0.304,0.047 -0.453,0.047"></path>
              </g>
            </g>
            <g id="svg_24" opacity="0.39999">
              <g id="svg_25" clip-path="url(#clip_32)">
                <path id="svg_26" fill="#c6bc01" d="m108.80154,183.51273c-1.089,0 -2.038,-0.803 -2.191,-1.912c-0.168,-1.212 0.678,-2.331 1.89,-2.498c7.964,-1.104 15.579,-4.041 22.025,-8.495c1.007,-0.695 2.386,-0.444 3.082,0.562c0.696,1.007 0.444,2.387 -0.563,3.082c-7.013,4.848 -15.289,8.042 -23.936,9.24c-0.103,0.014 -0.205,0.021 -0.307,0.021"></path>
              </g>
            </g>
            <g id="svg_27" opacity="0.39999">
              <g id="svg_28" clip-path="url(#clip_33)">
                <path id="svg_29" fill="#c6bc01" d="m128.14626,198.93754c-0.125,0 -0.251,-0.011 -0.378,-0.032c-7.439,-1.277 -14.499,-3.783 -20.981,-7.449c-1.066,-0.603 -1.441,-1.955 -0.838,-3.02c0.601,-1.064 1.953,-1.439 3.019,-0.838c6.037,3.414 12.615,5.749 19.55,6.94c1.206,0.207 2.016,1.352 1.809,2.558c-0.186,1.079 -1.122,1.841 -2.181,1.841"></path>
              </g>
            </g>
            <g id="svg_30" opacity="0.39999">
              <g id="svg_31" clip-path="url(#clip_34)">
                <path id="svg_32" fill="#c6bc01" d="m90.67755,183.86134l-0.004,0c-12.404,-0.021 -24.052,-2.693 -34.616,-7.942c-1.097,-0.545 -1.543,-1.874 -0.999,-2.97c0.544,-1.096 1.873,-1.543 2.97,-0.999c9.95,4.943 20.936,7.459 32.653,7.479c1.224,0.002 2.214,0.996 2.212,2.22c-0.002,1.223 -0.994,2.212 -2.216,2.212"></path>
              </g>
            </g>
            <path id="svg_33" fill="#a6a607" d="m86.66975,188.11524c2.099,3.505 6.429,4.807 10.532,5.019c4.827,0.454 10.236,-0.236 12.845,-4.533c2.494,-4.105 0.19,-8.767 -4.349,-10.422c-2.55,-0.93 -5.32,-1.344 -8.048,-1.261c-2.656,0.081 -5.568,0.319 -8.02,1.331c-3.85,1.589 -4.976,5.939 -3.239,9.36c0.088,0.174 0.181,0.342 0.279,0.506"></path>
            <path id="svg_34" fill="#94940d" d="m94.12965,186.34574c0.183,0.672 0.635,1.292 1.275,1.658c0.464,0.267 0.981,0.428 1.51,0.528c1.112,0.21 2.232,0.254 3.343,0.01c1.251,-0.274 2.504,-0.975 2.908,-2.179c0.028,-0.082 0.038,-0.165 0.057,-0.247c0.061,-0.132 0.11,-0.271 0.144,-0.415c0.196,-0.824 0.056,-1.62 -0.534,-2.284c-0.365,-0.412 -0.932,-0.721 -1.485,-0.851c-0.867,-0.202 -1.838,-0.312 -2.732,-0.29c-1.208,0.029 -2.314,0.29 -3.285,0.977c-0.984,0.697 -1.509,1.96 -1.201,3.093"></path>
            <path id="svg_35" fill="#232020" d="m69.13065,97.40824l-0.001,0.001c0.004,-0.003 0.008,-0.005 0.012,-0.007c-0.004,0.002 -0.007,0.004 -0.011,0.006"></path>
            <path id="svg_36" fill="#232020" d="m77.06525,97.87405c0.02,-3.214 -3.277,-6.547 -7.611,-6.558c-6.231,-0.014 -10.054,5.491 -6.675,9.597c2.699,3.28 9.228,3.306 12.506,0.557c1.228,-1.031 1.772,-2.303 1.78,-3.596"></path>
            <path id="svg_37" fill="#232020" d="m124.01546,97.40824l-0.001,0.001c0.004,-0.003 0.008,-0.005 0.012,-0.007c-0.004,0.002 -0.007,0.004 -0.011,0.006"></path>
            <path id="svg_38" fill="#232020" d="m131.95096,97.87405c0.019,-3.214 -3.278,-6.547 -7.612,-6.558c-6.23,-0.014 -10.054,5.491 -6.675,9.597c2.699,3.28 9.228,3.306 12.507,0.557c1.227,-1.031 1.771,-2.303 1.78,-3.596"></path>
            <path id="svg_39" fill="#ffffff" d="m96.62186,113.72654c-0.482,-0.611 -1.079,-1.198 -1.803,-1.752c-4.782,-3.664 -13.509,0.654 -17.469,3.872c-4.408,3.579 -7.221,8.689 -9.249,13.899c-0.583,1.498 0.656,3.062 1.997,3.515c6.265,2.121 13.364,1.307 19.113,-1.911c5.853,-3.276 12.139,-11.629 7.411,-17.623"></path>
            <path id="svg_40" fill="#ffffff" d="m104.03305,131.34965c5.749,3.218 12.848,4.032 19.113,1.911c1.34,-0.453 2.579,-2.017 1.996,-3.515c-2.028,-5.21 -4.84,-10.32 -9.248,-13.899c-3.961,-3.218 -12.688,-7.536 -17.469,-3.872c-0.724,0.554 -1.321,1.141 -1.803,1.752c-4.728,5.994 1.557,14.347 7.411,17.623"></path>
            <path id="svg_41" fill="#613813" d="m84.97246,93.81834c-0.18,2.854 -0.253,6.143 -1.327,8.835c-1.029,2.582 -3.952,3.334 -6.406,3.899c-3.103,0.716 -6.292,0.913 -9.469,0.952c-2.807,0.034 -5.812,-0.062 -8.22,-1.686c-5.294,-3.568 -5.247,-10.949 -4.853,-16.659c2.484,-0.672 5.031,-0.769 7.625,-0.796c3.449,-0.035 6.9,-0.037 10.349,-0.024c3.467,0.013 6.934,0.048 10.401,0.104c0.147,0.003 1.379,0.128 1.992,0.108c-0.033,0.298 -0.077,0.561 0.047,-0.003c-0.153,0.692 0.004,1.601 -0.013,2.324c-0.022,0.982 -0.064,1.965 -0.126,2.946m4.396,-8.237c-1.057,-1.774 -2.921,-2.074 -4.811,-2.113c-1.981,-0.04 -3.962,-0.063 -5.942,-0.085c-4.622,-0.05 -9.246,-0.062 -13.868,-0.037c-4.26,0.024 -8.671,-0.074 -12.731,1.412c-2.13,0.781 -2.294,3.072 -2.345,4.978c-0.061,2.309 -0.158,4.585 0.079,6.892c0.47,4.574 2.043,9.121 5.592,12.218c2.777,2.424 6.163,3.391 9.79,3.61c3.847,0.231 7.823,-0.057 11.616,-0.715c3.459,-0.601 7.406,-1.633 9.799,-4.394c2.404,-2.773 2.746,-6.603 3.13,-10.1c0.214,-1.955 0.351,-3.918 0.408,-5.884c0.056,-1.877 0.29,-4.094 -0.717,-5.782"></path>
            <path id="svg_42" fill="#613813" d="m139.29175,93.81834c-0.18,2.854 -0.254,6.143 -1.327,8.835c-1.03,2.582 -3.952,3.334 -6.406,3.899c-3.103,0.716 -6.292,0.913 -9.469,0.952c-2.807,0.034 -5.812,-0.062 -8.22,-1.686c-5.294,-3.568 -5.247,-10.949 -4.853,-16.659c2.483,-0.672 5.031,-0.769 7.624,-0.796c3.45,-0.035 6.9,-0.037 10.35,-0.024c3.467,0.013 6.934,0.048 10.401,0.104c0.147,0.003 1.379,0.128 1.992,0.108c-0.033,0.298 -0.077,0.561 0.047,-0.003c-0.153,0.692 0.004,1.601 -0.013,2.324c-0.022,0.982 -0.064,1.965 -0.126,2.946m4.396,-8.237c-1.058,-1.774 -2.921,-2.074 -4.811,-2.113c-1.981,-0.04 -3.962,-0.063 -5.942,-0.085c-4.622,-0.05 -9.246,-0.062 -13.868,-0.037c-4.26,0.024 -8.671,-0.074 -12.731,1.412c-2,0.733 -2.162,3.206 -2.357,4.988c-0.247,2.256 -0.139,4.655 0.094,6.907c0.473,4.565 2.047,9.102 5.589,12.193c2.777,2.424 6.163,3.391 9.789,3.61c3.848,0.231 7.824,-0.057 11.617,-0.715c3.459,-0.601 7.406,-1.633 9.799,-4.394c2.404,-2.773 2.746,-6.603 3.129,-10.1c0.215,-1.955 0.351,-3.918 0.409,-5.884c0.056,-1.877 0.29,-4.094 -0.717,-5.782"></path>
            <path id="svg_43" fill="#613813" d="m106.65895,92.17184c-6.007,-1.168 -12.138,-1.421 -18.207,-0.61c-1.338,0.178 -2.5,1.021 -2.5,2.5c0,1.212 1.152,2.68 2.5,2.5c5.61,-0.749 11.318,-0.65 16.878,0.431c1.324,0.258 2.698,-0.374 3.075,-1.746c0.337,-1.225 -0.414,-2.816 -1.746,-3.075"></path>
          </g>
        </g>
      </g>
    </g>
  </symbol>
  <symbol xmlns="http://www.w3.org/2000/svg" xmlnsUndefined="http://www.inkscape.org/namespaces/inkscape" version="1.1" viewBox="0 0 177 221" id="charactor6">
    <defs>
      <clipPath id="clip_35">
        <path id="svg_1" d="m-96.98388,-70.17249l360,0l0,360l-360,0l0,-360z"></path>
      </clipPath>
      <clipPath id="clip_36">
        <path id="svg_2" d="m18.08612,95.70451l14.494,0l0,-50.454l-14.494,0l0,50.454z"></path>
      </clipPath>
      <clipPath id="clip_37">
        <path id="svg_3" d="m17.48712,110.70251l7.201,0l0,-7.201l-7.201,0l0,7.201z"></path>
      </clipPath>
      <clipPath id="clip_38">
        <path id="svg_4" d="m94.00412,19.82351l18.921,0l0,-10.713l-18.921,0l0,10.713z"></path>
      </clipPath>
      <clipPath id="clip_39">
        <path id="svg_5" d="m60.26812,35.27451l21.049,0l0,-11.879l-21.049,0l0,11.879z"></path>
      </clipPath>
      <clipPath id="clip_40">
        <path id="svg_6" d="m62.16812,20.07151l19.556,0l0,-8.726l-19.556,0l0,8.726z"></path>
      </clipPath>
      <clipPath id="clip_41">
        <path id="svg_7" d="m91.79812,32.92651l33.325,0l0,-10.663l-33.325,0l0,10.663z"></path>
      </clipPath>
    </defs>
    <g>
      <title>Layer 1</title>
      <g id="svg_8">
        <g id="svg_9">
          <g id="svg_10" clip-path="url(#clip_35)">
            <path id="svg_11" fill="current" d="m172.47221,77.84842c-4.001,-16.882 -10.35,-33.533 -20.398,-47.782c-10.622,-15.062 -23.35,-19.774 -40.716,-24.115c-3.879,-0.969 -7.611,-2.447 -11.449,-3.565c-13.975,-4.073 -29.666,-3.085 -42.301,4.145c-2.649,1.515 -5.148,3.286 -7.835,4.731c-2.649,1.425 -5.46,2.523 -8.155,3.862c-25.689,12.77 -35.011,42.953 -38.752,69.347c-4.429,31.244 -5.168,66.103 8.445,95.198c11.564,24.715 41.047,39.237 67.376,40.861c26.563,1.637 54.906,-3.128 72.897,-24.301c25.397,-29.888 30.654,-77.17 20.888,-118.381"></path>
            <g id="svg_12" opacity="0.39999">
              <g id="svg_13" clip-path="url(#clip_36)">
                <path id="svg_14" fill="#ffffff" d="m21.52782,95.70491c-1.508,0 -2.807,-1.134 -2.978,-2.668c-1.72,-15.436 1.407,-32.693 8.365,-46.163c0.759,-1.471 2.566,-2.05 4.042,-1.288c1.471,0.76 2.049,2.569 1.288,4.042c-6.436,12.46 -9.326,28.438 -7.732,42.745c0.184,1.646 -1.003,3.13 -2.649,3.313c-0.112,0.013 -0.225,0.019 -0.336,0.019"></path>
              </g>
            </g>
            <g id="svg_15" opacity="0.39999">
              <g id="svg_16" clip-path="url(#clip_37)">
                <path id="svg_17" fill="#ffffff" d="m24.67722,106.82701c0.152,1.982 -1.332,3.713 -3.314,3.865c-1.983,0.152 -3.713,-1.332 -3.866,-3.314c-0.151,-1.983 1.332,-3.713 3.315,-3.865c1.982,-0.152 3.713,1.332 3.865,3.314"></path>
              </g>
            </g>
            <path id="svg_18" fill="current" d="m112.67532,27.21762c-1.109,0 -2.122,-0.744 -2.416,-1.867c-0.351,-1.336 0.449,-2.702 1.784,-3.052c1.173,-0.308 2.343,-0.863 3.581,-1.451c0.502,-0.238 1.005,-0.477 1.512,-0.702c4.697,-2.085 9.88,-3.079 15.026,-2.874c1.38,0.055 2.453,1.218 2.399,2.597c-0.056,1.381 -1.235,2.455 -2.598,2.399c-4.382,-0.17 -8.797,0.671 -12.798,2.448c-0.469,0.208 -0.932,0.429 -1.396,0.648c-1.393,0.662 -2.832,1.345 -4.458,1.771c-0.213,0.056 -0.426,0.083 -0.636,0.083"></path>
            <path id="svg_19" fill="current" d="m65.74752,30.61801c-0.336,0 -0.677,-0.068 -1.004,-0.212c-7.776,-3.413 -16.364,-4.906 -24.838,-4.307c-1.355,0.09 -2.571,-0.94 -2.669,-2.319c-0.096,-1.377 0.942,-2.572 2.32,-2.669c9.275,-0.644 18.681,0.98 27.197,4.717c1.264,0.555 1.839,2.029 1.284,3.294c-0.411,0.937 -1.328,1.496 -2.29,1.496"></path>
            <path id="svg_20" fill="#0eab24" d="m130.98002,27.86603c-0.413,-0.699 -0.873,-1.371 -1.378,-2.008c-3.392,-4.277 -7.8,-5.972 -13.08,-5.786c2.394,-1.986 4.001,-4.721 4.848,-7.693c0.509,-1.789 1.387,-4.947 0.506,-6.738c-1.568,-3.189 -8.022,-2.653 -10.957,-2.805c-5.544,-0.288 -11.289,0.325 -16.371,2.683c-4.111,1.909 -5.626,4.996 -7.421,7.131c-3.348,-4.365 -10.633,-5.245 -15.278,-5.821c-6.241,-0.772 -26.271,-1.695 -21.094,9.997c1.498,3.383 4.493,5.964 7.886,7.338c-1.828,0.602 -3.791,1.498 -5.758,2.844c-2.694,1.843 -3.874,4.906 -4.001,8.075c-0.119,2.986 0.11,6.643 3.455,7.691c3.34,1.045 7.327,-0.093 10.66,-0.686c4.534,-0.807 9.055,-1.692 13.557,-2.664c12.567,-2.718 12.514,-9.748 12.514,-9.748c3.6,4.642 9.769,6.974 15.205,8.613c6.076,1.833 12.383,2.896 18.681,3.603c3.347,0.377 11.084,0.121 10.755,-4.972c-0.207,-3.174 -1.115,-6.323 -2.729,-9.054"></path>
            <g id="svg_21" opacity="0.39999">
              <g id="svg_22" clip-path="url(#clip_38)">
                <path id="svg_23" fill="#0fbd1d" d="m95.78661,19.82401c-0.435,0 -0.87,-0.158 -1.213,-0.477c-0.721,-0.669 -0.763,-1.797 -0.093,-2.518c1.242,-1.335 2.783,-2.195 4.13,-2.897c3.835,-1.995 7.891,-3.595 12.054,-4.756c0.95,-0.261 1.931,0.291 2.195,1.238c0.264,0.948 -0.29,1.931 -1.238,2.195c-3.926,1.094 -7.75,2.604 -11.366,4.486c-1.083,0.563 -2.31,1.241 -3.163,2.16c-0.352,0.378 -0.828,0.569 -1.306,0.569"></path>
              </g>
            </g>
            <g id="svg_24" opacity="0.39999">
              <g id="svg_25" clip-path="url(#clip_39)">
                <path id="svg_26" fill="#0fbd1d" d="m62.05132,35.27422c-0.515,0 -1.025,-0.222 -1.378,-0.65c-0.625,-0.761 -0.515,-1.884 0.245,-2.509c5.267,-4.33 11.582,-7.333 18.263,-8.686c0.963,-0.19 1.904,0.429 2.1,1.394c0.195,0.965 -0.428,1.905 -1.393,2.1c-6.111,1.237 -11.889,3.984 -16.706,7.946c-0.332,0.272 -0.733,0.405 -1.131,0.405"></path>
              </g>
            </g>
            <g id="svg_27" opacity="0.39999">
              <g id="svg_28" clip-path="url(#clip_40)">
                <path id="svg_29" fill="#0fbd1d" d="m79.93992,20.07111c-0.285,0 -0.575,-0.068 -0.844,-0.214c-4.8,-2.587 -9.972,-4.257 -15.376,-4.961c-0.975,-0.128 -1.664,-1.022 -1.537,-1.998c0.127,-0.975 1.008,-1.665 1.998,-1.537c5.836,0.762 11.423,2.564 16.607,5.359c0.866,0.467 1.19,1.548 0.722,2.414c-0.321,0.598 -0.935,0.937 -1.57,0.937"></path>
              </g>
            </g>
            <g id="svg_30" opacity="0.39999">
              <g id="svg_31" clip-path="url(#clip_41)">
                <path id="svg_32" fill="#0fbd1d" d="m123.33932,32.92661c-0.356,0 -0.717,-0.106 -1.029,-0.329c-7.188,-5.101 -16.552,-7.279 -28.641,-6.672c-0.945,0.059 -1.82,-0.706 -1.869,-1.689c-0.05,-0.983 0.706,-1.821 1.689,-1.871c12.916,-0.645 23.018,1.744 30.883,7.326c0.803,0.569 0.991,1.681 0.422,2.484c-0.348,0.489 -0.896,0.751 -1.455,0.751"></path>
              </g>
            </g>
            <path id="svg_33" fill="#036b20" d="m96.26612,18.15513c-1.78,-2.863 -5.227,-3.781 -8.454,-3.79c-3.803,-0.183 -8.018,0.62 -9.9,4.344c-1.798,3.557 0.188,7.386 3.811,8.592c2.036,0.677 4.225,0.913 6.361,0.73c2.08,-0.178 4.356,-0.499 6.24,-1.451c2.958,-1.495 3.674,-5.203 2.18,-8.011c-0.075,-0.143 -0.155,-0.28 -0.238,-0.414"></path>
            <path id="svg_34" fill="#05531a" d="m90.48292,19.95203c-0.169,-0.559 -0.548,-1.062 -1.063,-1.344c-0.375,-0.205 -0.786,-0.319 -1.206,-0.382c-0.879,-0.13 -1.758,-0.122 -2.622,0.129c-0.97,0.283 -1.925,0.925 -2.197,1.955c-0.018,0.071 -0.023,0.141 -0.035,0.21c-0.043,0.115 -0.076,0.233 -0.097,0.355c-0.122,0.701 0.019,1.365 0.506,1.9c0.303,0.332 0.76,0.57 1.198,0.656c0.689,0.134 1.454,0.186 2.154,0.13c0.947,-0.074 1.804,-0.338 2.54,-0.957c0.745,-0.627 1.107,-1.712 0.822,-2.652"></path>
            <path id="svg_35" fill="current" d="m56.63522,47.40611c-0.938,0 -1.837,-0.53 -2.264,-1.436c-0.588,-1.249 -0.052,-2.738 1.197,-3.327c22.135,-10.432 48.684,-10.687 71.017,-0.683c1.26,0.564 1.823,2.043 1.259,3.303c-0.563,1.26 -2.044,1.826 -3.304,1.259c-21.02,-9.414 -46.007,-9.176 -66.842,0.645c-0.343,0.162 -0.707,0.239 -1.063,0.239"></path>
            <path id="svg_36" fill="rgba(255,7,7,0.2)" d="m121.76612,101.38951c1.275,-0.749 2.982,-1.092 4.42,-1.206c0.854,-0.067 1.711,-0.048 2.562,0.026c2.342,-0.052 4.775,0.707 6.18,2.625c1.116,1.524 0.803,3.501 -0.34,4.895c-1.019,1.244 -2.582,1.598 -4.097,1.77c-0.877,0.1 -1.764,0.123 -2.645,0.09c-2.719,-0.103 -6.734,-0.762 -7.718,-3.775c-0.713,-2.184 0.181,-3.57 1.638,-4.425"></path>
            <path id="svg_37" fill="rgba(255,7,7,0.2)" d="m57.61382,101.38951c-1.275,-0.749 -2.982,-1.092 -4.421,-1.206c-0.854,-0.067 -1.71,-0.048 -2.561,0.026c-2.343,-0.052 -4.775,0.707 -6.18,2.625c-1.117,1.524 -0.803,3.501 0.339,4.895c1.02,1.244 2.582,1.598 4.098,1.77c0.877,0.1 1.763,0.123 2.645,0.09c2.718,-0.103 6.733,-0.762 7.718,-3.775c0.713,-2.184 -0.182,-3.57 -1.638,-4.425"></path>
            <path id="svg_38" fill="#232020" d="m61.29443,100.14041c0,0.001 0,0.001 -0.001,0.001c0.004,-0.002 0.008,-0.004 0.012,-0.007c-0.004,0.002 -0.007,0.004 -0.011,0.006"></path>
            <path id="svg_39" fill="#232020" d="m69.23002,100.60721c0.019,-3.214 -3.278,-6.548 -7.612,-6.558c-6.23,-0.014 -10.054,5.491 -6.674,9.597c2.698,3.28 9.227,3.305 12.506,0.557c1.227,-1.031 1.772,-2.304 1.78,-3.596"></path>
            <path id="svg_40" fill="#232020" d="m116.17922,100.14041c0,0.001 0,0.001 -0.001,0.001c0.005,-0.002 0.009,-0.004 0.013,-0.007l-0.001,0c-0.003,0.002 -0.007,0.004 -0.011,0.006"></path>
            <path id="svg_41" fill="#232020" d="m124.11472,100.60721c0.02,-3.214 -3.277,-6.548 -7.612,-6.558c-6.23,-0.014 -10.053,5.491 -6.674,9.597c2.699,3.28 9.227,3.305 12.506,0.557c1.228,-1.031 1.772,-2.304 1.78,-3.596"></path>
            <path id="svg_42" fill="#232020" d="m86.46043,119.08571c-5.971,0 -12.371,-0.298 -18.652,-1.353c-1.634,-0.275 -2.737,-1.822 -2.462,-3.456c0.275,-1.633 1.825,-2.726 3.456,-2.462c8.511,1.429 17.077,1.392 25.071,1.14l1.651,-0.052c4.417,-0.133 8.985,-0.271 13.337,-0.869c1.649,-0.231 3.156,0.922 3.38,2.564c0.226,1.641 -0.922,3.155 -2.563,3.38c-4.668,0.641 -9.399,0.785 -13.972,0.923l-1.642,0.05c-2.419,0.077 -4.97,0.135 -7.604,0.135"></path>
          </g>
        </g>
      </g>
    </g>
  </symbol>
  <symbol xmlns="http://www.w3.org/2000/svg" xmlnsUndefined="http://www.inkscape.org/namespaces/inkscape" version="1.1" viewBox="0 0 207 183" id="charactor7">
    <defs>
      <clipPath id="clip_42">
        <path id="svg_1" d="m-74.1163,-96.50929l360,0l0,360l-360,0l0,-360z"></path>
      </clipPath>
      <clipPath id="clip_43">
        <path id="svg_2" d="m104.4997,27.46671l26.544,0l0,-15.031l-26.544,0l0,15.031z"></path>
      </clipPath>
      <clipPath id="clip_44">
        <path id="svg_3" d="m57.1717,49.14071l29.53,0l0,-16.667l-29.53,0l0,16.667z"></path>
      </clipPath>
      <clipPath id="clip_45">
        <path id="svg_4" d="m59.8387,27.81271l27.434,0l0,-12.239l-27.434,0l0,12.239z"></path>
      </clipPath>
      <clipPath id="clip_46">
        <path id="svg_5" d="m101.4047,45.84771l46.751,0l0,-14.96l-46.751,0l0,14.96z"></path>
      </clipPath>
      <clipPath id="clip_47">
        <path id="svg_6" d="m61.3057,107.84771l23.006,0l0,-16.448l-23.006,0l0,16.448z"></path>
      </clipPath>
      <clipPath id="clip_48">
        <path id="svg_7" d="m119.3357,107.84771l23.005,0l0,-16.448l-23.005,0l0,16.448z"></path>
      </clipPath>
      <clipPath id="clip_49">
        <path id="svg_8" d="m16.2139,102.61171l14.4938,0l0,-50.455l-14.4938,0l0,50.455z"></path>
      </clipPath>
      <clipPath id="clip_50">
        <path id="svg_9" d="m15.6146,117.60971l7.2008,0l0,-7.201l-7.2008,0l0,7.201z"></path>
      </clipPath>
    </defs>
    <g>
      <title>Layer 1</title>
      <g id="svg_10">
        <g id="svg_11">
          <g id="svg_12" clip-path="url(#clip_42)">
            <path id="svg_13" fill="current" d="m205.27429,77.063c-5.269,-28.636 -22.227,-57.054 -51.197,-63.319c0,0 -19.241,-13.744 -47.644,-13.744c-19.806,0 -39.516,4.306 -52.794,15.898c-2.246,1.961 -10.756,0.496 -13.895,1.776c-30.674,12.513 -39.803,54.44 -39.744,83.878c0.07,35.019 17.611,63.347 51.747,73.916c29.163,9.03 62.922,10.926 92.324,1.996c18.831,-5.718 33.836,-11.701 45.777,-28.024c10.379,-14.187 16.381,-31.57 17.125,-49.121c0.316,-7.463 -0.248,-15.367 -1.699,-23.256"></path>
            <path id="svg_14" fill="current" d="m62.2094,38.3746c-0.721,0 -1.437,-0.311 -1.931,-0.911c-4.224,-5.128 -10.18,-8.444 -17.704,-9.856c-1.357,-0.254 -2.251,-1.56 -1.996,-2.918c0.255,-1.356 1.56,-2.248 2.918,-1.996c8.585,1.611 15.722,5.618 20.641,11.592c0.878,1.066 0.726,2.641 -0.34,3.519c-0.466,0.383 -1.028,0.57 -1.588,0.57"></path>
            <path id="svg_15" fill="current" d="m130.8378,38.3746c-0.56,0 -1.122,-0.187 -1.588,-0.57c-1.066,-0.877 -1.219,-2.453 -0.341,-3.519c11.914,-14.471 32.157,-14.637 33.012,-14.637c1.381,0 2.5,1.12 2.5,2.5c0,1.38 -1.117,2.498 -2.497,2.5c-0.187,0 -18.764,0.195 -29.155,12.815c-0.494,0.6 -1.21,0.911 -1.931,0.911"></path>
            <path id="svg_16" fill="#0eab24" d="m157.6552,39.21931c-0.573,-0.969 -1.21,-1.9 -1.911,-2.785c-4.705,-5.933 -10.819,-8.283 -18.145,-8.027c3.321,-2.754 5.552,-6.546 6.725,-10.669c0.707,-2.484 1.926,-6.863 0.704,-9.347c-2.177,-4.424 -11.129,-3.681 -15.199,-3.892c-7.692,-0.399 -15.659,0.451 -22.709,3.723c-5.704,2.646 -7.805,6.931 -10.295,9.892c-4.644,-6.056 -14.75,-7.277 -21.193,-8.076c-8.657,-1.07 -36.442,-2.351 -29.26,13.868c2.078,4.692 6.232,8.272 10.939,10.179c-2.535,0.836 -5.259,2.077 -7.987,3.944c-3.737,2.558 -5.373,6.806 -5.549,11.202c-0.166,4.142 0.151,9.216 4.792,10.669c4.632,1.45 10.162,-0.129 14.786,-0.952c6.29,-1.12 12.561,-2.346 18.806,-3.696c17.431,-3.769 17.358,-13.522 17.359,-13.521c4.994,6.439 13.551,9.674 21.091,11.947c8.428,2.542 17.177,4.018 25.913,4.999c4.644,0.521 15.375,0.167 14.918,-6.898c-0.286,-4.403 -1.546,-8.771 -3.785,-12.56"></path>
            <g id="svg_17" opacity="0.39999">
              <g id="svg_18" clip-path="url(#clip_43)">
                <path id="svg_19" fill="#0eab24" d="m106.9989,27.4664c-0.608,0 -1.219,-0.221 -1.7,-0.668c-1.012,-0.939 -1.071,-2.521 -0.131,-3.533c1.737,-1.871 3.901,-3.078 5.793,-4.064c5.381,-2.799 11.07,-5.045 16.911,-6.673c1.332,-0.373 2.709,0.409 3.079,1.738c0.371,1.33 -0.407,2.709 -1.737,3.079c-5.507,1.534 -10.871,3.651 -15.944,6.292c-1.521,0.791 -3.244,1.744 -4.438,3.03c-0.492,0.53 -1.162,0.799 -1.833,0.799"></path>
              </g>
            </g>
            <g id="svg_20" opacity="0.39999">
              <g id="svg_21" clip-path="url(#clip_44)">
                <path id="svg_22" fill="#0eab24" d="m59.67369,49.14021c-0.722,0 -1.438,-0.312 -1.933,-0.912c-0.877,-1.067 -0.723,-2.643 0.344,-3.52c7.389,-6.073 16.248,-10.286 25.621,-12.183c1.355,-0.278 2.673,0.601 2.946,1.954c0.274,1.353 -0.601,2.673 -1.954,2.946c-8.574,1.736 -16.679,5.59 -23.438,11.147c-0.465,0.381 -1.027,0.568 -1.586,0.568"></path>
              </g>
            </g>
            <g id="svg_23" opacity="0.39999">
              <g id="svg_24" clip-path="url(#clip_45)">
                <path id="svg_25" fill="#0eab24" d="m84.7699,27.813c-0.401,0 -0.807,-0.096 -1.185,-0.3c-6.731,-3.629 -13.987,-5.971 -21.569,-6.961c-1.37,-0.177 -2.334,-1.432 -2.156,-2.802c0.179,-1.369 1.432,-2.336 2.803,-2.155c8.188,1.069 16.026,3.598 23.295,7.518c1.216,0.655 1.67,2.172 1.015,3.387c-0.453,0.837 -1.314,1.313 -2.203,1.313"></path>
              </g>
            </g>
            <g id="svg_26" opacity="0.39999">
              <g id="svg_27" clip-path="url(#clip_46)">
                <path id="svg_28" fill="#0eab24" d="m145.6532,45.84721c-0.501,0 -1.006,-0.149 -1.445,-0.461c-10.084,-7.156 -23.223,-10.223 -40.177,-9.358c-1.382,0.064 -2.553,-0.992 -2.623,-2.37c-0.07,-1.379 0.991,-2.554 2.37,-2.624c18.118,-0.913 32.287,2.443 43.324,10.274c1.126,0.8 1.391,2.36 0.592,3.486c-0.487,0.687 -1.259,1.053 -2.041,1.053"></path>
              </g>
            </g>
            <path id="svg_29" fill="#036b20" d="m109.50279,25.7496c-2.471,-3.973 -7.251,-5.244 -11.727,-5.257c-5.275,-0.254 -11.123,0.861 -13.733,6.026c-2.494,4.934 0.261,10.246 5.287,11.918c2.824,0.94 5.86,1.265 8.823,1.012c2.886,-0.246 6.042,-0.691 8.656,-2.012c4.103,-2.075 5.096,-7.218 3.024,-11.113c-0.104,-0.197 -0.215,-0.388 -0.33,-0.574"></path>
            <path id="svg_30" fill="#05531a" d="m101.48039,28.24181c-0.234,-0.774 -0.759,-1.472 -1.475,-1.863c-0.52,-0.284 -1.09,-0.444 -1.671,-0.53c-1.222,-0.182 -2.441,-0.17 -3.638,0.179c-1.346,0.392 -2.672,1.282 -3.048,2.711c-0.025,0.098 -0.032,0.195 -0.048,0.292c-0.06,0.157 -0.106,0.321 -0.135,0.491c-0.169,0.974 0.026,1.895 0.702,2.637c0.419,0.46 1.054,0.789 1.663,0.908c0.954,0.187 2.015,0.259 2.986,0.183c1.313,-0.104 2.503,-0.471 3.523,-1.329c1.033,-0.869 1.537,-2.374 1.141,-3.679"></path>
            <path id="svg_31" fill="current" d="m57.601,65.29161c-0.907,0 -1.782,-0.495 -2.225,-1.357c-0.631,-1.228 -0.148,-2.736 1.079,-3.367c0.791,-0.407 19.657,-9.962 46.03,-10.493c8.466,-0.175 29.956,0.455 46.522,10.009c1.196,0.69 1.606,2.219 0.917,3.415c-0.691,1.196 -2.22,1.606 -3.415,0.917c-15.478,-8.927 -35.872,-9.506 -43.922,-9.343c-25.228,0.51 -43.661,9.847 -43.844,9.941c-0.366,0.188 -0.757,0.278 -1.142,0.278"></path>
            <path id="svg_32" fill="rgba(255,7,7,0.2)" d="m142.08189,107.69681c1.275,-0.749 2.982,-1.092 4.42,-1.206c0.854,-0.067 1.711,-0.048 2.562,0.026c2.342,-0.052 4.775,0.708 6.18,2.625c1.116,1.524 0.803,3.501 -0.34,4.895c-1.019,1.245 -2.581,1.598 -4.097,1.77c-0.877,0.1 -1.764,0.123 -2.645,0.09c-2.719,-0.103 -6.733,-0.762 -7.718,-3.775c-0.713,-2.184 0.181,-3.57 1.638,-4.425"></path>
            <path id="svg_33" fill="rgba(255,7,7,0.2)" d="m65.935,107.69681c-1.275,-0.749 -2.982,-1.092 -4.42,-1.206c-0.855,-0.067 -1.71,-0.048 -2.562,0.026c-2.343,-0.052 -4.775,0.708 -6.18,2.625c-1.117,1.524 -0.803,3.501 0.34,4.895c1.02,1.245 2.581,1.598 4.097,1.77c0.877,0.1 1.764,0.123 2.645,0.09c2.718,-0.103 6.734,-0.762 7.718,-3.775c0.713,-2.184 -0.181,-3.57 -1.638,-4.425"></path>
            <path id="svg_34" fill="#232020" d="m151.3788,92.07771c0.049,-2.11 -1.408,-4.194 -3.67,-4.305c-5.81,-0.283 -11.635,-0.261 -17.443,0.061c-3.064,0.171 -6.129,0.409 -9.177,0.761c-2.004,0.231 -5.102,0.008 -6.795,1.169c-3.648,2.5 -0.893,10.423 0.651,13.461c4.039,7.945 13.756,12.329 22.394,9.991c3.983,-1.079 7.38,-3.867 9.67,-7.3c2.632,-3.945 4.261,-9.09 4.37,-13.838"></path>
            <path id="svg_35" fill="#232020" d="m55.68199,92.41171c-0.083,-2.11 1.338,-4.218 3.598,-4.365c5.805,-0.381 11.629,-0.456 17.442,-0.23c3.065,0.119 6.134,0.307 9.188,0.609c2.007,0.198 5.102,-0.076 6.813,1.055c3.689,2.439 1.066,10.408 -0.427,13.471c-3.906,8.011 -13.549,12.555 -22.225,10.36c-4,-1.011 -7.443,-3.743 -9.79,-7.137c-2.697,-3.902 -4.411,-9.019 -4.599,-13.763"></path>
            <path id="svg_36" fill="#232020" d="m118.1767,94.5298c-7.427,-6.476 -21.269,-7.767 -28.943,-1.011c-3.458,3.046 1.844,7.817 5.282,4.79c4.636,-4.082 14.427,-2.386 18.684,1.326c3.461,3.019 8.446,-2.081 4.977,-5.105"></path>
            <path id="svg_37" fill="#232020" d="m115.7607,115.1011c-4.621,5.792 -16.342,5.644 -22.965,4.579c-5.037,-0.809 -7.204,6.898 -2.127,7.714c9.314,1.497 24.216,1.552 30.749,-6.636c3.18,-3.985 -2.445,-9.682 -5.657,-5.657"></path>
            <g id="svg_38" opacity="0.89999">
              <g id="svg_39" clip-path="url(#clip_47)">
                <path id="svg_40" fill="#ffffff" d="m72.7314,92.61771c-0.757,-1.176 -2.184,-1.555 -3.42,-0.897c-2.578,1.372 -4.982,3.001 -7.273,4.808c-0.469,0.369 -0.732,1.202 -0.732,1.768c0,0.613 0.272,1.345 0.732,1.767c0.476,0.438 1.102,0.763 1.768,0.733c0.221,-0.03 0.443,-0.06 0.664,-0.089c0.419,-0.117 0.782,-0.33 1.092,-0.634c1.977,-1.515 4.073,-2.865 6.273,-4.036c1.155,-0.615 1.607,-2.316 0.896,-3.42"></path>
                <path id="svg_41" fill="#ffffff" d="m83.96519,96.46931c-0.715,-1.108 -2.236,-1.641 -3.42,-0.896c-4.044,2.537 -8.087,5.075 -12.13,7.613c-1.107,0.694 -1.644,2.261 -0.897,3.42c0.715,1.109 2.236,1.64 3.421,0.897c4.043,-2.538 8.086,-5.076 12.129,-7.613c1.107,-0.695 1.645,-2.261 0.897,-3.421"></path>
              </g>
            </g>
            <g id="svg_42" opacity="0.89999">
              <g id="svg_43" clip-path="url(#clip_48)">
                <path id="svg_44" fill="#ffffff" d="m130.7607,92.61771c-0.757,-1.176 -2.184,-1.555 -3.42,-0.897c-2.578,1.372 -4.981,3.001 -7.273,4.808c-0.468,0.369 -0.732,1.202 -0.732,1.768c0,0.613 0.272,1.345 0.732,1.767c0.476,0.438 1.102,0.763 1.768,0.733c0.222,-0.03 0.443,-0.06 0.664,-0.089c0.419,-0.117 0.782,-0.33 1.092,-0.634c1.977,-1.515 4.073,-2.865 6.273,-4.036c1.156,-0.615 1.608,-2.316 0.896,-3.42"></path>
                <path id="svg_45" fill="#ffffff" d="m141.995,96.46931c-0.715,-1.108 -2.235,-1.641 -3.421,-0.896c-4.043,2.537 -8.086,5.075 -12.129,7.613c-1.106,0.694 -1.644,2.261 -0.897,3.42c0.716,1.109 2.236,1.64 3.421,0.897c4.043,-2.538 8.086,-5.076 12.129,-7.613c1.107,-0.695 1.644,-2.261 0.897,-3.421"></path>
              </g>
            </g>
            <g id="svg_46" opacity="0.39999">
              <g id="svg_47" clip-path="url(#clip_49)">
                <path id="svg_48" fill="#ffffff" d="m19.6552,102.61191c-1.508,0 -2.807,-1.134 -2.978,-2.668c-1.72,-15.436 1.407,-32.693 8.365,-46.163c0.759,-1.471 2.566,-2.05 4.042,-1.288c1.471,0.76 2.049,2.569 1.288,4.042c-6.436,12.46 -9.326,28.438 -7.732,42.745c0.184,1.646 -1.003,3.13 -2.649,3.313c-0.112,0.013 -0.225,0.019 -0.336,0.019"></path>
              </g>
            </g>
            <g id="svg_49" opacity="0.39999">
              <g id="svg_50" clip-path="url(#clip_50)">
                <path id="svg_51" fill="#ffffff" d="m22.8046,113.7339c0.152,1.982 -1.332,3.713 -3.314,3.865c-1.983,0.152 -3.713,-1.333 -3.865,-3.315c-0.152,-1.983 1.332,-3.713 3.314,-3.864c1.983,-0.153 3.713,1.332 3.865,3.314"></path>
              </g>
            </g>
          </g>
        </g>
      </g>
    </g>
  </symbol>
  <symbol xmlns="http://www.w3.org/2000/svg" xmlnsUndefined="http://www.inkscape.org/namespaces/inkscape" version="1.1" viewBox="0 0 206 162" id="charactor8">
    <defs>
      <clipPath id="clip_51">
        <path id="svg_1" d="m-75.14675,-100.2662l360,0l0,360l-360,0l0,-360z"></path>
      </clipPath>
      <clipPath id="clip_52">
        <path id="svg_2" d="m110.28525,28.2978l22.117,0l0,-12.522l-22.117,0l0,12.522z"></path>
      </clipPath>
      <clipPath id="clip_53">
        <path id="svg_3" d="m70.85225,46.3558l24.604,0l0,-13.884l-24.604,0l0,13.884z"></path>
      </clipPath>
      <clipPath id="clip_54">
        <path id="svg_4" d="m73.07325,28.5868l22.857,0l0,-10.198l-22.857,0l0,10.198z"></path>
      </clipPath>
      <clipPath id="clip_55">
        <path id="svg_5" d="m107.70725,43.6128l38.952,0l0,-12.467l-38.952,0l0,12.467z"></path>
      </clipPath>
      <clipPath id="clip_56">
        <path id="svg_6" d="m20.02345,103.6848l11.6698,0l0,-50.978l-11.6698,0l0,50.978z"></path>
      </clipPath>
      <clipPath id="clip_57">
        <path id="svg_7" d="m24.28555,114.8288l7.2017,0l0,-7.201l-7.2017,0l0,7.201z"></path>
      </clipPath>
    </defs>
    <g>
      <title>Layer 1</title>
      <g id="svg_8">
        <g id="svg_9">
          <g id="svg_10" clip-path="url(#clip_51)">
            <path id="svg_11" fill="current" d="m205.72724,87.855c0.743,-10.199 -0.054,-20.54 -2.133,-30.528c-2.882,-13.849 -9.804,-26.761 -21.541,-35.025c-3.239,-2.28 -6.846,-3.943 -10.568,-5.263c-3.332,-1.183 -9.513,-1.333 -12.259,-3.295c-0.003,-0.002 -19.242,-13.744 -47.644,-13.744c-19.805,0 -39.515,4.306 -52.792,15.897c-1.882,1.644 -11.417,1.15 -14.167,1.781c-35.018,8.038 -46.99,44.122 -44.246,76.574c1.865,22.04 13.282,45.786 33.612,56.244c8.551,4.399 18.011,6.726 27.47,8.463c16.286,2.992 32.884,3.107 49.385,3.286c30.279,0.328 63.972,-9.184 82.443,-35.307c3.669,-5.19 6.292,-11.065 8.239,-17.116c2.291,-7.119 3.658,-14.505 4.201,-21.967"></path>
            <path id="svg_12" fill="current" d="m67.35815,38.3745c-0.721,0 -1.437,-0.311 -1.931,-0.911c-10.308,-12.518 -28.262,-10.433 -28.44,-10.41c-1.369,0.175 -2.62,-0.8 -2.791,-2.17c-0.172,-1.37 0.8,-2.62 2.17,-2.791c0.849,-0.108 20.883,-2.427 32.921,12.193c0.878,1.066 0.725,2.641 -0.341,3.519c-0.465,0.383 -1.028,0.57 -1.588,0.57"></path>
            <path id="svg_13" fill="current" d="m135.98705,38.3745c-0.56,0 -1.122,-0.187 -1.588,-0.57c-1.066,-0.877 -1.219,-2.453 -0.341,-3.519c11.914,-14.471 32.157,-14.637 33.012,-14.637c1.381,0 2.5,1.12 2.5,2.5c0,1.38 -1.119,2.499 -2.499,2.5c-0.288,0.002 -18.79,0.23 -29.153,12.815c-0.494,0.6 -1.21,0.911 -1.931,0.911"></path>
            <path id="svg_14" fill="#00b477" d="m154.57395,38.09031c-0.477,-0.808 -1.008,-1.583 -1.592,-2.32c-3.92,-4.944 -9.014,-6.903 -15.118,-6.688c2.767,-2.296 4.625,-5.455 5.604,-8.89c0.588,-2.07 1.604,-5.718 0.585,-7.789c-1.813,-3.685 -9.272,-3.066 -12.664,-3.242c-6.408,-0.333 -13.046,0.376 -18.92,3.102c-4.753,2.205 -6.503,5.774 -8.579,8.242c-3.869,-5.046 -12.289,-6.062 -17.658,-6.728c-7.213,-0.892 -30.363,-1.96 -24.379,11.554c1.732,3.909 5.193,6.893 9.115,8.482c-2.113,0.696 -4.382,1.73 -6.656,3.286c-3.113,2.131 -4.476,5.671 -4.623,9.333c-0.138,3.452 0.126,7.679 3.992,8.889c3.861,1.208 8.468,-0.107 12.321,-0.793c5.24,-0.932 10.466,-1.955 15.669,-3.08c14.523,-3.14 14.464,-11.266 14.464,-11.265c4.161,5.365 11.291,8.059 17.573,9.955c7.022,2.117 14.311,3.347 21.591,4.165c3.869,0.434 12.81,0.139 12.429,-5.748c-0.238,-3.668 -1.288,-7.308 -3.154,-10.465"></path>
            <g id="svg_15" opacity="0.39999">
              <g id="svg_16" clip-path="url(#clip_52)">
                <path id="svg_17" fill="#00b477" d="m112.36884,28.2974c-0.508,0 -1.017,-0.185 -1.417,-0.557c-0.844,-0.783 -0.893,-2.1 -0.109,-2.943c1.446,-1.558 3.249,-2.564 4.826,-3.386c4.483,-2.333 9.223,-4.204 14.091,-5.559c1.108,-0.308 2.256,0.34 2.565,1.448c0.309,1.108 -0.34,2.257 -1.448,2.565c-4.588,1.278 -9.058,3.041 -13.284,5.242c-1.268,0.66 -2.703,1.454 -3.698,2.524c-0.41,0.442 -0.967,0.666 -1.526,0.666"></path>
              </g>
            </g>
            <g id="svg_18" opacity="0.39999">
              <g id="svg_19" clip-path="url(#clip_53)">
                <path id="svg_20" fill="#00b477" d="m72.93624,46.3559c-0.602,0 -1.198,-0.259 -1.61,-0.761c-0.731,-0.888 -0.602,-2.201 0.287,-2.931c6.155,-5.06 13.537,-8.571 21.346,-10.152c1.13,-0.222 2.227,0.501 2.456,1.629c0.227,1.127 -0.501,2.227 -1.629,2.455c-7.144,1.446 -13.897,4.657 -19.529,9.286c-0.386,0.319 -0.855,0.474 -1.321,0.474"></path>
              </g>
            </g>
            <g id="svg_21" opacity="0.39999">
              <g id="svg_22" clip-path="url(#clip_54)">
                <path id="svg_23" fill="#00b477" d="m93.84545,28.5864c-0.334,0 -0.672,-0.08 -0.986,-0.25c-5.609,-3.023 -11.655,-4.975 -17.972,-5.8c-1.141,-0.149 -1.945,-1.194 -1.796,-2.335c0.149,-1.141 1.192,-1.943 2.335,-1.796c6.823,0.891 13.354,2.999 19.409,6.265c1.013,0.546 1.392,1.809 0.845,2.821c-0.376,0.699 -1.094,1.095 -1.835,1.095"></path>
              </g>
            </g>
            <g id="svg_24" opacity="0.39999">
              <g id="svg_25" clip-path="url(#clip_55)">
                <path id="svg_26" fill="#00b477" d="m144.57395,43.6128c-0.417,0 -0.838,-0.125 -1.203,-0.385c-8.401,-5.961 -19.346,-8.512 -33.476,-7.798c-1.14,0.057 -2.128,-0.824 -2.185,-1.974c-0.059,-1.15 0.826,-2.128 1.974,-2.186c15.094,-0.768 26.904,2.036 36.097,8.562c0.939,0.665 1.159,1.966 0.493,2.903c-0.405,0.572 -1.048,0.878 -1.7,0.878"></path>
              </g>
            </g>
            <path id="svg_27" fill="#0ba17a" d="m114.45385,26.8677c-2.059,-3.311 -6.042,-4.37 -9.771,-4.381c-4.396,-0.211 -9.267,0.718 -11.443,5.021c-2.078,4.112 0.218,8.537 4.405,9.93c2.354,0.784 4.883,1.055 7.352,0.844c2.405,-0.205 5.034,-0.576 7.212,-1.678c3.419,-1.727 4.247,-6.013 2.52,-9.258c-0.088,-0.165 -0.179,-0.324 -0.275,-0.478"></path>
            <path id="svg_28" fill="#00987d" d="m107.76925,28.94381c-0.195,-0.646 -0.633,-1.227 -1.229,-1.553c-0.433,-0.236 -0.908,-0.369 -1.393,-0.441c-1.017,-0.152 -2.033,-0.141 -3.03,0.149c-1.121,0.326 -2.226,1.069 -2.54,2.26c-0.021,0.08 -0.027,0.161 -0.04,0.242c-0.05,0.132 -0.088,0.269 -0.113,0.409c-0.14,0.812 0.022,1.579 0.586,2.198c0.349,0.382 0.878,0.657 1.385,0.757c0.795,0.155 1.679,0.215 2.488,0.151c1.094,-0.086 2.085,-0.392 2.936,-1.107c0.86,-0.723 1.279,-1.978 0.95,-3.065"></path>
            <path id="svg_29" fill="current" d="m62.74975,61.53471c-0.907,0 -1.781,-0.495 -2.225,-1.357c-0.631,-1.228 -0.148,-2.736 1.079,-3.367c0.791,-0.407 19.657,-9.962 46.03,-10.493c8.48,-0.183 29.956,0.455 46.522,10.009c1.197,0.69 1.607,2.219 0.917,3.415c-0.69,1.196 -2.219,1.606 -3.415,0.917c-15.477,-8.927 -35.871,-9.509 -43.923,-9.343c-25.227,0.51 -43.66,9.847 -43.843,9.941c-0.367,0.188 -0.757,0.278 -1.142,0.278"></path>
            <g id="svg_30" opacity="0.39999">
              <g id="svg_31" clip-path="url(#clip_56)">
                <path id="svg_32" fill="rgba(255,255,255,0.349)" d="m24.45185,103.68501c-1.402,0 -2.656,-0.988 -2.939,-2.416c-3.028,-15.233 -1.38,-32.694 4.408,-46.707c0.632,-1.531 2.385,-2.261 3.918,-1.627c1.531,0.632 2.259,2.387 1.627,3.918c-5.354,12.961 -6.874,29.128 -4.069,43.246c0.324,1.625 -0.732,3.204 -2.357,3.527c-0.197,0.039 -0.395,0.059 -0.588,0.059"></path>
              </g>
            </g>
            <g id="svg_33" opacity="0.39999">
              <g id="svg_34" clip-path="url(#clip_57)">
                <path id="svg_35" fill="rgba(255,255,255,0.349)" d="m31.43915,110.6489c0.32,1.962 -1.011,3.813 -2.974,4.133c-1.962,0.319 -3.812,-1.012 -4.132,-2.975c-0.32,-1.962 1.011,-3.812 2.974,-4.132c1.962,-0.32 3.813,1.011 4.132,2.974"></path>
              </g>
            </g>
            <path id="svg_36" fill="rgba(255,198,198,0.349)" d="m73.36005,92.853c-4.055,-1.62 -9.125,-1.141 -12.818,1.121c-8.391,5.139 -6.219,17.356 3.02,20.136c1.886,0.567 3.885,0.743 5.84,0.506c8.301,-1.007 13.144,-8.882 9.668,-16.463c-1.183,-2.578 -3.261,-4.321 -5.71,-5.3"></path>
            <path id="svg_37" fill="rgba(255,198,198,0.349)" d="m133.96845,98.15281c-3.476,7.581 1.367,15.456 9.668,16.463c1.955,0.237 3.954,0.061 5.84,-0.506c9.239,-2.78 11.411,-14.997 3.02,-20.136c-3.693,-2.261 -8.763,-2.741 -12.818,-1.121c-2.449,0.979 -4.527,2.722 -5.71,5.3"></path>
            <path id="svg_38" fill="#232020" d="m79.54275,97.0415c0,0 0,0.001 -0.001,0.001c0.005,-0.003 0.009,-0.006 0.013,-0.009l-0.001,0c-0.003,0.003 -0.007,0.005 -0.011,0.008"></path>
            <path id="svg_39" fill="#232020" d="m87.47825,97.6323c0.02,-4.075 -3.277,-8.302 -7.612,-8.315c-6.23,-0.019 -10.053,6.961 -6.674,12.169c2.699,4.159 9.227,4.191 12.506,0.706c1.228,-1.307 1.772,-2.921 1.78,-4.56"></path>
            <path id="svg_40" fill="#232020" d="m125.77415,102.1919c3.277,3.485 9.807,3.453 12.506,-0.706c3.379,-5.207 -0.445,-12.188 -6.675,-12.169c-4.334,0.014 -7.631,4.24 -7.611,8.315c0.008,1.639 0.551,3.253 1.78,4.56"></path>
            <path id="svg_41" fill="#232020" d="m99.46944,115.61181c-0.19,2.306 0.219,4.416 1.068,5.509c0.703,0.905 2.072,1.518 3.661,1.641c2.974,0.233 6.825,-0.365 8.095,-1.924c1.961,-2.408 1.589,-6.97 -0.055,-9.44c-1.196,-1.795 -3.044,-3.013 -5.073,-3.342c-1.304,-0.208 -3.255,-0.149 -5.165,1.34c-1.288,1.004 -2.305,3.502 -2.531,6.216m5.937,13.192c-0.766,0 -1.354,-0.035 -1.672,-0.059c-3.293,-0.256 -6.185,-1.693 -7.933,-3.941c-1.788,-2.299 -2.631,-5.83 -2.311,-9.688c0.372,-4.482 2.174,-8.389 4.821,-10.452c2.821,-2.199 6.304,-3.098 9.814,-2.53c3.671,0.595 6.99,2.76 9.107,5.94c2.854,4.287 3.556,11.836 -0.287,16.554c-2.979,3.654 -8.582,4.176 -11.539,4.176"></path>
          </g>
        </g>
      </g>
    </g>
  </symbol>
  <symbol xmlns="http://www.w3.org/2000/svg" xmlnsUndefined="http://www.inkscape.org/namespaces/inkscape" version="1.1" viewBox="0 0 265 198" id="charactor9">
    <defs>
      <clipPath id="clip_58">
        <path id="svg_1" d="m-47.59739,-84.32219l360,0l0,360l-360,0l0,-360z"></path>
      </clipPath>
      <clipPath id="clip_59">
        <path id="svg_2" d="m130.71361,27.46681l26.543,0l0,-15.03l-26.543,0l0,15.03z"></path>
      </clipPath>
      <clipPath id="clip_60">
        <path id="svg_3" d="m83.38461,49.14081l29.53,0l0,-16.666l-29.53,0l0,16.666z"></path>
      </clipPath>
      <clipPath id="clip_61">
        <path id="svg_4" d="m86.05261,27.81381l27.432,0l0,-12.24l-27.432,0l0,12.24z"></path>
      </clipPath>
      <clipPath id="clip_62">
        <path id="svg_5" d="m127.61761,45.84781l46.751,0l0,-14.96l-46.751,0l0,14.96z"></path>
      </clipPath>
      <clipPath id="clip_63">
        <path id="svg_6" d="m209.16361,98.36581l20.651,0l0,-45.671l-20.651,0l0,45.671z"></path>
      </clipPath>
      <clipPath id="clip_64">
        <path id="svg_7" d="m222.67261,112.44581l9.313,0l0,-9.313l-9.313,0l0,9.313z"></path>
      </clipPath>
    </defs>
    <g>
      <title>Layer 1</title>
      <g id="svg_8">
        <g id="svg_9">
          <g id="svg_10" clip-path="url(#clip_58)">
            <path id="svg_11" fill="current" d="m253.61742,84.882c-2.72,-14.926 -8.821,-29.277 -17.982,-41.746c-3.219,-4.381 -6.877,-8.094 -10.874,-11.271c-12.506,-9.938 -28.338,-14.631 -44.472,-18.121c0,0 -19.24,-13.744 -47.643,-13.744c-19.807,0 -39.518,4.307 -52.797,15.901c-10.091,0.47 -28.67,2.213 -45.625,19.773c-6.372,6.6 -12.059,16.494 -15.702,27.683c-2.534,6.144 -4.372,12.558 -5.613,19.084c-1.298,6.827 -3.647,9.009 -6.872,14.811c-6.399,11.512 -7.306,26.716 -4.614,39.365c6.863,32.263 37.408,47.694 67.096,55.159c21.775,5.475 43.798,5.274 66.035,6.261c22.732,1.01 45.946,0.179 67.881,-6.387c20.652,-6.183 41.102,-17.002 52.814,-35.789c12.663,-20.313 13.355,-51.498 -1.632,-70.979"></path>
            <path id="svg_12" fill="current" d="m88.42211,38.37511c-0.721,0 -1.437,-0.311 -1.931,-0.911c-10.31,-12.519 -28.263,-10.433 -28.441,-10.41c-1.367,0.174 -2.62,-0.8 -2.791,-2.17c-0.172,-1.37 0.8,-2.62 2.17,-2.791c0.849,-0.107 20.882,-2.428 32.922,12.193c0.878,1.066 0.725,2.641 -0.341,3.519c-0.465,0.383 -1.028,0.57 -1.588,0.57"></path>
            <path id="svg_13" fill="current" d="m157.05012,38.37511c-0.56,0 -1.122,-0.187 -1.588,-0.57c-1.066,-0.877 -1.219,-2.453 -0.341,-3.519c11.914,-14.471 32.158,-14.637 33.013,-14.637c1.381,0 2.5,1.12 2.5,2.5c0,1.38 -1.119,2.499 -2.499,2.5c-0.288,0.002 -18.791,0.23 -29.154,12.815c-0.494,0.6 -1.21,0.911 -1.931,0.911"></path>
            <path id="svg_14" fill="#0eab24" d="m183.86842,39.21991c-0.573,-0.969 -1.21,-1.9 -1.912,-2.785c-4.704,-5.933 -10.818,-8.284 -18.144,-8.027c3.321,-2.754 5.551,-6.546 6.725,-10.669c0.707,-2.484 1.926,-6.863 0.703,-9.347c-2.176,-4.424 -11.128,-3.681 -15.198,-3.892c-7.693,-0.4 -15.659,0.451 -22.71,3.723c-5.703,2.646 -7.804,6.93 -10.294,9.892c-4.644,-6.056 -14.75,-7.277 -21.193,-8.076c-8.657,-1.07 -36.443,-2.351 -29.26,13.868c2.078,4.692 6.231,8.272 10.938,10.179c-2.535,0.835 -5.258,2.077 -7.986,3.944c-3.737,2.558 -5.373,6.806 -5.55,11.202c-0.166,4.142 0.152,9.216 4.792,10.669c4.633,1.45 10.163,-0.129 14.786,-0.952c6.29,-1.12 12.562,-2.346 18.807,-3.696c17.431,-3.769 17.358,-13.522 17.358,-13.522c4.995,6.44 13.552,9.675 21.092,11.948c8.428,2.542 17.176,4.018 25.912,4.999c4.645,0.521 15.376,0.167 14.919,-6.898c-0.286,-4.403 -1.546,-8.771 -3.785,-12.56"></path>
            <g id="svg_15" opacity="0.39999">
              <g id="svg_16" clip-path="url(#clip_59)">
                <path id="svg_17" fill="#0eab24" d="m133.21221,27.4669c-0.608,0 -1.219,-0.221 -1.7,-0.668c-1.012,-0.939 -1.071,-2.521 -0.131,-3.533c1.737,-1.871 3.901,-3.078 5.793,-4.064c5.381,-2.799 11.07,-5.045 16.911,-6.672c1.332,-0.372 2.709,0.408 3.079,1.737c0.371,1.33 -0.407,2.709 -1.737,3.079c-5.507,1.534 -10.871,3.651 -15.944,6.292c-1.521,0.791 -3.244,1.744 -4.438,3.03c-0.492,0.53 -1.162,0.799 -1.833,0.799"></path>
              </g>
            </g>
            <g id="svg_18" opacity="0.39999">
              <g id="svg_19" clip-path="url(#clip_60)">
                <path id="svg_20" fill="#0eab24" d="m85.88601,49.14081c-0.722,0 -1.437,-0.312 -1.933,-0.912c-0.876,-1.067 -0.722,-2.643 0.344,-3.52c7.39,-6.073 16.249,-10.286 25.621,-12.183c1.346,-0.276 2.672,0.6 2.947,1.954c0.274,1.353 -0.601,2.673 -1.955,2.946c-8.573,1.736 -16.677,5.59 -23.437,11.147c-0.466,0.381 -1.028,0.568 -1.587,0.568"></path>
              </g>
            </g>
            <g id="svg_21" opacity="0.39999">
              <g id="svg_22" clip-path="url(#clip_61)">
                <path id="svg_23" fill="#0eab24" d="m110.9827,27.81361c-0.401,0 -0.808,-0.096 -1.185,-0.3c-6.73,-3.629 -13.987,-5.971 -21.569,-6.961c-1.369,-0.177 -2.334,-1.432 -2.155,-2.801c0.179,-1.37 1.43,-2.339 2.802,-2.156c8.189,1.069 16.027,3.598 23.295,7.518c1.216,0.655 1.669,2.172 1.014,3.387c-0.451,0.837 -1.312,1.313 -2.202,1.313"></path>
              </g>
            </g>
            <g id="svg_24" opacity="0.39999">
              <g id="svg_25" clip-path="url(#clip_62)">
                <path id="svg_26" fill="#0eab24" d="m171.86651,45.84781c-0.501,0 -1.006,-0.149 -1.444,-0.461c-10.086,-7.157 -23.24,-10.226 -40.178,-9.358c-1.405,0.062 -2.554,-0.992 -2.624,-2.37c-0.069,-1.379 0.991,-2.554 2.37,-2.624c18.121,-0.914 32.288,2.442 43.325,10.274c1.126,0.799 1.391,2.359 0.592,3.486c-0.487,0.687 -1.259,1.053 -2.041,1.053"></path>
              </g>
            </g>
            <path id="svg_27" fill="#036b20" d="m135.71612,25.75011c-2.471,-3.973 -7.251,-5.245 -11.728,-5.257c-5.275,-0.254 -11.122,0.861 -13.732,6.026c-2.494,4.934 0.261,10.246 5.286,11.918c2.825,0.939 5.861,1.265 8.824,1.012c2.886,-0.246 6.041,-0.691 8.656,-2.012c4.102,-2.075 5.096,-7.218 3.024,-11.113c-0.104,-0.197 -0.215,-0.388 -0.33,-0.574"></path>
            <path id="svg_28" fill="#05531a" d="m127.69361,28.24231c-0.234,-0.774 -0.76,-1.473 -1.476,-1.863c-0.519,-0.284 -1.089,-0.444 -1.67,-0.53c-1.222,-0.182 -2.441,-0.17 -3.638,0.179c-1.346,0.392 -2.672,1.282 -3.048,2.711c-0.025,0.098 -0.032,0.194 -0.049,0.292c-0.059,0.157 -0.105,0.321 -0.135,0.491c-0.169,0.974 0.027,1.895 0.703,2.637c0.419,0.46 1.054,0.789 1.663,0.908c0.954,0.187 2.015,0.259 2.986,0.183c1.313,-0.104 2.503,-0.471 3.522,-1.329c1.034,-0.869 1.537,-2.375 1.142,-3.679"></path>
            <path id="svg_29" fill="current" d="m83.8147,65.29121c-0.907,0 -1.783,-0.496 -2.227,-1.358c-0.629,-1.228 -0.147,-2.734 1.081,-3.365c0.79,-0.407 19.656,-9.962 46.029,-10.494c8.47,-0.183 29.958,0.457 46.522,10.01c1.197,0.69 1.607,2.219 0.917,3.415c-0.689,1.196 -2.219,1.605 -3.415,0.917c-15.475,-8.926 -35.877,-9.504 -43.923,-9.344c-25.16,0.509 -43.661,9.849 -43.845,9.943c-0.365,0.187 -0.755,0.276 -1.139,0.276"></path>
            <g id="svg_30" opacity="0.3">
              <g id="svg_31" clip-path="url(#clip_63)">
                <path id="svg_32" fill="#ffffff" d="m215.36941,53.77061c-3.667,-3.61 -8.561,2.726 -4.927,6.303c9.283,9.139 11.25,22.45 11.431,34.902c0.075,5.141 8.016,4.129 7.941,-0.973c-0.217,-14.93 -3.507,-29.464 -14.445,-40.232"></path>
              </g>
            </g>
            <g id="svg_33" opacity="0.3">
              <g id="svg_34" clip-path="url(#clip_64)">
                <path id="svg_35" fill="#ffffff" d="m231.79913,106.48741c0.719,2.468 -0.699,5.052 -3.168,5.771c-2.468,0.719 -5.052,-0.699 -5.771,-3.167c-0.719,-2.468 0.699,-5.052 3.167,-5.771c2.468,-0.72 5.052,0.698 5.772,3.167"></path>
              </g>
            </g>
            <path id="svg_36" fill="#232020" d="m145.7981,113.2384c-4.689,2.252 -10.391,1.711 -15.457,1.7c-4.681,-0.009 -10.996,0.861 -15.334,-1.175c-4.634,-2.173 -8.7,4.721 -4.038,6.909c5.992,2.81 12.893,2.253 19.372,2.266c6.735,0.016 13.308,0.179 19.495,-2.792c4.639,-2.227 0.586,-9.128 -4.038,-6.908"></path>
            <path id="svg_37" fill="#232020" d="m112.33131,107.96791c-0.782,-2.004 -2.687,-3.42 -4.92,-2.794c-1.916,0.536 -3.587,2.89 -2.794,4.92c1.458,3.737 1.411,7.242 -0.106,10.95c-0.825,2.014 0.894,4.377 2.794,4.92c2.284,0.654 4.105,-0.803 4.92,-2.794c1.979,-4.835 2.005,-10.338 0.106,-15.202"></path>
            <path id="svg_38" fill="#232020" d="m154.98371,118.69551c-1.591,-1.747 -0.347,-5.922 0.281,-7.812c1.627,-4.897 -6.096,-6.998 -7.715,-2.127c-1.668,5.022 -2.004,11.444 1.777,15.595c3.474,3.816 9.118,-1.855 5.657,-5.656"></path>
            <path id="svg_39" fill="rgba(255,167,59,0.424)" d="m91.18781,91.49532c-4.056,-1.62 -9.125,-1.141 -12.819,1.121c-8.391,5.139 -6.218,17.356 3.021,20.136c1.885,0.567 3.885,0.743 5.839,0.506c8.302,-1.007 13.144,-8.882 9.668,-16.463c-1.182,-2.578 -3.261,-4.321 -5.709,-5.3"></path>
            <path id="svg_40" fill="rgba(255,167,59,0.424)" d="m162.65461,96.7951c-3.476,7.581 1.366,15.456 9.667,16.463c1.955,0.237 3.955,0.061 5.84,-0.506c9.239,-2.78 11.412,-14.997 3.021,-20.136c-3.694,-2.261 -8.763,-2.741 -12.819,-1.121c-2.448,0.979 -4.527,2.722 -5.709,5.3"></path>
            <path id="svg_41" fill="#232020" d="m99.48661,94.2794l-0.001,0.001c0.005,-0.003 0.008,-0.006 0.013,-0.009l-0.001,0c-0.003,0.002 -0.007,0.005 -0.011,0.008"></path>
            <path id="svg_42" fill="#232020" d="m107.42211,94.87032c0.02,-4.075 -3.278,-8.303 -7.612,-8.315c-6.23,-0.019 -10.053,6.961 -6.674,12.169c2.699,4.159 9.227,4.19 12.506,0.705c1.228,-1.306 1.772,-2.92 1.78,-4.559"></path>
            <path id="svg_43" fill="#232020" d="m159.49731,94.2794c-0.001,0 -0.001,0 -0.001,0.001l0.012,-0.009c-0.004,0.002 -0.007,0.005 -0.011,0.008"></path>
            <path id="svg_44" fill="#232020" d="m167.26981,94.87032c0.101,-4.122 -3.116,-8.303 -7.45,-8.315c-6.23,-0.019 -10.053,6.961 -6.674,12.169c3.083,4.75 10.404,4.439 13.207,-0.492c0.6,-1.053 0.889,-2.206 0.917,-3.362"></path>
          </g>
        </g>
      </g>
    </g>
  </symbol>
</svg>