<svg width="201" height="180" xmlns="http://www.w3.org/2000/svg" xmlns:undefined="http://www.inkscape.org/namespaces/inkscape" version="1.1">
 <defs>
  <clipPath id="clip_21">
   <path id="svg_1" d="m-73.9742,-86.73659l360,0l0,360l-360,0l0,-360z"/>
  </clipPath>
  <clipPath id="clip_22">
   <path id="svg_2" d="m102.3568,25.44741l23.453,0l0,-13.28l-23.453,0l0,13.28z"/>
  </clipPath>
  <clipPath id="clip_23">
   <path id="svg_3" d="m60.5388,44.59741l26.091,0l0,-14.726l-26.091,0l0,14.726z"/>
  </clipPath>
  <clipPath id="clip_24">
   <path id="svg_4" d="m62.8948,25.75441l24.24,0l0,-10.817l-24.24,0l0,10.817z"/>
  </clipPath>
  <clipPath id="clip_25">
   <path id="svg_5" d="m99.6208,41.68841l41.309,0l0,-13.22l-41.309,0l0,13.22z"/>
  </clipPath>
  <clipPath id="clip_26">
   <path id="svg_6" d="m17.4679,109.19341l11.6709,0l0,-50.979l-11.6709,0l0,50.979z"/>
  </clipPath>
  <clipPath id="clip_27">
   <path id="svg_7" d="m21.73,120.33641l7.2018,0l0,-7.201l-7.2018,0l0,7.201z"/>
  </clipPath>
 </defs>
 <g>
  <title>Layer 1</title>
  <g id="svg_8">
   <g id="svg_9"  >
    <g id="svg_10" clip-path="url(#clip_21)">
     <path id="svg_11" fill="#ff7c4c" d="m73.7079,4.175c-4.684,1.435 -9.248,3.307 -13.507,5.734c-1.954,1.115 -4.358,2.329 -5.962,3.929c-1.744,1.738 -2.038,2.854 -4.896,2.619c-5.396,-0.442 -10.919,0.797 -15.608,3.505c-2.682,1.548 -5.015,3.915 -7.35,5.942c-18.308,15.896 -26.296,40.582 -26.384,64.287c-0.144,38.522 16.939,70.936 55.189,83.219c20.708,6.651 43.598,8.099 65.156,5.763c22.731,-2.462 47.77,-10.639 62.598,-29.041c25.558,-31.72 23.713,-92.11 -4.384,-121.924c-3.475,-3.686 -7.52,-6.799 -11.973,-9.215c-4.152,-2.254 -10.852,-2.692 -14.432,-5.249c-0.015,-0.01 -19.251,-13.744 -47.644,-13.744c-10.372,0 -20.859,1.127 -30.803,4.175"/>
     <path id="svg_12" fill="#fd7140" d="m60.287,38.37521c-0.721,0 -1.437,-0.311 -1.931,-0.911c-5.869,-7.126 -14.213,-9.502 -20.179,-10.239c-1.37,-0.17 -2.344,-1.418 -2.174,-2.788c0.169,-1.372 1.408,-2.342 2.788,-2.175c6.869,0.849 16.509,3.626 23.424,12.024c0.878,1.066 0.726,2.641 -0.34,3.519c-0.466,0.383 -1.028,0.57 -1.588,0.57"/>
     <path id="svg_13" fill="#fd7140" d="m128.91451,38.37521c-0.56,0 -1.123,-0.187 -1.588,-0.57c-1.066,-0.878 -1.219,-2.453 -0.341,-3.519c11.916,-14.471 32.158,-14.637 33.013,-14.637c1.381,0 2.5,1.12 2.5,2.5c0,1.38 -1.117,2.498 -2.497,2.5c-0.187,0 -18.764,0.195 -29.156,12.815c-0.494,0.6 -1.21,0.911 -1.931,0.911"/>
     <path id="svg_14" fill="#00b24f" d="m149.32271,35.83221c-0.507,-0.856 -1.069,-1.68 -1.689,-2.461c-4.157,-5.242 -9.559,-7.319 -16.032,-7.092c2.934,-2.434 4.906,-5.785 5.943,-9.428c0.624,-2.194 1.701,-6.063 0.621,-8.258c-1.923,-3.909 -9.833,-3.252 -13.429,-3.439c-6.797,-0.353 -13.837,0.4 -20.066,3.289c-5.039,2.339 -6.895,6.124 -9.096,8.741c-4.103,-5.351 -13.032,-6.429 -18.725,-7.135c-7.649,-0.946 -32.199,-2.078 -25.853,12.253c1.836,4.145 5.506,7.308 9.665,8.994c-2.24,0.738 -4.647,1.835 -7.057,3.484c-3.302,2.261 -4.748,6.014 -4.904,9.898c-0.146,3.66 0.134,8.142 4.235,9.426c4.093,1.282 8.979,-0.113 13.064,-0.84c5.558,-0.99 11.099,-2.074 16.617,-3.266c6.698,-1.448 12.579,-4.52 15.854,-10.704c1.838,2.309 5.318,4.059 7.936,5.404c3.24,1.665 6.702,2.86 10.184,3.909c7.446,2.246 15.175,3.55 22.895,4.417c4.103,0.461 13.585,0.148 13.181,-6.094c-0.252,-3.891 -1.365,-7.75 -3.344,-11.098"/>
     <g id="svg_15" opacity="0.39999">
      <g id="svg_16" clip-path="url(#clip_22)">
       <path id="svg_17" fill="#00b24f" d="m104.5649,25.44742c-0.538,0 -1.077,-0.195 -1.502,-0.59c-0.894,-0.83 -0.946,-2.227 -0.116,-3.122c1.535,-1.654 3.448,-2.721 5.119,-3.591c4.752,-2.473 9.779,-4.457 14.941,-5.895c1.175,-0.329 2.393,0.36 2.721,1.535c0.327,1.175 -0.36,2.393 -1.535,2.721c-4.867,1.355 -9.607,3.226 -14.087,5.558c-1.345,0.699 -2.866,1.54 -3.922,2.678c-0.435,0.469 -1.026,0.706 -1.619,0.706"/>
      </g>
     </g>
     <g id="svg_18" opacity="0.39999">
      <g id="svg_19" clip-path="url(#clip_23)">
       <path id="svg_20" fill="#00b24f" d="m62.7494,44.59781c-0.638,0 -1.271,-0.275 -1.708,-0.807c-0.774,-0.942 -0.639,-2.334 0.304,-3.108c6.528,-5.367 14.356,-9.09 22.637,-10.767c1.195,-0.243 2.361,0.531 2.603,1.727c0.243,1.195 -0.53,2.361 -1.726,2.603c-7.576,1.535 -14.736,4.94 -20.709,9.849c-0.411,0.338 -0.907,0.503 -1.401,0.503"/>
      </g>
     </g>
     <g id="svg_21" opacity="0.39999">
      <g id="svg_22" clip-path="url(#clip_24)">
       <path id="svg_23" fill="#00b24f" d="m84.92331,25.75412c-0.354,0 -0.713,-0.085 -1.046,-0.265c-5.947,-3.207 -12.36,-5.276 -19.059,-6.151c-1.21,-0.158 -2.062,-1.267 -1.905,-2.477c0.158,-1.21 1.269,-2.064 2.477,-1.904c7.236,0.945 14.161,3.181 20.583,6.644c1.074,0.579 1.475,1.919 0.896,2.993c-0.399,0.74 -1.16,1.16 -1.946,1.16"/>
      </g>
     </g>
     <g id="svg_24" opacity="0.39999">
      <g id="svg_25" clip-path="url(#clip_25)">
       <path id="svg_26" fill="#00b24f" d="m138.7182,41.68861c-0.442,0 -0.889,-0.132 -1.276,-0.407c-8.911,-6.323 -20.521,-9.027 -35.5,-8.27c-1.235,0.052 -2.257,-0.876 -2.318,-2.094c-0.062,-1.218 0.876,-2.256 2.094,-2.318c16.005,-0.813 28.529,2.158 38.28,9.078c0.995,0.706 1.23,2.085 0.524,3.08c-0.431,0.607 -1.113,0.931 -1.804,0.931"/>
      </g>
     </g>
     <path id="svg_27" fill="#00893b" d="m105.5649,23.93082c-2.183,-3.51 -6.407,-4.635 -10.361,-4.646c-4.662,-0.224 -9.828,0.761 -12.135,5.325c-2.203,4.36 0.231,9.053 4.672,10.53c2.495,0.831 5.178,1.118 7.796,0.895c2.55,-0.218 5.338,-0.611 7.648,-1.779c3.625,-1.833 4.503,-6.377 2.672,-9.818c-0.093,-0.175 -0.19,-0.344 -0.292,-0.507"/>
     <path id="svg_28" fill="#027039" d="m98.47701,26.13202c-0.208,-0.684 -0.671,-1.3 -1.304,-1.646c-0.459,-0.25 -0.963,-0.391 -1.476,-0.468c-1.079,-0.16 -2.157,-0.15 -3.214,0.158c-1.19,0.347 -2.361,1.134 -2.694,2.396c-0.022,0.085 -0.028,0.172 -0.042,0.258c-0.053,0.139 -0.094,0.283 -0.12,0.434c-0.149,0.86 0.024,1.674 0.621,2.329c0.371,0.407 0.932,0.697 1.469,0.803c0.843,0.165 1.781,0.229 2.639,0.161c1.16,-0.091 2.211,-0.415 3.113,-1.174c0.912,-0.768 1.357,-2.098 1.008,-3.251"/>
     <path id="svg_29" fill="#fd7140" d="m55.6796,60.17111c-0.908,0 -1.783,-0.496 -2.226,-1.358c-0.63,-1.228 -0.148,-2.734 1.08,-3.365c0.79,-0.407 19.656,-9.962 46.029,-10.493c8.467,-0.182 29.955,0.454 46.522,10.009c1.196,0.69 1.606,2.219 0.917,3.415c-0.691,1.196 -2.22,1.605 -3.415,0.917c-15.478,-8.927 -35.873,-9.507 -43.922,-9.343c-25.161,0.508 -43.662,9.848 -43.846,9.942c-0.365,0.187 -0.755,0.276 -1.139,0.276"/>
     <g id="svg_30" opacity="0.39999">
      <g id="svg_31" clip-path="url(#clip_26)">
       <path id="svg_32" fill="#ff7c4c" d="m21.8954,109.19351c-1.402,0 -2.655,-0.988 -2.939,-2.416c-3.027,-15.234 -1.379,-32.694 4.408,-46.707c0.633,-1.531 2.389,-2.263 3.918,-1.627c1.532,0.632 2.26,2.387 1.628,3.918c-5.353,12.961 -6.874,29.128 -4.069,43.246c0.323,1.625 -0.733,3.204 -2.358,3.527c-0.197,0.039 -0.394,0.059 -0.588,0.059"/>
      </g>
     </g>
     <g id="svg_33" opacity="0.39999">
      <g id="svg_34" clip-path="url(#clip_27)">
       <path id="svg_35" fill="#ff7c4c" d="m28.8842,116.15642c0.32,1.963 -1.012,3.813 -2.974,4.133c-1.963,0.32 -3.813,-1.011 -4.133,-2.974c-0.32,-1.963 1.012,-3.812 2.974,-4.133c1.963,-0.32 3.813,1.012 4.133,2.974"/>
      </g>
     </g>
     <path id="svg_36" fill="#ff9f94" d="m68.2997,95.98061c-4.055,-1.62 -9.125,-1.141 -12.819,1.121c-8.39,5.139 -6.219,17.356 3.021,20.136c1.885,0.567 3.885,0.743 5.84,0.506c8.301,-1.007 13.143,-8.882 9.667,-16.463c-1.182,-2.578 -3.26,-4.321 -5.709,-5.3"/>
     <path id="svg_37" fill="#ff9f94" d="m128.90761,101.28041c-3.476,7.581 1.367,15.456 9.668,16.463c1.955,0.237 3.954,0.061 5.84,-0.506c9.239,-2.78 11.412,-14.997 3.021,-20.136c-3.694,-2.261 -8.764,-2.741 -12.819,-1.121c-2.449,0.979 -4.527,2.722 -5.71,5.3"/>
     <path id="svg_38" fill="#232020" d="m136.7533,98.78041c-2.956,-0.817 -5.884,-1.715 -8.792,-2.677c2.021,-1.264 4.169,-2.323 6.442,-3.133c4.454,-1.587 2.754,-8.82 -1.749,-7.214c-5.597,1.994 -10.579,4.892 -14.981,8.897c-2.182,1.984 -0.99,5.294 1.511,6.23c5.073,1.898 10.215,3.567 15.438,5.009c4.609,1.274 6.742,-5.838 2.131,-7.112"/>
     <path id="svg_39" fill="#232020" d="m65.1938,99.81561c2.84,-1.157 5.644,-2.391 8.418,-3.687c-2.155,-1.019 -4.411,-1.819 -6.763,-2.358c-4.61,-1.056 -3.766,-8.437 0.893,-7.37c5.792,1.327 11.078,3.623 15.919,7.085c2.398,1.716 1.602,5.143 -0.772,6.364c-4.817,2.478 -9.729,4.737 -14.746,6.78c-4.429,1.804 -7.379,-5.009 -2.949,-6.814"/>
     <path id="svg_40" fill="#232020" d="m88.64011,109.26091c-0.076,0.476 -0.009,1.381 0.026,1.853l0.036,0.515c0.306,4.94 2.639,11.148 8.212,12.39c3.711,0.825 7.6,0.663 10.665,-0.447c4.892,-1.771 7.295,-8.635 6.633,-14.159c-0.035,-0.004 -0.07,-0.006 -0.105,-0.01c-1.148,-0.12 -2.387,-0.11 -3.694,-0.1c-0.875,0.005 -1.744,0.013 -2.583,-0.019c-3.177,-0.115 -6.068,-0.172 -8.838,-0.175c-2.777,-0.031 -5.283,0.048 -7.746,0.156c-0.405,0.018 -0.848,0.006 -1.306,-0.011c-0.376,-0.013 -0.956,-0.034 -1.3,0.007m12.965,20.874c-1.961,0 -3.961,-0.215 -5.908,-0.649c-8.61,-1.918 -12.161,-10.632 -12.585,-17.511l-0.032,-0.446c-0.129,-1.748 -0.371,-5.001 2.163,-6.821c1.628,-1.167 3.517,-1.103 4.894,-1.051c0.304,0.01 0.597,0.023 0.866,0.012c2.546,-0.111 5.137,-0.153 7.993,-0.162c2.838,0.003 5.794,0.062 9.037,0.18c0.76,0.027 1.545,0.018 2.338,0.014c1.403,-0.011 2.858,-0.021 4.314,0.129l0.002,0c0.591,0.063 1.132,0.145 1.652,0.252c0.396,0.081 1.229,0.252 1.983,0.926c0.941,0.841 1.153,1.928 1.232,2.337c1.563,8.019 -1.842,18.517 -10.067,21.494c-2.374,0.859 -5.089,1.296 -7.882,1.296"/>
    </g>
   </g>
  </g>
 </g>
</svg>