<svg width="207" height="183" xmlns="http://www.w3.org/2000/svg" xmlns:undefined="http://www.inkscape.org/namespaces/inkscape" version="1.1">
 <defs>
  <clipPath id="clip_42">
   <path id="svg_1" d="m-74.1163,-96.50929l360,0l0,360l-360,0l0,-360z"/>
  </clipPath>
  <clipPath id="clip_43">
   <path id="svg_2" d="m104.4997,27.46671l26.544,0l0,-15.031l-26.544,0l0,15.031z"/>
  </clipPath>
  <clipPath id="clip_44">
   <path id="svg_3" d="m57.1717,49.14071l29.53,0l0,-16.667l-29.53,0l0,16.667z"/>
  </clipPath>
  <clipPath id="clip_45">
   <path id="svg_4" d="m59.8387,27.81271l27.434,0l0,-12.239l-27.434,0l0,12.239z"/>
  </clipPath>
  <clipPath id="clip_46">
   <path id="svg_5" d="m101.4047,45.84771l46.751,0l0,-14.96l-46.751,0l0,14.96z"/>
  </clipPath>
  <clipPath id="clip_47">
   <path id="svg_6" d="m61.3057,107.84771l23.006,0l0,-16.448l-23.006,0l0,16.448z"/>
  </clipPath>
  <clipPath id="clip_48">
   <path id="svg_7" d="m119.3357,107.84771l23.005,0l0,-16.448l-23.005,0l0,16.448z"/>
  </clipPath>
  <clipPath id="clip_49">
   <path id="svg_8" d="m16.2139,102.61171l14.4938,0l0,-50.455l-14.4938,0l0,50.455z"/>
  </clipPath>
  <clipPath id="clip_50">
   <path id="svg_9" d="m15.6146,117.60971l7.2008,0l0,-7.201l-7.2008,0l0,7.201z"/>
  </clipPath>
 </defs>
 <g>
  <title>Layer 1</title>
  <g id="svg_10">
   <g id="svg_11"  >
    <g id="svg_12" clip-path="url(#clip_42)">
     <path id="svg_13" fill="current" d="m205.27429,77.063c-5.269,-28.636 -22.227,-57.054 -51.197,-63.319c0,0 -19.241,-13.744 -47.644,-13.744c-19.806,0 -39.516,4.306 -52.794,15.898c-2.246,1.961 -10.756,0.496 -13.895,1.776c-30.674,12.513 -39.803,54.44 -39.744,83.878c0.07,35.019 17.611,63.347 51.747,73.916c29.163,9.03 62.922,10.926 92.324,1.996c18.831,-5.718 33.836,-11.701 45.777,-28.024c10.379,-14.187 16.381,-31.57 17.125,-49.121c0.316,-7.463 -0.248,-15.367 -1.699,-23.256"/>
     <path id="svg_14" fill="current" d="m62.2094,38.3746c-0.721,0 -1.437,-0.311 -1.931,-0.911c-4.224,-5.128 -10.18,-8.444 -17.704,-9.856c-1.357,-0.254 -2.251,-1.56 -1.996,-2.918c0.255,-1.356 1.56,-2.248 2.918,-1.996c8.585,1.611 15.722,5.618 20.641,11.592c0.878,1.066 0.726,2.641 -0.34,3.519c-0.466,0.383 -1.028,0.57 -1.588,0.57"/>
     <path id="svg_15" fill="current" d="m130.8378,38.3746c-0.56,0 -1.122,-0.187 -1.588,-0.57c-1.066,-0.877 -1.219,-2.453 -0.341,-3.519c11.914,-14.471 32.157,-14.637 33.012,-14.637c1.381,0 2.5,1.12 2.5,2.5c0,1.38 -1.117,2.498 -2.497,2.5c-0.187,0 -18.764,0.195 -29.155,12.815c-0.494,0.6 -1.21,0.911 -1.931,0.911"/>
     <path id="svg_16" fill="#0eab24" d="m157.6552,39.21931c-0.573,-0.969 -1.21,-1.9 -1.911,-2.785c-4.705,-5.933 -10.819,-8.283 -18.145,-8.027c3.321,-2.754 5.552,-6.546 6.725,-10.669c0.707,-2.484 1.926,-6.863 0.704,-9.347c-2.177,-4.424 -11.129,-3.681 -15.199,-3.892c-7.692,-0.399 -15.659,0.451 -22.709,3.723c-5.704,2.646 -7.805,6.931 -10.295,9.892c-4.644,-6.056 -14.75,-7.277 -21.193,-8.076c-8.657,-1.07 -36.442,-2.351 -29.26,13.868c2.078,4.692 6.232,8.272 10.939,10.179c-2.535,0.836 -5.259,2.077 -7.987,3.944c-3.737,2.558 -5.373,6.806 -5.549,11.202c-0.166,4.142 0.151,9.216 4.792,10.669c4.632,1.45 10.162,-0.129 14.786,-0.952c6.29,-1.12 12.561,-2.346 18.806,-3.696c17.431,-3.769 17.358,-13.522 17.359,-13.521c4.994,6.439 13.551,9.674 21.091,11.947c8.428,2.542 17.177,4.018 25.913,4.999c4.644,0.521 15.375,0.167 14.918,-6.898c-0.286,-4.403 -1.546,-8.771 -3.785,-12.56"/>
     <g id="svg_17" opacity="0.39999">
      <g id="svg_18" clip-path="url(#clip_43)">
       <path id="svg_19" fill="#0eab24" d="m106.9989,27.4664c-0.608,0 -1.219,-0.221 -1.7,-0.668c-1.012,-0.939 -1.071,-2.521 -0.131,-3.533c1.737,-1.871 3.901,-3.078 5.793,-4.064c5.381,-2.799 11.07,-5.045 16.911,-6.673c1.332,-0.373 2.709,0.409 3.079,1.738c0.371,1.33 -0.407,2.709 -1.737,3.079c-5.507,1.534 -10.871,3.651 -15.944,6.292c-1.521,0.791 -3.244,1.744 -4.438,3.03c-0.492,0.53 -1.162,0.799 -1.833,0.799"/>
      </g>
     </g>
     <g id="svg_20" opacity="0.39999">
      <g id="svg_21" clip-path="url(#clip_44)">
       <path id="svg_22" fill="#0eab24" d="m59.67369,49.14021c-0.722,0 -1.438,-0.312 -1.933,-0.912c-0.877,-1.067 -0.723,-2.643 0.344,-3.52c7.389,-6.073 16.248,-10.286 25.621,-12.183c1.355,-0.278 2.673,0.601 2.946,1.954c0.274,1.353 -0.601,2.673 -1.954,2.946c-8.574,1.736 -16.679,5.59 -23.438,11.147c-0.465,0.381 -1.027,0.568 -1.586,0.568"/>
      </g>
     </g>
     <g id="svg_23" opacity="0.39999">
      <g id="svg_24" clip-path="url(#clip_45)">
       <path id="svg_25" fill="#0eab24" d="m84.7699,27.813c-0.401,0 -0.807,-0.096 -1.185,-0.3c-6.731,-3.629 -13.987,-5.971 -21.569,-6.961c-1.37,-0.177 -2.334,-1.432 -2.156,-2.802c0.179,-1.369 1.432,-2.336 2.803,-2.155c8.188,1.069 16.026,3.598 23.295,7.518c1.216,0.655 1.67,2.172 1.015,3.387c-0.453,0.837 -1.314,1.313 -2.203,1.313"/>
      </g>
     </g>
     <g id="svg_26" opacity="0.39999">
      <g id="svg_27" clip-path="url(#clip_46)">
       <path id="svg_28" fill="#0eab24" d="m145.6532,45.84721c-0.501,0 -1.006,-0.149 -1.445,-0.461c-10.084,-7.156 -23.223,-10.223 -40.177,-9.358c-1.382,0.064 -2.553,-0.992 -2.623,-2.37c-0.07,-1.379 0.991,-2.554 2.37,-2.624c18.118,-0.913 32.287,2.443 43.324,10.274c1.126,0.8 1.391,2.36 0.592,3.486c-0.487,0.687 -1.259,1.053 -2.041,1.053"/>
      </g>
     </g>
     <path id="svg_29" fill="#036b20" d="m109.50279,25.7496c-2.471,-3.973 -7.251,-5.244 -11.727,-5.257c-5.275,-0.254 -11.123,0.861 -13.733,6.026c-2.494,4.934 0.261,10.246 5.287,11.918c2.824,0.94 5.86,1.265 8.823,1.012c2.886,-0.246 6.042,-0.691 8.656,-2.012c4.103,-2.075 5.096,-7.218 3.024,-11.113c-0.104,-0.197 -0.215,-0.388 -0.33,-0.574"/>
     <path id="svg_30" fill="#05531a" d="m101.48039,28.24181c-0.234,-0.774 -0.759,-1.472 -1.475,-1.863c-0.52,-0.284 -1.09,-0.444 -1.671,-0.53c-1.222,-0.182 -2.441,-0.17 -3.638,0.179c-1.346,0.392 -2.672,1.282 -3.048,2.711c-0.025,0.098 -0.032,0.195 -0.048,0.292c-0.06,0.157 -0.106,0.321 -0.135,0.491c-0.169,0.974 0.026,1.895 0.702,2.637c0.419,0.46 1.054,0.789 1.663,0.908c0.954,0.187 2.015,0.259 2.986,0.183c1.313,-0.104 2.503,-0.471 3.523,-1.329c1.033,-0.869 1.537,-2.374 1.141,-3.679"/>
     <path id="svg_31" fill="current" d="m57.601,65.29161c-0.907,0 -1.782,-0.495 -2.225,-1.357c-0.631,-1.228 -0.148,-2.736 1.079,-3.367c0.791,-0.407 19.657,-9.962 46.03,-10.493c8.466,-0.175 29.956,0.455 46.522,10.009c1.196,0.69 1.606,2.219 0.917,3.415c-0.691,1.196 -2.22,1.606 -3.415,0.917c-15.478,-8.927 -35.872,-9.506 -43.922,-9.343c-25.228,0.51 -43.661,9.847 -43.844,9.941c-0.366,0.188 -0.757,0.278 -1.142,0.278"/>
     <path id="svg_32" fill="rgba(255,7,7,0.2)" d="m142.08189,107.69681c1.275,-0.749 2.982,-1.092 4.42,-1.206c0.854,-0.067 1.711,-0.048 2.562,0.026c2.342,-0.052 4.775,0.708 6.18,2.625c1.116,1.524 0.803,3.501 -0.34,4.895c-1.019,1.245 -2.581,1.598 -4.097,1.77c-0.877,0.1 -1.764,0.123 -2.645,0.09c-2.719,-0.103 -6.733,-0.762 -7.718,-3.775c-0.713,-2.184 0.181,-3.57 1.638,-4.425"/>
     <path id="svg_33" fill="rgba(255,7,7,0.2)" d="m65.935,107.69681c-1.275,-0.749 -2.982,-1.092 -4.42,-1.206c-0.855,-0.067 -1.71,-0.048 -2.562,0.026c-2.343,-0.052 -4.775,0.708 -6.18,2.625c-1.117,1.524 -0.803,3.501 0.34,4.895c1.02,1.245 2.581,1.598 4.097,1.77c0.877,0.1 1.764,0.123 2.645,0.09c2.718,-0.103 6.734,-0.762 7.718,-3.775c0.713,-2.184 -0.181,-3.57 -1.638,-4.425"/>
     <path id="svg_34" fill="#232020" d="m151.3788,92.07771c0.049,-2.11 -1.408,-4.194 -3.67,-4.305c-5.81,-0.283 -11.635,-0.261 -17.443,0.061c-3.064,0.171 -6.129,0.409 -9.177,0.761c-2.004,0.231 -5.102,0.008 -6.795,1.169c-3.648,2.5 -0.893,10.423 0.651,13.461c4.039,7.945 13.756,12.329 22.394,9.991c3.983,-1.079 7.38,-3.867 9.67,-7.3c2.632,-3.945 4.261,-9.09 4.37,-13.838"/>
     <path id="svg_35" fill="#232020" d="m55.68199,92.41171c-0.083,-2.11 1.338,-4.218 3.598,-4.365c5.805,-0.381 11.629,-0.456 17.442,-0.23c3.065,0.119 6.134,0.307 9.188,0.609c2.007,0.198 5.102,-0.076 6.813,1.055c3.689,2.439 1.066,10.408 -0.427,13.471c-3.906,8.011 -13.549,12.555 -22.225,10.36c-4,-1.011 -7.443,-3.743 -9.79,-7.137c-2.697,-3.902 -4.411,-9.019 -4.599,-13.763"/>
     <path id="svg_36" fill="#232020" d="m118.1767,94.5298c-7.427,-6.476 -21.269,-7.767 -28.943,-1.011c-3.458,3.046 1.844,7.817 5.282,4.79c4.636,-4.082 14.427,-2.386 18.684,1.326c3.461,3.019 8.446,-2.081 4.977,-5.105"/>
     <path id="svg_37" fill="#232020" d="m115.7607,115.1011c-4.621,5.792 -16.342,5.644 -22.965,4.579c-5.037,-0.809 -7.204,6.898 -2.127,7.714c9.314,1.497 24.216,1.552 30.749,-6.636c3.18,-3.985 -2.445,-9.682 -5.657,-5.657"/>
     <g id="svg_38" opacity="0.89999">
      <g id="svg_39" clip-path="url(#clip_47)">
       <path id="svg_40" fill="#ffffff" d="m72.7314,92.61771c-0.757,-1.176 -2.184,-1.555 -3.42,-0.897c-2.578,1.372 -4.982,3.001 -7.273,4.808c-0.469,0.369 -0.732,1.202 -0.732,1.768c0,0.613 0.272,1.345 0.732,1.767c0.476,0.438 1.102,0.763 1.768,0.733c0.221,-0.03 0.443,-0.06 0.664,-0.089c0.419,-0.117 0.782,-0.33 1.092,-0.634c1.977,-1.515 4.073,-2.865 6.273,-4.036c1.155,-0.615 1.607,-2.316 0.896,-3.42"/>
       <path id="svg_41" fill="#ffffff" d="m83.96519,96.46931c-0.715,-1.108 -2.236,-1.641 -3.42,-0.896c-4.044,2.537 -8.087,5.075 -12.13,7.613c-1.107,0.694 -1.644,2.261 -0.897,3.42c0.715,1.109 2.236,1.64 3.421,0.897c4.043,-2.538 8.086,-5.076 12.129,-7.613c1.107,-0.695 1.645,-2.261 0.897,-3.421"/>
      </g>
     </g>
     <g id="svg_42" opacity="0.89999">
      <g id="svg_43" clip-path="url(#clip_48)">
       <path id="svg_44" fill="#ffffff" d="m130.7607,92.61771c-0.757,-1.176 -2.184,-1.555 -3.42,-0.897c-2.578,1.372 -4.981,3.001 -7.273,4.808c-0.468,0.369 -0.732,1.202 -0.732,1.768c0,0.613 0.272,1.345 0.732,1.767c0.476,0.438 1.102,0.763 1.768,0.733c0.222,-0.03 0.443,-0.06 0.664,-0.089c0.419,-0.117 0.782,-0.33 1.092,-0.634c1.977,-1.515 4.073,-2.865 6.273,-4.036c1.156,-0.615 1.608,-2.316 0.896,-3.42"/>
       <path id="svg_45" fill="#ffffff" d="m141.995,96.46931c-0.715,-1.108 -2.235,-1.641 -3.421,-0.896c-4.043,2.537 -8.086,5.075 -12.129,7.613c-1.106,0.694 -1.644,2.261 -0.897,3.42c0.716,1.109 2.236,1.64 3.421,0.897c4.043,-2.538 8.086,-5.076 12.129,-7.613c1.107,-0.695 1.644,-2.261 0.897,-3.421"/>
      </g>
     </g>
     <g id="svg_46" opacity="0.39999">
      <g id="svg_47" clip-path="url(#clip_49)">
       <path id="svg_48" fill="#ffffff" d="m19.6552,102.61191c-1.508,0 -2.807,-1.134 -2.978,-2.668c-1.72,-15.436 1.407,-32.693 8.365,-46.163c0.759,-1.471 2.566,-2.05 4.042,-1.288c1.471,0.76 2.049,2.569 1.288,4.042c-6.436,12.46 -9.326,28.438 -7.732,42.745c0.184,1.646 -1.003,3.13 -2.649,3.313c-0.112,0.013 -0.225,0.019 -0.336,0.019"/>
      </g>
     </g>
     <g id="svg_49" opacity="0.39999">
      <g id="svg_50" clip-path="url(#clip_50)">
       <path id="svg_51" fill="#ffffff" d="m22.8046,113.7339c0.152,1.982 -1.332,3.713 -3.314,3.865c-1.983,0.152 -3.713,-1.333 -3.865,-3.315c-0.152,-1.983 1.332,-3.713 3.314,-3.864c1.983,-0.153 3.713,1.332 3.865,3.314"/>
      </g>
     </g>
    </g>
   </g>
  </g>
 </g>
</svg>