<svg width="177" height="221" xmlns="http://www.w3.org/2000/svg" xmlns:undefined="http://www.inkscape.org/namespaces/inkscape" version="1.1">
 <defs>
  <clipPath id="clip_35">
   <path id="svg_1" d="m-96.98388,-70.17249l360,0l0,360l-360,0l0,-360z"/>
  </clipPath>
  <clipPath id="clip_36">
   <path id="svg_2" d="m18.08612,95.70451l14.494,0l0,-50.454l-14.494,0l0,50.454z"/>
  </clipPath>
  <clipPath id="clip_37">
   <path id="svg_3" d="m17.48712,110.70251l7.201,0l0,-7.201l-7.201,0l0,7.201z"/>
  </clipPath>
  <clipPath id="clip_38">
   <path id="svg_4" d="m94.00412,19.82351l18.921,0l0,-10.713l-18.921,0l0,10.713z"/>
  </clipPath>
  <clipPath id="clip_39">
   <path id="svg_5" d="m60.26812,35.27451l21.049,0l0,-11.879l-21.049,0l0,11.879z"/>
  </clipPath>
  <clipPath id="clip_40">
   <path id="svg_6" d="m62.16812,20.07151l19.556,0l0,-8.726l-19.556,0l0,8.726z"/>
  </clipPath>
  <clipPath id="clip_41">
   <path id="svg_7" d="m91.79812,32.92651l33.325,0l0,-10.663l-33.325,0l0,10.663z"/>
  </clipPath>
 </defs>
 <g>
  <title>Layer 1</title>
  <g id="svg_8">
   <g id="svg_9"  >
    <g id="svg_10" clip-path="url(#clip_35)">
     <path id="svg_11" fill="current" d="m172.47221,77.84842c-4.001,-16.882 -10.35,-33.533 -20.398,-47.782c-10.622,-15.062 -23.35,-19.774 -40.716,-24.115c-3.879,-0.969 -7.611,-2.447 -11.449,-3.565c-13.975,-4.073 -29.666,-3.085 -42.301,4.145c-2.649,1.515 -5.148,3.286 -7.835,4.731c-2.649,1.425 -5.46,2.523 -8.155,3.862c-25.689,12.77 -35.011,42.953 -38.752,69.347c-4.429,31.244 -5.168,66.103 8.445,95.198c11.564,24.715 41.047,39.237 67.376,40.861c26.563,1.637 54.906,-3.128 72.897,-24.301c25.397,-29.888 30.654,-77.17 20.888,-118.381"/>
     <g id="svg_12" opacity="0.39999">
      <g id="svg_13" clip-path="url(#clip_36)">
       <path id="svg_14" fill="#ffffff" d="m21.52782,95.70491c-1.508,0 -2.807,-1.134 -2.978,-2.668c-1.72,-15.436 1.407,-32.693 8.365,-46.163c0.759,-1.471 2.566,-2.05 4.042,-1.288c1.471,0.76 2.049,2.569 1.288,4.042c-6.436,12.46 -9.326,28.438 -7.732,42.745c0.184,1.646 -1.003,3.13 -2.649,3.313c-0.112,0.013 -0.225,0.019 -0.336,0.019"/>
      </g>
     </g>
     <g id="svg_15" opacity="0.39999">
      <g id="svg_16" clip-path="url(#clip_37)">
       <path id="svg_17" fill="#ffffff" d="m24.67722,106.82701c0.152,1.982 -1.332,3.713 -3.314,3.865c-1.983,0.152 -3.713,-1.332 -3.866,-3.314c-0.151,-1.983 1.332,-3.713 3.315,-3.865c1.982,-0.152 3.713,1.332 3.865,3.314"/>
      </g>
     </g>
     <path id="svg_18" fill="current" d="m112.67532,27.21762c-1.109,0 -2.122,-0.744 -2.416,-1.867c-0.351,-1.336 0.449,-2.702 1.784,-3.052c1.173,-0.308 2.343,-0.863 3.581,-1.451c0.502,-0.238 1.005,-0.477 1.512,-0.702c4.697,-2.085 9.88,-3.079 15.026,-2.874c1.38,0.055 2.453,1.218 2.399,2.597c-0.056,1.381 -1.235,2.455 -2.598,2.399c-4.382,-0.17 -8.797,0.671 -12.798,2.448c-0.469,0.208 -0.932,0.429 -1.396,0.648c-1.393,0.662 -2.832,1.345 -4.458,1.771c-0.213,0.056 -0.426,0.083 -0.636,0.083"/>
     <path id="svg_19" fill="current" d="m65.74752,30.61801c-0.336,0 -0.677,-0.068 -1.004,-0.212c-7.776,-3.413 -16.364,-4.906 -24.838,-4.307c-1.355,0.09 -2.571,-0.94 -2.669,-2.319c-0.096,-1.377 0.942,-2.572 2.32,-2.669c9.275,-0.644 18.681,0.98 27.197,4.717c1.264,0.555 1.839,2.029 1.284,3.294c-0.411,0.937 -1.328,1.496 -2.29,1.496"/>
     <path id="svg_20" fill="#0eab24" d="m130.98002,27.86603c-0.413,-0.699 -0.873,-1.371 -1.378,-2.008c-3.392,-4.277 -7.8,-5.972 -13.08,-5.786c2.394,-1.986 4.001,-4.721 4.848,-7.693c0.509,-1.789 1.387,-4.947 0.506,-6.738c-1.568,-3.189 -8.022,-2.653 -10.957,-2.805c-5.544,-0.288 -11.289,0.325 -16.371,2.683c-4.111,1.909 -5.626,4.996 -7.421,7.131c-3.348,-4.365 -10.633,-5.245 -15.278,-5.821c-6.241,-0.772 -26.271,-1.695 -21.094,9.997c1.498,3.383 4.493,5.964 7.886,7.338c-1.828,0.602 -3.791,1.498 -5.758,2.844c-2.694,1.843 -3.874,4.906 -4.001,8.075c-0.119,2.986 0.11,6.643 3.455,7.691c3.34,1.045 7.327,-0.093 10.66,-0.686c4.534,-0.807 9.055,-1.692 13.557,-2.664c12.567,-2.718 12.514,-9.748 12.514,-9.748c3.6,4.642 9.769,6.974 15.205,8.613c6.076,1.833 12.383,2.896 18.681,3.603c3.347,0.377 11.084,0.121 10.755,-4.972c-0.207,-3.174 -1.115,-6.323 -2.729,-9.054"/>
     <g id="svg_21" opacity="0.39999">
      <g id="svg_22" clip-path="url(#clip_38)">
       <path id="svg_23" fill="#0fbd1d" d="m95.78661,19.82401c-0.435,0 -0.87,-0.158 -1.213,-0.477c-0.721,-0.669 -0.763,-1.797 -0.093,-2.518c1.242,-1.335 2.783,-2.195 4.13,-2.897c3.835,-1.995 7.891,-3.595 12.054,-4.756c0.95,-0.261 1.931,0.291 2.195,1.238c0.264,0.948 -0.29,1.931 -1.238,2.195c-3.926,1.094 -7.75,2.604 -11.366,4.486c-1.083,0.563 -2.31,1.241 -3.163,2.16c-0.352,0.378 -0.828,0.569 -1.306,0.569"/>
      </g>
     </g>
     <g id="svg_24" opacity="0.39999">
      <g id="svg_25" clip-path="url(#clip_39)">
       <path id="svg_26" fill="#0fbd1d" d="m62.05132,35.27422c-0.515,0 -1.025,-0.222 -1.378,-0.65c-0.625,-0.761 -0.515,-1.884 0.245,-2.509c5.267,-4.33 11.582,-7.333 18.263,-8.686c0.963,-0.19 1.904,0.429 2.1,1.394c0.195,0.965 -0.428,1.905 -1.393,2.1c-6.111,1.237 -11.889,3.984 -16.706,7.946c-0.332,0.272 -0.733,0.405 -1.131,0.405"/>
      </g>
     </g>
     <g id="svg_27" opacity="0.39999">
      <g id="svg_28" clip-path="url(#clip_40)">
       <path id="svg_29" fill="#0fbd1d" d="m79.93992,20.07111c-0.285,0 -0.575,-0.068 -0.844,-0.214c-4.8,-2.587 -9.972,-4.257 -15.376,-4.961c-0.975,-0.128 -1.664,-1.022 -1.537,-1.998c0.127,-0.975 1.008,-1.665 1.998,-1.537c5.836,0.762 11.423,2.564 16.607,5.359c0.866,0.467 1.19,1.548 0.722,2.414c-0.321,0.598 -0.935,0.937 -1.57,0.937"/>
      </g>
     </g>
     <g id="svg_30" opacity="0.39999">
      <g id="svg_31" clip-path="url(#clip_41)">
       <path id="svg_32" fill="#0fbd1d" d="m123.33932,32.92661c-0.356,0 -0.717,-0.106 -1.029,-0.329c-7.188,-5.101 -16.552,-7.279 -28.641,-6.672c-0.945,0.059 -1.82,-0.706 -1.869,-1.689c-0.05,-0.983 0.706,-1.821 1.689,-1.871c12.916,-0.645 23.018,1.744 30.883,7.326c0.803,0.569 0.991,1.681 0.422,2.484c-0.348,0.489 -0.896,0.751 -1.455,0.751"/>
      </g>
     </g>
     <path id="svg_33" fill="#036b20" d="m96.26612,18.15513c-1.78,-2.863 -5.227,-3.781 -8.454,-3.79c-3.803,-0.183 -8.018,0.62 -9.9,4.344c-1.798,3.557 0.188,7.386 3.811,8.592c2.036,0.677 4.225,0.913 6.361,0.73c2.08,-0.178 4.356,-0.499 6.24,-1.451c2.958,-1.495 3.674,-5.203 2.18,-8.011c-0.075,-0.143 -0.155,-0.28 -0.238,-0.414"/>
     <path id="svg_34" fill="#05531a" d="m90.48292,19.95203c-0.169,-0.559 -0.548,-1.062 -1.063,-1.344c-0.375,-0.205 -0.786,-0.319 -1.206,-0.382c-0.879,-0.13 -1.758,-0.122 -2.622,0.129c-0.97,0.283 -1.925,0.925 -2.197,1.955c-0.018,0.071 -0.023,0.141 -0.035,0.21c-0.043,0.115 -0.076,0.233 -0.097,0.355c-0.122,0.701 0.019,1.365 0.506,1.9c0.303,0.332 0.76,0.57 1.198,0.656c0.689,0.134 1.454,0.186 2.154,0.13c0.947,-0.074 1.804,-0.338 2.54,-0.957c0.745,-0.627 1.107,-1.712 0.822,-2.652"/>
     <path id="svg_35" fill="current" d="m56.63522,47.40611c-0.938,0 -1.837,-0.53 -2.264,-1.436c-0.588,-1.249 -0.052,-2.738 1.197,-3.327c22.135,-10.432 48.684,-10.687 71.017,-0.683c1.26,0.564 1.823,2.043 1.259,3.303c-0.563,1.26 -2.044,1.826 -3.304,1.259c-21.02,-9.414 -46.007,-9.176 -66.842,0.645c-0.343,0.162 -0.707,0.239 -1.063,0.239"/>
     <path id="svg_36" fill="rgba(255,7,7,0.2)" d="m121.76612,101.38951c1.275,-0.749 2.982,-1.092 4.42,-1.206c0.854,-0.067 1.711,-0.048 2.562,0.026c2.342,-0.052 4.775,0.707 6.18,2.625c1.116,1.524 0.803,3.501 -0.34,4.895c-1.019,1.244 -2.582,1.598 -4.097,1.77c-0.877,0.1 -1.764,0.123 -2.645,0.09c-2.719,-0.103 -6.734,-0.762 -7.718,-3.775c-0.713,-2.184 0.181,-3.57 1.638,-4.425"/>
     <path id="svg_37" fill="rgba(255,7,7,0.2)" d="m57.61382,101.38951c-1.275,-0.749 -2.982,-1.092 -4.421,-1.206c-0.854,-0.067 -1.71,-0.048 -2.561,0.026c-2.343,-0.052 -4.775,0.707 -6.18,2.625c-1.117,1.524 -0.803,3.501 0.339,4.895c1.02,1.244 2.582,1.598 4.098,1.77c0.877,0.1 1.763,0.123 2.645,0.09c2.718,-0.103 6.733,-0.762 7.718,-3.775c0.713,-2.184 -0.182,-3.57 -1.638,-4.425"/>
     <path id="svg_38" fill="#232020" d="m61.29443,100.14041c0,0.001 0,0.001 -0.001,0.001c0.004,-0.002 0.008,-0.004 0.012,-0.007c-0.004,0.002 -0.007,0.004 -0.011,0.006"/>
     <path id="svg_39" fill="#232020" d="m69.23002,100.60721c0.019,-3.214 -3.278,-6.548 -7.612,-6.558c-6.23,-0.014 -10.054,5.491 -6.674,9.597c2.698,3.28 9.227,3.305 12.506,0.557c1.227,-1.031 1.772,-2.304 1.78,-3.596"/>
     <path id="svg_40" fill="#232020" d="m116.17922,100.14041c0,0.001 0,0.001 -0.001,0.001c0.005,-0.002 0.009,-0.004 0.013,-0.007l-0.001,0c-0.003,0.002 -0.007,0.004 -0.011,0.006"/>
     <path id="svg_41" fill="#232020" d="m124.11472,100.60721c0.02,-3.214 -3.277,-6.548 -7.612,-6.558c-6.23,-0.014 -10.053,5.491 -6.674,9.597c2.699,3.28 9.227,3.305 12.506,0.557c1.228,-1.031 1.772,-2.304 1.78,-3.596"/>
     <path id="svg_42" fill="#232020" d="m86.46043,119.08571c-5.971,0 -12.371,-0.298 -18.652,-1.353c-1.634,-0.275 -2.737,-1.822 -2.462,-3.456c0.275,-1.633 1.825,-2.726 3.456,-2.462c8.511,1.429 17.077,1.392 25.071,1.14l1.651,-0.052c4.417,-0.133 8.985,-0.271 13.337,-0.869c1.649,-0.231 3.156,0.922 3.38,2.564c0.226,1.641 -0.922,3.155 -2.563,3.38c-4.668,0.641 -9.399,0.785 -13.972,0.923l-1.642,0.05c-2.419,0.077 -4.97,0.135 -7.604,0.135"/>
    </g>
   </g>
  </g>
 </g>
</svg>