<svg width="265" height="198" xmlns="http://www.w3.org/2000/svg" xmlns:undefined="http://www.inkscape.org/namespaces/inkscape" version="1.1">
 <defs>
  <clipPath id="clip_58">
   <path id="svg_1" d="m-47.59739,-84.32219l360,0l0,360l-360,0l0,-360z"/>
  </clipPath>
  <clipPath id="clip_59">
   <path id="svg_2" d="m130.71361,27.46681l26.543,0l0,-15.03l-26.543,0l0,15.03z"/>
  </clipPath>
  <clipPath id="clip_60">
   <path id="svg_3" d="m83.38461,49.14081l29.53,0l0,-16.666l-29.53,0l0,16.666z"/>
  </clipPath>
  <clipPath id="clip_61">
   <path id="svg_4" d="m86.05261,27.81381l27.432,0l0,-12.24l-27.432,0l0,12.24z"/>
  </clipPath>
  <clipPath id="clip_62">
   <path id="svg_5" d="m127.61761,45.84781l46.751,0l0,-14.96l-46.751,0l0,14.96z"/>
  </clipPath>
  <clipPath id="clip_63">
   <path id="svg_6" d="m209.16361,98.36581l20.651,0l0,-45.671l-20.651,0l0,45.671z"/>
  </clipPath>
  <clipPath id="clip_64">
   <path id="svg_7" d="m222.67261,112.44581l9.313,0l0,-9.313l-9.313,0l0,9.313z"/>
  </clipPath>
 </defs>
 <g>
  <title>Layer 1</title>
  <g id="svg_8">
   <g id="svg_9"  >
    <g id="svg_10" clip-path="url(#clip_58)">
     <path id="svg_11" fill="#ffad00" d="m253.61742,84.882c-2.72,-14.926 -8.821,-29.277 -17.982,-41.746c-3.219,-4.381 -6.877,-8.094 -10.874,-11.271c-12.506,-9.938 -28.338,-14.631 -44.472,-18.121c0,0 -19.24,-13.744 -47.643,-13.744c-19.807,0 -39.518,4.307 -52.797,15.901c-10.091,0.47 -28.67,2.213 -45.625,19.773c-6.372,6.6 -12.059,16.494 -15.702,27.683c-2.534,6.144 -4.372,12.558 -5.613,19.084c-1.298,6.827 -3.647,9.009 -6.872,14.811c-6.399,11.512 -7.306,26.716 -4.614,39.365c6.863,32.263 37.408,47.694 67.096,55.159c21.775,5.475 43.798,5.274 66.035,6.261c22.732,1.01 45.946,0.179 67.881,-6.387c20.652,-6.183 41.102,-17.002 52.814,-35.789c12.663,-20.313 13.355,-51.498 -1.632,-70.979"/>
     <path id="svg_12" fill="#ff9400" d="m88.42211,38.37511c-0.721,0 -1.437,-0.311 -1.931,-0.911c-10.31,-12.519 -28.263,-10.433 -28.441,-10.41c-1.367,0.174 -2.62,-0.8 -2.791,-2.17c-0.172,-1.37 0.8,-2.62 2.17,-2.791c0.849,-0.107 20.882,-2.428 32.922,12.193c0.878,1.066 0.725,2.641 -0.341,3.519c-0.465,0.383 -1.028,0.57 -1.588,0.57"/>
     <path id="svg_13" fill="#ff9400" d="m157.05012,38.37511c-0.56,0 -1.122,-0.187 -1.588,-0.57c-1.066,-0.877 -1.219,-2.453 -0.341,-3.519c11.914,-14.471 32.158,-14.637 33.013,-14.637c1.381,0 2.5,1.12 2.5,2.5c0,1.38 -1.119,2.499 -2.499,2.5c-0.288,0.002 -18.791,0.23 -29.154,12.815c-0.494,0.6 -1.21,0.911 -1.931,0.911"/>
     <path id="svg_14" fill="#0eab24" d="m183.86842,39.21991c-0.573,-0.969 -1.21,-1.9 -1.912,-2.785c-4.704,-5.933 -10.818,-8.284 -18.144,-8.027c3.321,-2.754 5.551,-6.546 6.725,-10.669c0.707,-2.484 1.926,-6.863 0.703,-9.347c-2.176,-4.424 -11.128,-3.681 -15.198,-3.892c-7.693,-0.4 -15.659,0.451 -22.71,3.723c-5.703,2.646 -7.804,6.93 -10.294,9.892c-4.644,-6.056 -14.75,-7.277 -21.193,-8.076c-8.657,-1.07 -36.443,-2.351 -29.26,13.868c2.078,4.692 6.231,8.272 10.938,10.179c-2.535,0.835 -5.258,2.077 -7.986,3.944c-3.737,2.558 -5.373,6.806 -5.55,11.202c-0.166,4.142 0.152,9.216 4.792,10.669c4.633,1.45 10.163,-0.129 14.786,-0.952c6.29,-1.12 12.562,-2.346 18.807,-3.696c17.431,-3.769 17.358,-13.522 17.358,-13.522c4.995,6.44 13.552,9.675 21.092,11.948c8.428,2.542 17.176,4.018 25.912,4.999c4.645,0.521 15.376,0.167 14.919,-6.898c-0.286,-4.403 -1.546,-8.771 -3.785,-12.56"/>
     <g id="svg_15" opacity="0.39999">
      <g id="svg_16" clip-path="url(#clip_59)">
       <path id="svg_17" fill="#0eab24" d="m133.21221,27.4669c-0.608,0 -1.219,-0.221 -1.7,-0.668c-1.012,-0.939 -1.071,-2.521 -0.131,-3.533c1.737,-1.871 3.901,-3.078 5.793,-4.064c5.381,-2.799 11.07,-5.045 16.911,-6.672c1.332,-0.372 2.709,0.408 3.079,1.737c0.371,1.33 -0.407,2.709 -1.737,3.079c-5.507,1.534 -10.871,3.651 -15.944,6.292c-1.521,0.791 -3.244,1.744 -4.438,3.03c-0.492,0.53 -1.162,0.799 -1.833,0.799"/>
      </g>
     </g>
     <g id="svg_18" opacity="0.39999">
      <g id="svg_19" clip-path="url(#clip_60)">
       <path id="svg_20" fill="#0eab24" d="m85.88601,49.14081c-0.722,0 -1.437,-0.312 -1.933,-0.912c-0.876,-1.067 -0.722,-2.643 0.344,-3.52c7.39,-6.073 16.249,-10.286 25.621,-12.183c1.346,-0.276 2.672,0.6 2.947,1.954c0.274,1.353 -0.601,2.673 -1.955,2.946c-8.573,1.736 -16.677,5.59 -23.437,11.147c-0.466,0.381 -1.028,0.568 -1.587,0.568"/>
      </g>
     </g>
     <g id="svg_21" opacity="0.39999">
      <g id="svg_22" clip-path="url(#clip_61)">
       <path id="svg_23" fill="#0eab24" d="m110.9827,27.81361c-0.401,0 -0.808,-0.096 -1.185,-0.3c-6.73,-3.629 -13.987,-5.971 -21.569,-6.961c-1.369,-0.177 -2.334,-1.432 -2.155,-2.801c0.179,-1.37 1.43,-2.339 2.802,-2.156c8.189,1.069 16.027,3.598 23.295,7.518c1.216,0.655 1.669,2.172 1.014,3.387c-0.451,0.837 -1.312,1.313 -2.202,1.313"/>
      </g>
     </g>
     <g id="svg_24" opacity="0.39999">
      <g id="svg_25" clip-path="url(#clip_62)">
       <path id="svg_26" fill="#0eab24" d="m171.86651,45.84781c-0.501,0 -1.006,-0.149 -1.444,-0.461c-10.086,-7.157 -23.24,-10.226 -40.178,-9.358c-1.405,0.062 -2.554,-0.992 -2.624,-2.37c-0.069,-1.379 0.991,-2.554 2.37,-2.624c18.121,-0.914 32.288,2.442 43.325,10.274c1.126,0.799 1.391,2.359 0.592,3.486c-0.487,0.687 -1.259,1.053 -2.041,1.053"/>
      </g>
     </g>
     <path id="svg_27" fill="#036b20" d="m135.71612,25.75011c-2.471,-3.973 -7.251,-5.245 -11.728,-5.257c-5.275,-0.254 -11.122,0.861 -13.732,6.026c-2.494,4.934 0.261,10.246 5.286,11.918c2.825,0.939 5.861,1.265 8.824,1.012c2.886,-0.246 6.041,-0.691 8.656,-2.012c4.102,-2.075 5.096,-7.218 3.024,-11.113c-0.104,-0.197 -0.215,-0.388 -0.33,-0.574"/>
     <path id="svg_28" fill="#05531a" d="m127.69361,28.24231c-0.234,-0.774 -0.76,-1.473 -1.476,-1.863c-0.519,-0.284 -1.089,-0.444 -1.67,-0.53c-1.222,-0.182 -2.441,-0.17 -3.638,0.179c-1.346,0.392 -2.672,1.282 -3.048,2.711c-0.025,0.098 -0.032,0.194 -0.049,0.292c-0.059,0.157 -0.105,0.321 -0.135,0.491c-0.169,0.974 0.027,1.895 0.703,2.637c0.419,0.46 1.054,0.789 1.663,0.908c0.954,0.187 2.015,0.259 2.986,0.183c1.313,-0.104 2.503,-0.471 3.522,-1.329c1.034,-0.869 1.537,-2.375 1.142,-3.679"/>
     <path id="svg_29" fill="#ff9400" d="m83.8147,65.29121c-0.907,0 -1.783,-0.496 -2.227,-1.358c-0.629,-1.228 -0.147,-2.734 1.081,-3.365c0.79,-0.407 19.656,-9.962 46.029,-10.494c8.47,-0.183 29.958,0.457 46.522,10.01c1.197,0.69 1.607,2.219 0.917,3.415c-0.689,1.196 -2.219,1.605 -3.415,0.917c-15.475,-8.926 -35.877,-9.504 -43.923,-9.344c-25.16,0.509 -43.661,9.849 -43.845,9.943c-0.365,0.187 -0.755,0.276 -1.139,0.276"/>
     <g id="svg_30" opacity="0.3">
      <g id="svg_31" clip-path="url(#clip_63)">
       <path id="svg_32" fill="#ffffff" d="m215.36941,53.77061c-3.667,-3.61 -8.561,2.726 -4.927,6.303c9.283,9.139 11.25,22.45 11.431,34.902c0.075,5.141 8.016,4.129 7.941,-0.973c-0.217,-14.93 -3.507,-29.464 -14.445,-40.232"/>
      </g>
     </g>
     <g id="svg_33" opacity="0.3">
      <g id="svg_34" clip-path="url(#clip_64)">
       <path id="svg_35" fill="#ffffff" d="m231.79913,106.48741c0.719,2.468 -0.699,5.052 -3.168,5.771c-2.468,0.719 -5.052,-0.699 -5.771,-3.167c-0.719,-2.468 0.699,-5.052 3.167,-5.771c2.468,-0.72 5.052,0.698 5.772,3.167"/>
      </g>
     </g>
     <path id="svg_36" fill="#232020" d="m145.7981,113.2384c-4.689,2.252 -10.391,1.711 -15.457,1.7c-4.681,-0.009 -10.996,0.861 -15.334,-1.175c-4.634,-2.173 -8.7,4.721 -4.038,6.909c5.992,2.81 12.893,2.253 19.372,2.266c6.735,0.016 13.308,0.179 19.495,-2.792c4.639,-2.227 0.586,-9.128 -4.038,-6.908"/>
     <path id="svg_37" fill="#232020" d="m112.33131,107.96791c-0.782,-2.004 -2.687,-3.42 -4.92,-2.794c-1.916,0.536 -3.587,2.89 -2.794,4.92c1.458,3.737 1.411,7.242 -0.106,10.95c-0.825,2.014 0.894,4.377 2.794,4.92c2.284,0.654 4.105,-0.803 4.92,-2.794c1.979,-4.835 2.005,-10.338 0.106,-15.202"/>
     <path id="svg_38" fill="#232020" d="m154.98371,118.69551c-1.591,-1.747 -0.347,-5.922 0.281,-7.812c1.627,-4.897 -6.096,-6.998 -7.715,-2.127c-1.668,5.022 -2.004,11.444 1.777,15.595c3.474,3.816 9.118,-1.855 5.657,-5.656"/>
     <path id="svg_39" fill="#ffc072" d="m91.18781,91.49532c-4.056,-1.62 -9.125,-1.141 -12.819,1.121c-8.391,5.139 -6.218,17.356 3.021,20.136c1.885,0.567 3.885,0.743 5.839,0.506c8.302,-1.007 13.144,-8.882 9.668,-16.463c-1.182,-2.578 -3.261,-4.321 -5.709,-5.3"/>
     <path id="svg_40" fill="#ffc072" d="m162.65461,96.7951c-3.476,7.581 1.366,15.456 9.667,16.463c1.955,0.237 3.955,0.061 5.84,-0.506c9.239,-2.78 11.412,-14.997 3.021,-20.136c-3.694,-2.261 -8.763,-2.741 -12.819,-1.121c-2.448,0.979 -4.527,2.722 -5.709,5.3"/>
     <path id="svg_41" fill="#232020" d="m99.48661,94.2794l-0.001,0.001c0.005,-0.003 0.008,-0.006 0.013,-0.009l-0.001,0c-0.003,0.002 -0.007,0.005 -0.011,0.008"/>
     <path id="svg_42" fill="#232020" d="m107.42211,94.87032c0.02,-4.075 -3.278,-8.303 -7.612,-8.315c-6.23,-0.019 -10.053,6.961 -6.674,12.169c2.699,4.159 9.227,4.19 12.506,0.705c1.228,-1.306 1.772,-2.92 1.78,-4.559"/>
     <path id="svg_43" fill="#232020" d="m159.49731,94.2794c-0.001,0 -0.001,0 -0.001,0.001l0.012,-0.009c-0.004,0.002 -0.007,0.005 -0.011,0.008"/>
     <path id="svg_44" fill="#232020" d="m167.26981,94.87032c0.101,-4.122 -3.116,-8.303 -7.45,-8.315c-6.23,-0.019 -10.053,6.961 -6.674,12.169c3.083,4.75 10.404,4.439 13.207,-0.492c0.6,-1.053 0.889,-2.206 0.917,-3.362"/>
    </g>
   </g>
  </g>
 </g>
</svg>