<svg width="233" height="194" xmlns="http://www.w3.org/2000/svg" xmlns:undefined="http://www.inkscape.org/namespaces/inkscape" version="1.1">
 <defs>
  <clipPath id="clip_0">
   <path id="svg_1" d="m-62.86818,-84.66983l360,0l0,360l-360,0l0,-360z"/>
  </clipPath>
  <clipPath id="clip_1">
   <path id="svg_2" d="m22.83552,76.73917l35.9213,0l0,-38.348l-35.9213,0l0,38.348z"/>
  </clipPath>
  <clipPath id="clip_2">
   <path id="svg_3" d="m18.63482,88.03617l7.2017,0l0,-7.202l-7.2017,0l0,7.202z"/>
  </clipPath>
  <clipPath id="clip_3">
   <path id="svg_4" d="m82.05482,185.49037l26.772,0l0,-14.5232l-26.772,0l0,14.5232z"/>
  </clipPath>
  <clipPath id="clip_4">
   <path id="svg_5" d="m126.85282,166.49417l29.795,0l0,-16.088l-29.795,0l0,16.088z"/>
  </clipPath>
  <clipPath id="clip_5">
   <path id="svg_6" d="m126.05582,183.90147l27.259,0l0,-12.7623l-27.259,0l0,12.7623z"/>
  </clipPath>
  <clipPath id="clip_6">
   <path id="svg_7" d="m65.61082,167.52017l46.51,0l0,-15.833l-46.51,0l0,15.833z"/>
  </clipPath>
 </defs>
 <g>
  <title>Layer 1</title>
  <g id="svg_8">
   <g id="svg_9"  >
    <g id="svg_10" clip-path="url(#clip_0)">
     <path id="svg_11" fill="#ff7d0a" d="m0.97312,117.01477c5.501,37.564 31.154,55.888 65.052,63.219c0,0 19.241,13.744 47.644,13.744c19.806,0 39.518,-4.307 52.796,-15.9c10.092,-0.472 28.672,-2.214 45.626,-19.774c21.784,-22.561 26.198,-56.091 15.817,-85.295c-7.71,-21.692 -24.404,-38.864 -43.745,-50.764c-9.833,-6.05 -20.433,-10.855 -31.406,-14.428c-12.389,-4.034 -25.167,-8.041 -38.341,-7.807c-13.973,0.248 -26.448,6.252 -38.985,11.786c-43.187,19.064 -82.135,52.716 -74.458,105.219"/>
     <path id="svg_12" fill="#ff6a11" d="m185.01273,172.57916c-6.671,0 -20.31,-1.489 -29.434,-12.569c-1.053,-1.28 -0.871,-3.17 0.409,-4.223c1.278,-1.054 3.171,-0.869 4.222,0.408c10.137,12.31 27.815,10.255 27.993,10.233c1.64,-0.205 3.144,0.961 3.349,2.604c0.206,1.644 -0.96,3.144 -2.604,3.349c-0.217,0.027 -1.678,0.198 -3.935,0.198"/>
     <path id="svg_13" fill="#ff6a11" d="m58.18112,174.82816c-1.657,0 -3,-1.343 -3,-3c0,-1.656 1.341,-2.998 2.997,-3c0.276,-0.002 18.56,-0.233 28.77,-12.633c1.053,-1.278 2.944,-1.463 4.223,-0.409c1.279,1.054 1.462,2.944 0.409,4.224c-12.063,14.65 -32.533,14.818 -33.399,14.818"/>
     <g id="svg_14" opacity="0.39999">
      <g id="svg_15" clip-path="url(#clip_1)">
       <path id="svg_16" fill="#ff7d0a" d="m25.83492,76.73888c-0.389,0 -0.784,-0.076 -1.165,-0.237c-1.526,-0.644 -2.242,-2.404 -1.598,-3.93c5.898,-13.977 17.293,-26.304 31.263,-33.821c1.458,-0.786 3.279,-0.24 4.063,1.22c0.786,1.459 0.239,3.278 -1.22,4.063c-12.786,6.881 -23.202,18.132 -28.577,30.871c-0.484,1.145 -1.596,1.834 -2.766,1.834"/>
      </g>
     </g>
     <g id="svg_17" opacity="0.39999">
      <g id="svg_18" clip-path="url(#clip_2)">
       <path id="svg_19" fill="#ff7d0a" d="m24.05032,87.54497c1.717,-1.002 2.297,-3.207 1.295,-4.924c-1.002,-1.717 -3.207,-2.297 -4.924,-1.295c-1.718,1.002 -2.297,3.206 -1.295,4.924c1.002,1.717 3.206,2.297 4.924,1.295"/>
      </g>
     </g>
     <path id="svg_20" fill="#0fbd1d" d="m56.01852,158.03326c0.55,0.983 1.165,1.929 1.845,2.829c4.565,6.042 10.623,8.535 17.952,8.448c-3.384,2.677 -5.703,6.416 -6.972,10.511c-0.765,2.466 -2.086,6.816 -0.922,9.327c2.072,4.474 11.04,3.941 15.103,4.246c7.681,0.579 15.666,-0.086 22.791,-3.191c5.764,-2.512 7.964,-6.745 10.523,-9.648c4.5,6.163 14.576,7.619 20.998,8.568c8.63,1.272 36.377,3.203 29.577,-13.18c-1.968,-4.739 -6.038,-8.416 -10.699,-10.431c2.554,-0.777 5.306,-1.955 8.077,-3.756c3.795,-2.471 5.531,-6.679 5.81,-11.07c0.263,-4.137 0.064,-9.216 -4.542,-10.778c-4.597,-1.558 -10.162,-0.108 -14.804,0.606c-6.314,0.972 -12.612,2.052 -18.887,3.255c-7.617,1.462 -14.352,4.783 -18.222,11.693c-2.018,-2.661 -5.909,-4.734 -8.836,-6.325c-3.623,-1.97 -7.508,-3.413 -11.419,-4.693c-8.366,-2.737 -17.078,-4.417 -25.789,-5.602c-4.63,-0.631 -15.367,-0.527 -15.075,6.546c0.183,4.409 1.341,8.805 3.491,12.645"/>
     <g id="svg_21" opacity="0.39999">
      <g id="svg_22" clip-path="url(#clip_3)">
       <path id="svg_23" fill="#0fbd1d" d="m84.55322,185.49039c-1.117,0 -2.134,-0.754 -2.421,-1.887c-0.34,-1.338 0.47,-2.698 1.809,-3.037c5.541,-1.405 10.953,-3.395 16.086,-5.917c1.539,-0.756 3.283,-1.668 4.508,-2.927c0.964,-0.988 2.545,-1.01 3.536,-0.046c0.989,0.962 1.01,2.545 0.047,3.535c-1.781,1.829 -3.972,2.986 -5.886,3.926c-5.445,2.674 -11.185,4.786 -17.063,6.275c-0.206,0.053 -0.412,0.078 -0.616,0.078"/>
      </g>
     </g>
     <g id="svg_24" opacity="0.39999">
      <g id="svg_25" clip-path="url(#clip_4)">
       <path id="svg_26" fill="#0fbd1d" d="m129.34962,166.49426c-1.188,0 -2.242,-0.851 -2.458,-2.062c-0.242,-1.358 0.663,-2.657 2.022,-2.899c8.614,-1.536 16.806,-5.2 23.692,-10.596c1.088,-0.851 2.659,-0.659 3.51,0.426c0.851,1.087 0.661,2.658 -0.426,3.51c-7.528,5.898 -16.483,9.903 -25.899,11.582c-0.148,0.026 -0.295,0.039 -0.441,0.039"/>
      </g>
     </g>
     <g id="svg_27" opacity="0.39999">
      <g id="svg_28" clip-path="url(#clip_5)">
       <path id="svg_29" fill="#0fbd1d" d="m150.81732,183.90146c-0.127,0 -0.255,-0.01 -0.385,-0.029c-8.162,-1.261 -15.938,-3.973 -23.113,-8.061c-1.2,-0.683 -1.618,-2.21 -0.935,-3.409c0.683,-1.201 2.209,-1.619 3.41,-0.935c6.643,3.785 13.844,6.296 21.402,7.463c1.364,0.211 2.3,1.488 2.089,2.853c-0.191,1.235 -1.256,2.118 -2.468,2.118"/>
      </g>
     </g>
     <g id="svg_30" opacity="0.39999">
      <g id="svg_31" clip-path="url(#clip_6)">
       <path id="svg_32" fill="#0fbd1d" d="m106.52393,167.52057c-16.619,0 -29.696,-3.717 -39.907,-11.328c-1.107,-0.825 -1.336,-2.392 -0.51,-3.499c0.824,-1.107 2.39,-1.335 3.498,-0.511c9.915,7.391 22.978,10.762 39.948,10.296c1.375,-0.063 2.529,1.051 2.567,2.431c0.038,1.381 -1.051,2.53 -2.43,2.567c-1.069,0.029 -2.126,0.044 -3.166,0.044"/>
      </g>
     </g>
     <path id="svg_33" fill="#007d1c" d="m105.21332,172.65726c2.377,4.029 7.126,5.413 11.601,5.53c5.269,0.377 11.14,-0.6 13.87,-5.704c2.609,-4.875 -0.021,-10.249 -5.007,-12.038c-2.801,-1.005 -5.829,-1.402 -8.797,-1.218c-2.891,0.179 -6.056,0.55 -8.701,1.81c-4.15,1.977 -5.263,7.097 -3.283,11.038c0.1,0.2 0.206,0.395 0.317,0.582"/>
     <path id="svg_34" fill="#05531a" d="m113.29152,170.35358c0.216,0.779 0.725,1.489 1.432,1.897c0.513,0.296 1.079,0.468 1.658,0.569c1.217,0.21 2.436,0.225 3.641,-0.094c1.354,-0.36 2.7,-1.22 3.11,-2.64c0.028,-0.096 0.036,-0.193 0.056,-0.291c0.063,-0.155 0.112,-0.318 0.145,-0.487c0.193,-0.97 0.019,-1.894 -0.64,-2.652c-0.408,-0.47 -1.035,-0.814 -1.641,-0.948c-0.949,-0.208 -2.009,-0.305 -2.981,-0.251c-1.315,0.073 -2.513,0.412 -3.553,1.246c-1.053,0.844 -1.591,2.338 -1.227,3.651"/>
     <path id="svg_35" fill="#ff6a11" d="m113.15962,149.00497c-0.123,0 -0.241,-0.001 -0.364,-0.001c-8.512,-0.025 -30.088,-1.164 -46.533,-11.167c-1.416,-0.861 -1.865,-2.707 -1.004,-4.122c0.861,-1.415 2.707,-1.865 4.122,-1.005c15.156,9.22 35.424,10.271 43.434,10.294c0.112,0 0.224,0.001 0.336,0.001c24.869,0 43.327,-8.776 43.51,-8.865c1.493,-0.72 3.285,-0.097 4.007,1.393c0.722,1.491 0.1,3.284 -1.389,4.006c-0.8,0.388 -19.817,9.466 -46.119,9.466"/>
     <path id="svg_36" fill="#ffa489" d="m79.81302,87.84827c-4.055,-1.62 -9.125,-1.141 -12.819,1.121c-8.39,5.139 -6.219,17.355 3.021,20.135c1.885,0.568 3.885,0.744 5.84,0.506c8.301,-1.007 13.143,-8.882 9.667,-16.462c-1.182,-2.579 -3.26,-4.322 -5.709,-5.3"/>
     <path id="svg_37" fill="#ffa489" d="m147.47072,93.14807c-3.476,7.581 1.367,15.456 9.668,16.462c1.955,0.238 3.954,0.062 5.84,-0.505c9.239,-2.781 11.411,-14.997 3.021,-20.136c-3.694,-2.262 -8.764,-2.741 -12.819,-1.121c-2.449,0.978 -4.527,2.721 -5.71,5.3"/>
     <path id="svg_38" d="m75.99512,93.41707c-0.372,-3.527 1.268,-7.197 4.143,-9.273c2.874,-2.077 6.873,-2.48 10.105,-1.019c3.231,1.461 5.569,4.73 5.909,8.26" stroke="#232020" fill="none" stroke-linejoin="round" stroke-linecap="round" stroke-width="6"/>
     <path id="svg_39" d="m135.67091,90.95956c0.486,-3.513 2.959,-6.682 6.248,-8.007c3.289,-1.326 7.268,-0.757 10.054,1.438c2.786,2.194 4.271,5.929 3.753,9.437" stroke="#232020" fill="none" stroke-linejoin="round" stroke-linecap="round" stroke-width="6"/>
     <path id="svg_40" d="m137.95412,103.66417c-1.457,0.805 -3.109,1.175 -4.745,1.488c-5.718,1.094 -11.547,1.6 -17.369,1.519c-5.821,0.081 -11.65,-0.425 -17.368,-1.519c-1.636,-0.313 -3.288,-0.683 -4.746,-1.488" stroke="#232020" fill="none" stroke-linejoin="round" stroke-linecap="round" stroke-width="6"/>
    </g>
   </g>
  </g>
 </g>
</svg>