<svg width="0" height="0" class="hidden">
  <symbol version="1.1" xmlns="http://www.w3.org/2000/svg" enable-background="new 0 0 48 48" viewBox="0 0 48 48" id="icon_calendar">
    <path fill="#CFD8DC" d="M5,38V14h38v24c0,2.2-1.8,4-4,4H9C6.8,42,5,40.2,5,38z"></path>
    <path fill="#F44336" d="M43,10v6H5v-6c0-2.2,1.8-4,4-4h30C41.2,6,43,7.8,43,10z"></path>
    <g fill="#B71C1C">
      <circle cx="33" cy="10" r="3"></circle>
      <circle cx="15" cy="10" r="3"></circle>
    </g>
    <g fill="#B0BEC5">
      <path d="M33,3c-1.1,0-2,0.9-2,2v5c0,1.1,0.9,2,2,2s2-0.9,2-2V5C35,3.9,34.1,3,33,3z"></path>
      <path d="M15,3c-1.1,0-2,0.9-2,2v5c0,1.1,0.9,2,2,2s2-0.9,2-2V5C17,3.9,16.1,3,15,3z"></path>
    </g>
    <g fill="#90A4AE">
      <rect x="13" y="20" width="4" height="4"></rect>
      <rect x="19" y="20" width="4" height="4"></rect>
      <rect x="25" y="20" width="4" height="4"></rect>
      <rect x="31" y="20" width="4" height="4"></rect>
      <rect x="13" y="26" width="4" height="4"></rect>
      <rect x="19" y="26" width="4" height="4"></rect>
      <rect x="25" y="26" width="4" height="4"></rect>
      <rect x="31" y="26" width="4" height="4"></rect>
      <rect x="13" y="32" width="4" height="4"></rect>
      <rect x="19" y="32" width="4" height="4"></rect>
      <rect x="25" y="32" width="4" height="4"></rect>
      <rect x="31" y="32" width="4" height="4"></rect>
    </g>
  </symbol>
  <symbol xmlns="http://www.w3.org/2000/svg" xmlns:xlink="http://www.w3.org/1999/xlink" version="1.1" xml:space="preserve" viewBox="0 0 256 256" id="icon_setting">
    <defs>
    </defs>
    <g style="stroke: none; stroke-width: 0; stroke-dasharray: none; stroke-linecap: butt; stroke-linejoin: miter; stroke-miterlimit: 10; fill: none; fill-rule: nonzero; opacity: 1;" transform="translate(1.4065934065934016 1.4065934065934016) scale(2.81 2.81)" >
      <path d="M 86.306 51.057 c -1.404 0 -2.664 -0.808 -3.309 -2.055 c -0.129 -0.249 -0.264 -0.496 -0.405 -0.741 c -0.141 -0.245 -0.288 -0.485 -0.439 -0.721 c -0.758 -1.182 -0.828 -2.677 -0.125 -3.893 c 1.02 -1.767 0.415 -4.026 -1.352 -5.046 l -4.892 -2.825 c -1.767 -1.02 -4.026 -0.415 -5.046 1.352 l -0.001 0.002 c -0.692 1.198 -1.995 1.905 -3.377 1.837 c -0.6 -0.029 -1.204 -0.03 -1.807 0 c -1.38 0.067 -2.68 -0.641 -3.37 -1.838 l -0.001 -0.001 c -1.02 -1.767 -3.279 -2.372 -5.046 -1.352 l -4.892 2.825 c -1.767 1.02 -2.372 3.279 -1.352 5.046 l 0.001 0.001 c 0.691 1.196 0.654 2.676 -0.094 3.838 c -0.327 0.508 -0.629 1.031 -0.903 1.565 c -0.633 1.231 -1.896 2.006 -3.28 2.006 h -0.002 c -2.04 0 -3.694 1.654 -3.694 3.694 V 60.4 c 0 2.04 1.654 3.694 3.694 3.694 l 0 0 c 1.404 0 2.664 0.808 3.309 2.055 c 0.129 0.249 0.264 0.496 0.405 0.741 c 0.141 0.245 0.288 0.485 0.439 0.721 c 0.758 1.182 0.827 2.677 0.125 3.893 c -1.02 1.767 -0.415 4.026 1.352 5.046 l 4.892 2.825 c 1.767 1.02 4.026 0.415 5.046 -1.352 l 0.001 -0.002 c 0.692 -1.198 1.995 -1.905 3.377 -1.837 c 0.601 0.029 1.204 0.03 1.807 0 c 1.38 -0.067 2.68 0.641 3.37 1.838 l 0.001 0.001 c 1.02 1.767 3.279 2.372 5.046 1.352 l 4.892 -2.825 c 1.767 -1.02 2.372 -3.279 1.352 -5.046 l -0.001 -0.001 c -0.691 -1.196 -0.654 -2.676 0.094 -3.838 c 0.327 -0.508 0.629 -1.031 0.903 -1.565 c 0.633 -1.231 1.896 -2.006 3.28 -2.006 h 0.002 c 2.04 0 3.694 -1.654 3.694 -3.694 v -5.649 C 90 52.711 88.346 51.057 86.306 51.057 z M 71.69 66.634 c -5.003 2.889 -11.401 1.174 -14.289 -3.829 c -2.889 -5.003 -1.174 -11.401 3.829 -14.289 c 5.003 -2.889 11.401 -1.174 14.289 3.829 C 78.408 57.348 76.693 63.746 71.69 66.634 z" style="stroke: none; stroke-width: 1; stroke-dasharray: none; stroke-linecap: butt; stroke-linejoin: miter; stroke-miterlimit: 10; fill: rgb(80,181,216); fill-rule: nonzero; opacity: 1;" transform=" matrix(1 0 0 1 0 0) " stroke-linecap="round" />
      <path d="M 45.21 75.73 c -0.539 -2.01 -0.387 -4.096 0.419 -5.979 c -0.024 -0.041 -0.048 -0.083 -0.072 -0.124 c -0.019 -0.033 -0.039 -0.066 -0.058 -0.101 c -4.237 -0.513 -7.593 -3.923 -8.029 -8.183 c -5.875 0.23 -11.678 -2.717 -14.822 -8.163 c -4.518 -7.825 -1.837 -17.831 5.988 -22.349 c 6.844 -3.951 15.347 -2.386 20.396 3.303 c 0.152 -0.1 0.301 -0.203 0.46 -0.295 l 4.893 -2.825 c 2.126 -1.228 4.604 -1.553 6.977 -0.918 c 0.202 0.054 0.399 0.119 0.595 0.186 c -0.193 -0.33 -0.39 -0.658 -0.595 -0.977 c -1.185 -1.849 -1.294 -4.187 -0.196 -6.089 c 1.595 -2.763 0.648 -6.296 -2.115 -7.892 l -7.652 -4.418 c -2.763 -1.595 -6.296 -0.649 -7.892 2.114 l -0.002 0.003 c -1.082 1.874 -3.12 2.979 -5.282 2.874 c -0.939 -0.046 -1.883 -0.046 -2.827 0 c -2.158 0.104 -4.192 -1.003 -5.272 -2.874 l -0.001 -0.002 c -1.595 -2.763 -5.129 -3.71 -7.892 -2.115 l -7.652 4.418 c -2.763 1.595 -3.71 5.129 -2.115 7.892 l 0.001 0.002 c 1.08 1.871 1.022 4.186 -0.147 6.002 c -0.512 0.795 -0.983 1.612 -1.413 2.448 c -0.99 1.925 -2.965 3.138 -5.13 3.138 H 5.777 C 2.586 34.805 0 37.392 0 40.582 v 8.836 c 0 3.19 2.586 5.777 5.777 5.777 l 0 0 c 2.196 0 4.166 1.264 5.176 3.214 c 0.201 0.389 0.412 0.775 0.633 1.158 c 0.221 0.383 0.45 0.759 0.686 1.128 c 1.185 1.849 1.294 4.187 0.196 6.089 c -1.595 2.763 -0.649 6.296 2.115 7.892 l 7.652 4.418 c 2.763 1.595 6.296 0.649 7.892 -2.114 l 0.001 -0.003 c 1.082 -1.874 3.12 -2.979 5.282 -2.874 c 0.939 0.046 1.883 0.046 2.827 0 c 2.158 -0.105 4.192 1.003 5.272 2.874 l 0.001 0.002 c 0.887 1.536 2.375 2.492 3.994 2.779 C 46.418 78.647 45.624 77.273 45.21 75.73 z" style="stroke: none; stroke-width: 1; stroke-dasharray: none; stroke-linecap: butt; stroke-linejoin: miter; stroke-miterlimit: 10; fill: rgb(234,84,84); fill-rule: nonzero; opacity: 1;" transform=" matrix(1 0 0 1 0 0) " stroke-linecap="round" />
    </g>
  </symbol>
  <symbol xmlns="http://www.w3.org/2000/svg" xmlns:xlink="http://www.w3.org/1999/xlink" version="1.1" xml:space="preserve" viewBox="0 0 256 256" id="icon_profile">
    <defs>
    </defs>
    <g style="stroke: none; stroke-width: 0; stroke-dasharray: none; stroke-linecap: butt; stroke-linejoin: miter; stroke-miterlimit: 10; fill: none; fill-rule: nonzero; opacity: 1;" transform="translate(1.4065934065934016 1.4065934065934016) scale(2.81 2.81)" >
      <circle cx="45" cy="45" r="45" style="stroke: none; stroke-width: 1; stroke-dasharray: none; stroke-linecap: butt; stroke-linejoin: miter; stroke-miterlimit: 10; fill: rgb(32,196,203); fill-rule: nonzero; opacity: 1;" transform="  matrix(1 0 0 1 0 0) "/>
      <path d="M 48.601 48.545 c 5.698 -2.801 9.639 -8.649 9.639 -15.415 c 0 -9.476 -7.709 -17.185 -17.185 -17.185 S 23.871 23.654 23.871 33.13 c 0 6.925 4.126 12.89 10.041 15.609 c -7.837 1.448 -13.795 8.32 -13.795 16.57 v 9.82 c 0 1.657 1.343 3 3 3 h 37.548 c 1.657 0 3 -1.343 3 -3 v -9.82 C 63.665 56.618 57.056 49.447 48.601 48.545 z M 29.871 33.13 c 0 -6.167 5.018 -11.185 11.185 -11.185 S 52.24 26.963 52.24 33.13 c 0 6.167 -5.018 11.184 -11.185 11.184 S 29.871 39.296 29.871 33.13 z" style="stroke: none; stroke-width: 1; stroke-dasharray: none; stroke-linecap: butt; stroke-linejoin: miter; stroke-miterlimit: 10; fill: rgb(27,167,173); fill-rule: nonzero; opacity: 1;" transform=" matrix(1 0 0 1 0 0) " stroke-linecap="round" />
      <path d="M 51.171 45.285 c 6.364 -2.52 10.884 -8.721 10.884 -15.971 c 0 -9.475 -7.709 -17.184 -17.184 -17.184 s -17.184 7.709 -17.184 17.184 c 0 7.272 4.548 13.488 10.942 15.993 c -8.565 0.795 -15.295 8.016 -15.295 16.785 v 9.82 c 0 1.657 1.343 3 3 3 h 37.549 c 1.657 0 3 -1.343 3 -3 v -9.82 C 66.884 53.181 59.933 45.881 51.171 45.285 z" style="stroke: none; stroke-width: 1; stroke-dasharray: none; stroke-linecap: butt; stroke-linejoin: miter; stroke-miterlimit: 10; fill: rgb(255,255,255); fill-rule: nonzero; opacity: 1;" transform=" matrix(1 0 0 1 0 0) " stroke-linecap="round" />
    </g>
  </symbol>
</svg>